<?xml version="1.0" encoding="UTF-8" standalone="no"?>
<svg
   class="svglite"
   width="720pt"
   height="339.46753pt"
   viewBox="0 0 720 339.46753"
   version="1.1"
   id="svg359"
   sodipodi:docname="Daily_timeseries_Coping_Prevention.svg"
   inkscape:version="1.3 (1:1.3+202307231459+0e150ed6c4)"
   xmlns:inkscape="http://www.inkscape.org/namespaces/inkscape"
   xmlns:sodipodi="http://sodipodi.sourceforge.net/DTD/sodipodi-0.dtd"
   xmlns="http://www.w3.org/2000/svg"
   xmlns:svg="http://www.w3.org/2000/svg">
  <sodipodi:namedview
     id="namedview361"
     pagecolor="#ffffff"
     bordercolor="#666666"
     borderopacity="1.0"
     inkscape:pageshadow="2"
     inkscape:pageopacity="0.0"
     inkscape:pagecheckerboard="0"
     inkscape:document-units="pt"
     showgrid="false"
     inkscape:zoom="1.2572917"
     inkscape:cx="479.60231"
     inkscape:cy="227.87075"
     inkscape:window-width="1920"
     inkscape:window-height="1015"
     inkscape:window-x="0"
     inkscape:window-y="0"
     inkscape:window-maximized="1"
     inkscape:current-layer="svg359"
     inkscape:showpageshadow="2"
     inkscape:deskcolor="#d1d1d1" />
  <defs
     id="defs4">
    <style
       type="text/css"
       id="style2"><![CDATA[
    .svglite line, .svglite polyline, .svglite polygon, .svglite path, .svglite rect, .svglite circle {
      fill: none;
      stroke: #000000;
      stroke-linecap: round;
      stroke-linejoin: round;
      stroke-miterlimit: 10.00;
    }
    .svglite text {
      white-space: pre;
    }
  ]]></style>
  </defs>
  <defs
     id="defs11">
    <clipPath
       id="cpMC4wMHw3MjAuMDB8MC4wMHwzNjAuMDA=">
      <rect
         x="0"
         y="0"
         width="720"
         height="360"
         id="rect8" />
    </clipPath>
  </defs>
  <g
     clip-path="url(#cpMC4wMHw3MjAuMDB8MC4wMHwzNjAuMDA=)"
     id="g15"
     transform="scale(1,0.94296538)">
    <rect
       x="0"
       y="0"
       width="720"
       height="360"
       style="fill:#ffffff;stroke:#ffffff;stroke-width:1.07"
       id="rect13" />
  </g>
  <defs
     id="defs20">
    <clipPath
       id="cpNjQuODZ8NzA1LjgzfDM5LjQzfDE0OC4zMQ==">
      <rect
         x="64.860001"
         y="39.43"
         width="640.96997"
         height="108.88"
         id="rect17" />
    </clipPath>
  </defs>
  <g
     clip-path="url(#cpNjQuODZ8NzA1LjgzfDM5LjQzfDE0OC4zMQ==)"
     id="g124"
     transform="translate(0,-9.4835129)">
    <rect
       x="64.860001"
       y="39.43"
       width="640.96997"
       height="108.88"
       style="fill:#ffffff;stroke:none;stroke-width:1.07"
       id="rect22" />
    <polyline
       points="64.86,131.07 705.83,131.07 "
       style="stroke:#ebebeb;stroke-width:0.53;stroke-linecap:butt"
       id="polyline24" />
    <polyline
       points="64.86,106.33 705.83,106.33 "
       style="stroke:#ebebeb;stroke-width:0.53;stroke-linecap:butt"
       id="polyline26" />
    <polyline
       points="64.86,81.60 705.83,81.60 "
       style="stroke:#ebebeb;stroke-width:0.53;stroke-linecap:butt"
       id="polyline28" />
    <polyline
       points="64.86,56.87 705.83,56.87 "
       style="stroke:#ebebeb;stroke-width:0.53;stroke-linecap:butt"
       id="polyline30" />
    <polyline
       points="88.94,148.31 88.94,39.43 "
       style="stroke:#ebebeb;stroke-width:0.53;stroke-linecap:butt"
       id="polyline32" />
    <polyline
       points="105.58,148.31 105.58,39.43 "
       style="stroke:#ebebeb;stroke-width:0.53;stroke-linecap:butt"
       id="polyline34" />
    <polyline
       points="140.59,148.31 140.59,39.43 "
       style="stroke:#ebebeb;stroke-width:0.53;stroke-linecap:butt"
       id="polyline36" />
    <polyline
       points="158.38,148.31 158.38,39.43 "
       style="stroke:#ebebeb;stroke-width:0.53;stroke-linecap:butt"
       id="polyline38" />
    <polyline
       points="193.38,148.31 193.38,39.43 "
       style="stroke:#ebebeb;stroke-width:0.53;stroke-linecap:butt"
       id="polyline40" />
    <polyline
       points="211.17,148.31 211.17,39.43 "
       style="stroke:#ebebeb;stroke-width:0.53;stroke-linecap:butt"
       id="polyline42" />
    <polyline
       points="246.18,148.31 246.18,39.43 "
       style="stroke:#ebebeb;stroke-width:0.53;stroke-linecap:butt"
       id="polyline44" />
    <polyline
       points="263.39,148.31 263.39,39.43 "
       style="stroke:#ebebeb;stroke-width:0.53;stroke-linecap:butt"
       id="polyline46" />
    <polyline
       points="298.97,148.31 298.97,39.43 "
       style="stroke:#ebebeb;stroke-width:0.53;stroke-linecap:butt"
       id="polyline48" />
    <polyline
       points="315.04,148.31 315.04,39.43 "
       style="stroke:#ebebeb;stroke-width:0.53;stroke-linecap:butt"
       id="polyline50" />
    <polyline
       points="350.05,148.31 350.05,39.43 "
       style="stroke:#ebebeb;stroke-width:0.53;stroke-linecap:butt"
       id="polyline52" />
    <polyline
       points="367.84,148.31 367.84,39.43 "
       style="stroke:#ebebeb;stroke-width:0.53;stroke-linecap:butt"
       id="polyline54" />
    <polyline
       points="402.85,148.31 402.85,39.43 "
       style="stroke:#ebebeb;stroke-width:0.53;stroke-linecap:butt"
       id="polyline56" />
    <polyline
       points="420.64,148.31 420.64,39.43 "
       style="stroke:#ebebeb;stroke-width:0.53;stroke-linecap:butt"
       id="polyline58" />
    <polyline
       points="455.64,148.31 455.64,39.43 "
       style="stroke:#ebebeb;stroke-width:0.53;stroke-linecap:butt"
       id="polyline60" />
    <polyline
       points="472.86,148.31 472.86,39.43 "
       style="stroke:#ebebeb;stroke-width:0.53;stroke-linecap:butt"
       id="polyline62" />
    <polyline
       points="508.44,148.31 508.44,39.43 "
       style="stroke:#ebebeb;stroke-width:0.53;stroke-linecap:butt"
       id="polyline64" />
    <polyline
       points="524.51,148.31 524.51,39.43 "
       style="stroke:#ebebeb;stroke-width:0.53;stroke-linecap:butt"
       id="polyline66" />
    <polyline
       points="559.51,148.31 559.51,39.43 "
       style="stroke:#ebebeb;stroke-width:0.53;stroke-linecap:butt"
       id="polyline68" />
    <polyline
       points="577.30,148.31 577.30,39.43 "
       style="stroke:#ebebeb;stroke-width:0.53;stroke-linecap:butt"
       id="polyline70" />
    <polyline
       points="612.31,148.31 612.31,39.43 "
       style="stroke:#ebebeb;stroke-width:0.53;stroke-linecap:butt"
       id="polyline72" />
    <polyline
       points="630.10,148.31 630.10,39.43 "
       style="stroke:#ebebeb;stroke-width:0.53;stroke-linecap:butt"
       id="polyline74" />
    <polyline
       points="665.10,148.31 665.10,39.43 "
       style="stroke:#ebebeb;stroke-width:0.53;stroke-linecap:butt"
       id="polyline76" />
    <polyline
       points="682.32,148.31 682.32,39.43 "
       style="stroke:#ebebeb;stroke-width:0.53;stroke-linecap:butt"
       id="polyline78" />
    <polyline
       points="64.86,143.43 705.83,143.43 "
       style="stroke:#ebebeb;stroke-width:1.07;stroke-linecap:butt"
       id="polyline80" />
    <polyline
       points="64.86,118.70 705.83,118.70 "
       style="stroke:#ebebeb;stroke-width:1.07;stroke-linecap:butt"
       id="polyline82" />
    <polyline
       points="64.86,93.97 705.83,93.97 "
       style="stroke:#ebebeb;stroke-width:1.07;stroke-linecap:butt"
       id="polyline84" />
    <polyline
       points="64.86,69.23 705.83,69.23 "
       style="stroke:#ebebeb;stroke-width:1.07;stroke-linecap:butt"
       id="polyline86" />
    <polyline
       points="64.86,44.50 705.83,44.50 "
       style="stroke:#ebebeb;stroke-width:1.07;stroke-linecap:butt"
       id="polyline88" />
    <polyline
       points="71.15,148.31 71.15,39.43 "
       style="stroke:#ebebeb;stroke-width:1.07;stroke-linecap:butt"
       id="polyline90" />
    <polyline
       points="123.37,148.31 123.37,39.43 "
       style="stroke:#ebebeb;stroke-width:1.07;stroke-linecap:butt"
       id="polyline92" />
    <polyline
       points="175.59,148.31 175.59,39.43 "
       style="stroke:#ebebeb;stroke-width:1.07;stroke-linecap:butt"
       id="polyline94" />
    <polyline
       points="228.39,148.31 228.39,39.43 "
       style="stroke:#ebebeb;stroke-width:1.07;stroke-linecap:butt"
       id="polyline96" />
    <polyline
       points="281.18,148.31 281.18,39.43 "
       style="stroke:#ebebeb;stroke-width:1.07;stroke-linecap:butt"
       id="polyline98" />
    <polyline
       points="332.83,148.31 332.83,39.43 "
       style="stroke:#ebebeb;stroke-width:1.07;stroke-linecap:butt"
       id="polyline100" />
    <polyline
       points="385.06,148.31 385.06,39.43 "
       style="stroke:#ebebeb;stroke-width:1.07;stroke-linecap:butt"
       id="polyline102" />
    <polyline
       points="437.85,148.31 437.85,39.43 "
       style="stroke:#ebebeb;stroke-width:1.07;stroke-linecap:butt"
       id="polyline104" />
    <polyline
       points="490.65,148.31 490.65,39.43 "
       style="stroke:#ebebeb;stroke-width:1.07;stroke-linecap:butt"
       id="polyline106" />
    <polyline
       points="542.30,148.31 542.30,39.43 "
       style="stroke:#ebebeb;stroke-width:1.07;stroke-linecap:butt"
       id="polyline108" />
    <polyline
       points="594.52,148.31 594.52,39.43 "
       style="stroke:#ebebeb;stroke-width:1.07;stroke-linecap:butt"
       id="polyline110" />
    <polyline
       points="647.31,148.31 647.31,39.43 "
       style="stroke:#ebebeb;stroke-width:1.07;stroke-linecap:butt"
       id="polyline112" />
    <polyline
       points="700.11,148.31 700.11,39.43 "
       style="stroke:#ebebeb;stroke-width:1.07;stroke-linecap:butt"
       id="polyline114" />
    <polyline
       points="71.15,142.55 71.15,142.55 71.72,142.73 71.72,142.73 72.29,142.94 72.29,142.94 72.87,142.84 72.87,142.84 73.44,142.85 73.44,142.85 74.02,142.85 74.59,142.42 75.16,142.72 75.16,142.72 75.74,142.88 75.74,142.88 76.31,142.95 76.31,142.95 76.89,142.94 76.89,142.94 77.46,142.90 77.46,142.90 78.03,143.09 78.03,143.09 78.61,143.01 78.61,143.01 79.18,142.73 79.18,142.73 79.75,142.65 79.75,142.65 80.33,143.04 80.33,143.04 80.90,142.99 80.90,142.99 81.48,143.14 82.05,142.94 82.05,142.94 82.62,142.95 82.62,142.95 83.20,142.63 83.20,142.63 83.77,142.00 83.77,142.00 84.35,142.62 84.35,142.62 84.92,142.93 85.49,143.04 85.49,143.04 86.07,142.22 86.07,142.22 86.64,141.57 86.64,141.57 87.22,142.93 87.22,142.93 87.79,142.94 88.36,142.94 88.36,142.94 88.94,142.78 88.94,142.78 89.51,142.99 89.51,142.99 90.08,142.91 90.08,142.91 90.66,142.77 90.66,142.77 91.23,143.23 91.23,143.23 91.81,143.07 91.81,143.07 92.38,142.84 92.38,142.84 92.95,142.93 92.95,142.93 93.53,143.02 94.10,143.04 94.10,143.04 94.68,143.07 94.68,143.07 95.25,142.70 95.25,142.70 95.82,142.80 95.82,142.80 96.40,142.65 96.40,142.65 96.97,142.94 96.97,142.94 97.55,143.02 97.55,143.02 98.12,143.02 98.12,143.02 98.69,143.07 98.69,143.07 99.27,142.65 99.27,142.65 99.84,142.90 100.41,142.85 100.41,142.85 100.99,142.90 101.56,143.04 101.56,143.04 102.14,142.59 102.14,142.59 102.71,142.98 103.28,142.68 103.86,142.93 103.86,142.93 104.43,141.92 104.43,141.92 105.01,142.89 105.01,142.89 105.58,142.67 105.58,142.67 106.15,143.04 106.15,143.04 106.73,142.80 106.73,142.80 107.30,143.00 107.87,142.52 107.87,142.52 108.45,143.02 108.45,143.02 109.02,142.83 109.02,142.83 109.60,142.74 109.60,142.74 110.17,142.68 110.17,142.68 110.74,142.94 110.74,142.94 111.32,142.94 111.32,142.94 111.89,142.81 111.89,142.81 112.47,142.48 112.47,142.48 113.04,142.95 113.04,142.95 113.61,142.72 113.61,142.72 114.19,143.00 114.76,142.77 115.34,143.22 115.91,143.16 115.91,143.16 116.48,143.12 117.06,142.60 117.06,142.60 117.63,143.27 118.20,143.05 118.20,143.05 118.78,142.53 118.78,142.53 119.35,143.17 119.35,143.17 119.93,143.05 121.07,143.17 121.07,143.17 121.65,142.94 121.65,142.94 122.22,143.01 122.22,143.01 122.80,143.06 122.80,143.06 123.37,142.78 123.37,142.78 123.94,142.55 123.94,142.55 124.52,142.74 124.52,142.74 125.09,143.10 125.09,143.10 125.66,142.75 125.66,142.75 126.24,142.86 126.24,142.86 126.81,142.53 126.81,142.53 127.39,143.09 127.39,143.09 127.96,142.80 127.96,142.80 128.53,143.01 128.53,143.01 129.11,142.83 129.11,142.83 129.68,143.16 129.68,143.16 130.26,143.06 130.26,143.06 130.83,143.04 130.83,143.04 131.40,142.85 131.40,142.85 131.98,142.58 131.98,142.58 132.55,142.91 132.55,142.91 133.13,142.99 133.13,142.99 133.70,142.72 133.70,142.72 134.27,142.86 134.27,142.86 134.85,142.88 135.42,143.12 135.42,143.12 135.99,143.04 135.99,143.04 136.57,143.14 137.14,143.01 137.72,143.06 137.72,143.06 138.29,143.05 138.29,143.05 138.86,142.90 138.86,142.90 139.44,142.96 140.01,142.94 140.59,142.98 140.59,142.98 141.16,142.95 141.73,142.95 141.73,142.95 142.31,142.99 142.31,142.99 142.88,142.73 142.88,142.73 143.45,142.98 143.45,142.98 144.03,142.74 144.03,142.74 144.60,142.60 144.60,142.60 145.18,142.83 145.18,142.83 145.75,143.02 145.75,143.02 146.32,142.96 146.32,142.96 146.90,143.02 146.90,143.02 147.47,142.99 147.47,142.99 148.05,142.78 148.05,142.78 148.62,142.74 148.62,142.74 149.19,142.90 149.19,142.90 149.77,142.60 149.77,142.60 150.34,142.83 150.34,142.83 150.92,142.85 151.49,142.48 151.49,142.48 152.06,142.65 152.06,142.65 152.64,142.86 152.64,142.86 153.21,142.88 153.21,142.88 153.78,142.99 153.78,142.99 154.36,142.85 154.36,142.85 154.93,143.16 155.51,142.74 155.51,142.74 156.08,142.81 156.08,142.81 156.65,143.01 157.23,142.80 157.80,142.70 157.80,142.70 158.38,143.17 158.38,143.17 158.95,143.16 158.95,143.16 159.52,143.01 159.52,143.01 160.10,143.11 160.10,143.11 160.67,143.01 161.24,142.77 161.24,142.77 161.82,143.05 161.82,143.05 162.39,142.99 162.39,142.99 162.97,142.83 162.97,142.83 163.54,142.79 163.54,142.79 164.11,142.85 164.11,142.85 164.69,142.90 164.69,142.90 165.26,142.73 165.26,142.73 165.84,142.69 165.84,142.69 166.41,142.21 166.41,142.21 166.98,142.94 166.98,142.94 167.56,142.80 167.56,142.80 168.13,142.84 168.13,142.84 168.71,142.98 168.71,142.98 169.28,143.11 169.28,143.11 169.85,143.06 169.85,143.06 170.43,143.00 171.00,142.91 171.00,142.91 171.57,143.25 172.15,142.95 172.72,143.01 173.30,142.90 173.30,142.90 173.87,142.99 173.87,142.99 174.44,143.15 175.02,143.11 175.02,143.11 175.59,142.85 175.59,142.85 176.17,142.84 176.17,142.84 176.74,143.17 176.74,143.17 177.31,143.14 177.31,143.14 177.89,143.05 177.89,143.05 178.46,143.20 178.46,143.20 179.03,143.11 179.03,143.11 180.18,143.20 180.18,143.20 180.76,142.93 180.76,142.93 181.33,143.10 181.33,143.10 181.90,142.91 181.90,142.91 182.48,143.02 182.48,143.02 183.05,143.02 183.05,143.02 183.63,143.14 184.20,143.07 184.20,143.07 184.77,141.86 184.77,141.86 185.35,143.19 185.35,143.19 185.92,142.91 185.92,142.91 186.50,142.84 186.50,142.84 187.07,143.17 187.07,143.17 187.64,143.19 187.64,143.19 188.22,143.28 188.79,143.10 188.79,143.10 189.36,143.14 189.94,142.95 189.94,142.95 190.51,143.19 190.51,143.19 191.09,142.77 191.09,142.77 191.66,143.14 191.66,143.14 192.23,143.21 192.81,142.93 192.81,142.93 193.38,143.12 193.38,143.12 193.96,142.72 193.96,142.72 194.53,143.10 194.53,143.10 195.10,143.04 195.10,143.04 195.68,142.93 195.68,142.93 196.25,143.05 196.25,143.05 196.82,143.16 197.40,143.27 197.97,143.05 197.97,143.05 198.55,142.99 198.55,142.99 199.12,143.01 199.12,143.01 199.69,142.93 199.69,142.93 200.27,142.75 200.27,142.75 200.84,142.91 200.84,142.91 201.42,142.94 201.42,142.94 201.99,142.88 201.99,142.88 202.56,143.02 202.56,143.02 203.14,142.96 203.14,142.96 203.71,143.14 204.29,142.95 204.29,142.95 204.86,142.96 204.86,142.96 205.43,143.02 205.43,143.02 206.01,142.02 206.01,142.02 206.58,142.68 206.58,142.68 207.15,142.93 207.15,142.93 207.73,142.88 207.73,142.88 208.30,142.96 208.30,142.96 208.88,142.81 208.88,142.81 209.45,143.17 210.02,143.02 210.02,143.02 210.60,142.75 210.60,142.75 211.17,142.96 211.17,142.96 211.75,143.06 212.32,143.12 212.89,142.73 212.89,142.73 213.47,142.54 213.47,142.54 214.04,142.94 214.04,142.94 214.61,142.83 214.61,142.83 215.19,142.99 215.19,142.99 215.76,142.93 215.76,142.93 216.34,142.51 216.34,142.51 216.91,141.80 216.91,141.80 217.48,142.83 217.48,142.83 218.06,142.98 218.06,142.98 218.63,142.93 218.63,142.93 219.21,143.12 219.78,143.14 219.78,143.14 220.35,143.30 220.93,142.90 220.93,142.90 221.50,143.02 221.50,143.02 222.08,143.01 222.08,143.01 222.65,142.67 222.65,142.67 223.22,142.95 223.22,142.95 223.80,143.10 223.80,143.10 224.37,143.10 224.37,143.10 224.94,142.94 224.94,142.94 225.52,142.93 225.52,142.93 226.09,142.90 226.09,142.90 226.67,142.80 226.67,142.80 227.24,143.06 227.81,142.91 227.81,142.91 228.39,142.63 228.39,142.63 228.96,142.58 228.96,142.58 229.54,142.11 229.54,142.11 230.11,142.73 230.11,142.73 230.68,142.12 230.68,142.12 231.26,142.80 231.26,142.80 231.83,143.05 231.83,143.05 232.41,142.89 232.41,142.89 232.98,142.63 232.98,142.63 233.55,141.78 233.55,141.78 234.13,142.06 234.13,142.06 234.70,142.81 234.70,142.81 235.27,143.02 235.27,143.02 235.85,142.90 235.85,142.90 236.42,143.16 237.00,143.01 237.57,143.23 238.14,142.59 238.14,142.59 238.72,142.91 238.72,142.91 239.29,143.12 239.29,143.12 239.87,142.96 239.87,142.96 240.44,142.91 241.01,142.74 241.01,142.74 241.59,142.86 241.59,142.86 242.16,143.04 242.16,143.04 242.73,143.05 242.73,143.05 243.31,142.98 243.31,142.98 243.88,142.84 243.88,142.84 244.46,141.65 244.46,141.65 245.03,142.78 245.03,142.78 245.60,143.00 245.60,143.00 246.18,143.00 246.18,143.00 246.75,142.95 246.75,142.95 247.33,143.11 247.90,142.70 247.90,142.70 248.47,142.96 248.47,142.96 249.05,143.01 249.05,143.01 249.62,143.09 249.62,143.09 250.20,142.99 250.20,142.99 250.77,143.32 251.34,142.93 251.34,142.93 251.92,143.01 251.92,143.01 252.49,143.10 252.49,143.10 253.06,143.09 253.64,142.93 253.64,142.93 254.21,142.96 254.21,142.96 254.79,142.84 254.79,142.84 255.36,142.94 255.36,142.94 255.93,143.12 255.93,143.12 256.51,143.10 256.51,143.10 257.08,143.01 257.08,143.01 257.66,142.94 257.66,142.94 258.23,142.70 258.23,142.70 258.80,142.63 258.80,142.63 259.38,142.84 259.38,142.84 259.95,141.89 259.95,141.89 260.52,142.78 260.52,142.78 261.10,142.75 261.10,142.75 261.67,142.77 261.67,142.77 262.25,142.46 262.25,142.46 262.82,142.74 262.82,142.74 263.39,142.64 263.39,142.64 263.97,142.73 263.97,142.73 264.54,142.79 264.54,142.79 265.12,142.63 265.12,142.63 265.69,142.85 265.69,142.85 266.26,142.74 266.26,142.74 266.84,142.86 266.84,142.86 267.41,143.02 267.41,143.02 267.99,142.85 267.99,142.85 268.56,143.05 269.13,143.00 269.71,142.95 269.71,142.95 270.28,142.99 270.28,142.99 270.85,143.07 271.43,142.69 271.43,142.69 272.00,142.72 272.00,142.72 272.58,142.80 272.58,142.80 273.15,142.94 273.15,142.94 273.72,142.78 273.72,142.78 274.30,142.80 274.30,142.80 274.87,142.86 274.87,142.86 275.45,143.01 275.45,143.01 276.02,142.86 276.02,142.86 276.59,143.02 276.59,143.02 277.17,143.21 277.17,143.21 277.74,142.70 277.74,142.70 278.31,142.68 278.31,142.68 278.89,142.59 278.89,142.59 279.46,142.83 279.46,142.83 280.04,142.60 280.04,142.60 280.61,143.21 280.61,143.21 281.18,142.28 281.18,142.28 281.76,142.91 282.33,142.81 282.33,142.81 282.91,142.78 282.91,142.78 283.48,142.95 283.48,142.95 284.05,142.69 284.05,142.69 284.63,143.05 285.20,143.12 285.78,143.05 285.78,143.05 286.35,142.95 286.92,143.00 287.50,142.55 287.50,142.55 288.07,143.15 288.64,142.96 288.64,142.96 289.22,142.25 289.22,142.25 289.79,143.07 289.79,143.07 290.37,143.12 290.37,143.12 290.94,143.02 290.94,143.02 291.51,142.86 291.51,142.86 292.09,142.88 292.09,142.88 292.66,140.01 292.66,140.01 293.24,142.31 293.24,142.31 293.81,142.94 293.81,142.94 294.38,143.10 294.38,143.10 294.96,142.01 294.96,142.01 295.53,140.54 295.53,140.54 296.10,142.89 296.10,142.89 296.68,143.06 296.68,143.06 297.25,143.16 297.25,143.16 297.83,142.88 297.83,142.88 298.40,142.94 298.40,142.94 298.97,142.93 298.97,142.93 299.55,143.06 300.12,142.67 300.12,142.67 300.70,143.02 301.27,143.05 301.27,143.05 301.84,143.05 301.84,143.05 302.42,143.12 302.42,143.12 302.99,143.07 302.99,143.07 303.57,142.86 303.57,142.86 304.14,142.84 304.14,142.84 304.71,142.75 304.71,142.75 305.29,142.84 305.86,143.05 305.86,143.05 306.43,142.30 306.43,142.30 307.01,142.80 307.01,142.80 307.58,142.96 308.16,142.90 308.16,142.90 308.73,142.98 308.73,142.98 309.30,142.95 309.30,142.95 309.88,143.09 310.45,143.00 310.45,143.00 311.03,143.21 311.60,143.31 312.17,143.15 312.17,143.15 312.75,143.14 312.75,143.14 313.32,142.93 313.32,142.93 313.89,142.99 313.89,142.99 314.47,143.07 314.47,143.07 315.04,143.10 315.04,143.10 315.62,143.09 315.62,143.09 316.19,142.72 316.19,142.72 316.76,142.98 316.76,142.98 317.34,142.83 317.34,142.83 317.91,142.79 318.49,143.04 318.49,143.04 319.06,142.64 319.06,142.64 319.63,142.25 319.63,142.25 320.21,142.65 320.21,142.65 320.78,142.96 320.78,142.96 321.36,142.79 321.36,142.79 321.93,142.99 321.93,142.99 322.50,142.65 322.50,142.65 323.08,142.70 323.08,142.70 323.65,142.83 323.65,142.83 324.22,142.93 324.22,142.93 324.80,143.07 324.80,143.07 325.37,143.16 325.95,143.20 325.95,143.20 326.52,143.17 327.09,142.95 327.09,142.95 327.67,142.90 327.67,142.90 328.24,143.01 328.82,143.06 328.82,143.06 329.96,143.05 329.96,143.05 330.54,142.91 330.54,142.91 331.11,142.90 331.11,142.90 331.68,142.91 331.68,142.91 332.26,142.74 332.26,142.74 332.83,143.19 332.83,143.19 333.41,142.84 333.98,143.12 333.98,143.12 334.55,142.88 334.55,142.88 335.13,142.98 335.13,142.98 335.70,142.64 336.28,142.81 336.28,142.81 336.85,142.62 336.85,142.62 337.42,142.47 337.42,142.47 338.00,143.07 338.00,143.07 338.57,143.21 338.57,143.21 339.15,142.80 339.72,143.05 339.72,143.05 340.29,143.25 340.87,143.07 340.87,143.07 341.44,143.07 342.01,143.01 342.01,143.01 342.59,142.89 342.59,142.89 343.16,143.30 343.74,143.21 344.31,142.94 344.88,143.02 345.46,138.65 345.46,138.65 346.03,137.88 346.03,137.88 346.61,142.27 346.61,142.27 347.18,142.36 347.18,142.36 347.75,142.94 347.75,142.94 348.33,143.05 348.33,143.05 348.90,142.86 348.90,142.86 349.47,142.99 349.47,142.99 350.05,142.86 350.05,142.86 350.62,142.88 350.62,142.88 351.20,143.22 351.20,143.22 351.77,143.04 351.77,143.04 352.34,142.63 352.34,142.63 352.92,143.16 352.92,143.16 353.49,142.95 353.49,142.95 354.07,142.84 354.07,142.84 354.64,142.93 354.64,142.93 355.21,142.94 355.21,142.94 355.79,142.90 355.79,142.90 356.36,143.33 356.94,142.90 356.94,142.90 357.51,142.69 357.51,142.69 358.08,142.84 358.08,142.84 358.66,141.54 358.66,141.54 359.23,142.44 359.23,142.44 359.80,143.06 360.38,142.67 360.38,142.67 360.95,142.81 360.95,142.81 361.53,142.78 361.53,142.78 362.10,142.79 362.10,142.79 362.67,143.25 362.67,143.25 363.25,143.01 363.25,143.01 363.82,142.83 363.82,142.83 364.40,142.70 364.40,142.70 364.97,143.15 364.97,143.15 365.54,142.94 365.54,142.94 366.12,143.04 366.69,142.80 366.69,142.80 367.27,143.04 367.27,143.04 367.84,142.84 367.84,142.84 368.41,142.31 368.41,142.31 368.99,142.68 368.99,142.68 369.56,142.85 369.56,142.85 370.13,142.47 370.13,142.47 370.71,142.70 370.71,142.70 371.28,142.95 371.28,142.95 371.86,142.95 371.86,142.95 372.43,143.01 372.43,143.01 373.00,143.11 373.00,143.11 373.58,142.75 373.58,142.75 374.15,142.78 374.15,142.78 374.73,142.33 374.73,142.33 375.30,142.63 375.30,142.63 375.87,142.72 375.87,142.72 376.45,142.89 376.45,142.89 377.02,143.09 377.02,143.09 377.59,143.01 378.17,142.99 378.17,142.99 378.74,142.91 378.74,142.91 379.32,142.86 379.32,142.86 379.89,142.79 379.89,142.79 380.46,142.52 380.46,142.52 381.04,142.51 381.04,142.51 381.61,142.36 381.61,142.36 382.19,142.28 382.19,142.28 382.76,142.94 382.76,142.94 383.33,141.05 383.33,141.05 383.91,143.25 383.91,143.25 384.48,142.78 384.48,142.78 385.06,142.73 385.06,142.73 385.63,143.04 385.63,143.04 386.20,143.12 386.78,143.02 386.78,143.02 387.35,142.63 387.35,142.63 387.92,142.99 388.50,142.70 388.50,142.70 389.07,142.47 389.07,142.47 389.65,142.68 389.65,142.68 390.22,142.70 390.79,142.13 391.37,142.69 391.37,142.69 391.94,142.78 391.94,142.78 392.52,143.19 392.52,143.19 393.09,142.99 393.09,142.99 393.66,142.83 393.66,142.83 394.24,142.96 394.81,143.26 394.81,143.26 395.38,142.99 395.38,142.99 395.96,143.11 395.96,143.11 396.53,142.89 396.53,142.89 397.11,143.14 397.11,143.14 397.68,142.70 397.68,142.70 398.25,142.91 398.25,142.91 398.83,142.69 398.83,142.69 399.40,142.94 399.40,142.94 399.98,142.89 399.98,142.89 400.55,142.79 400.55,142.79 401.12,143.09 401.12,143.09 401.70,142.83 402.27,143.01 402.27,143.01 402.85,142.51 402.85,142.51 403.42,142.84 403.42,142.84 403.99,142.52 403.99,142.52 404.57,142.86 404.57,142.86 405.14,143.06 405.14,143.06 405.71,142.77 405.71,142.77 406.29,142.84 406.29,142.84 406.86,142.77 406.86,142.77 407.44,142.52 407.44,142.52 408.01,142.86 408.01,142.86 408.58,142.88 409.16,143.07 409.16,143.07 409.73,142.81 409.73,142.81 410.31,142.70 410.31,142.70 410.88,142.94 410.88,142.94 411.45,142.94 411.45,142.94 412.03,142.90 412.03,142.90 412.60,142.85 412.60,142.85 413.17,142.52 413.75,142.69 413.75,142.69 414.32,142.80 414.90,142.81 415.47,142.89 415.47,142.89 416.04,142.81 416.04,142.81 416.62,142.70 416.62,142.70 417.19,142.88 417.77,142.74 417.77,142.74 418.34,142.89 418.34,142.89 418.91,143.05 419.49,142.75 419.49,142.75 420.06,142.83 420.06,142.83 420.64,142.72 420.64,142.72 421.21,142.65 421.78,142.78 422.36,142.63 422.36,142.63 422.93,142.59 422.93,142.59 423.50,142.90 423.50,142.90 424.08,143.06 424.08,143.06 424.65,143.23 424.65,143.23 425.23,143.05 425.80,142.93 425.80,142.93 426.37,142.17 426.37,142.17 426.95,142.54 426.95,142.54 427.52,143.00 427.52,143.00 428.10,142.53 428.10,142.53 428.67,142.72 428.67,142.72 429.24,142.59 429.24,142.59 429.82,142.89 429.82,142.89 430.39,142.85 430.39,142.85 430.96,142.77 430.96,142.77 431.54,142.88 431.54,142.88 432.11,142.65 432.11,142.65 432.69,142.90 432.69,142.90 433.26,142.37 433.26,142.37 433.83,142.26 433.83,142.26 434.41,142.75 434.41,142.75 434.98,142.75 434.98,142.75 435.56,141.97 435.56,141.97 436.13,142.08 436.13,142.08 436.70,142.79 436.70,142.79 437.28,142.81 437.28,142.81 437.85,142.99 437.85,142.99 438.43,143.12 438.43,143.12 439.00,142.69 439.00,142.69 439.57,143.21 439.57,143.21 440.15,143.30 440.72,142.95 440.72,142.95 441.29,142.38 441.29,142.38 441.87,142.51 441.87,142.51 442.44,142.88 442.44,142.88 443.02,141.43 443.02,141.43 443.59,138.89 443.59,138.89 444.16,142.25 444.16,142.25 444.74,142.32 444.74,142.32 445.31,142.54 445.31,142.54 445.89,142.43 445.89,142.43 446.46,141.83 446.46,141.83 447.03,142.57 447.03,142.57 447.61,142.38 447.61,142.38 448.18,142.08 448.18,142.08 448.75,142.84 448.75,142.84 449.33,142.89 449.90,142.73 449.90,142.73 450.48,142.95 450.48,142.95 451.05,142.81 451.05,142.81 451.62,142.75 451.62,142.75 452.20,142.26 452.20,142.26 452.77,142.25 452.77,142.25 453.35,142.21 453.35,142.21 453.92,143.00 454.49,143.10 455.07,142.75 455.07,142.75 455.64,142.98 455.64,142.98 456.22,142.52 456.22,142.52 456.79,142.51 456.79,142.51 457.36,143.27 457.36,143.27 457.94,143.20 457.94,143.20 458.51,142.78 458.51,142.78 459.08,142.81 459.08,142.81 459.66,141.45 459.66,141.45 460.23,142.44 460.23,142.44 460.81,142.42 460.81,142.42 461.38,141.70 461.38,141.70 461.95,142.36 461.95,142.36 462.53,141.94 462.53,141.94 463.10,142.33 463.10,142.33 463.68,142.55 463.68,142.55 464.25,141.97 464.25,141.97 464.82,141.75 464.82,141.75 465.40,141.80 465.40,141.80 465.97,142.34 465.97,142.34 466.54,142.64 466.54,142.64 467.12,142.60 467.12,142.60 467.69,142.28 467.69,142.28 468.27,141.65 468.27,141.65 468.84,115.40 468.84,115.40 469.41,108.68 469.41,108.68 469.99,135.04 469.99,135.04 470.56,140.33 470.56,140.33 471.14,140.51 471.14,140.51 471.71,142.36 471.71,142.36 472.28,142.60 472.28,142.60 472.86,142.20 472.86,142.20 473.43,142.86 473.43,142.86 474.01,142.95 474.01,142.95 474.58,142.51 474.58,142.51 475.15,143.09 475.15,143.09 475.73,142.26 475.73,142.26 476.30,141.63 476.30,141.63 476.87,142.18 476.87,142.18 477.45,141.47 477.45,141.47 478.02,142.13 478.02,142.13 478.60,142.18 478.60,142.18 479.17,143.30 479.74,142.85 479.74,142.85 480.32,143.16 480.32,143.16 480.89,142.63 480.89,142.63 481.47,141.71 481.47,141.71 482.04,142.15 482.04,142.15 482.61,142.77 482.61,142.77 483.19,142.63 483.19,142.63 483.76,142.32 483.76,142.32 484.33,141.78 484.33,141.78 484.91,143.02 484.91,143.02 485.48,142.70 485.48,142.70 486.06,143.23 486.63,143.28 486.63,143.28 487.20,142.53 487.20,142.53 487.78,142.63 487.78,142.63 488.35,141.95 488.35,141.95 488.93,141.74 488.93,141.74 489.50,141.61 489.50,141.61 490.07,140.44 490.07,140.44 490.65,141.64 490.65,141.64 491.22,143.27 491.22,143.27 491.80,142.79 491.80,142.79 492.37,142.69 492.37,142.69 492.94,142.25 492.94,142.25 493.52,142.52 493.52,142.52 494.09,142.83 494.09,142.83 494.66,142.30 494.66,142.30 495.24,142.60 495.24,142.60 495.81,142.94 495.81,142.94 496.39,142.30 496.39,142.30 496.96,142.08 496.96,142.08 497.53,142.08 497.53,142.08 498.11,142.20 498.11,142.20 498.68,142.33 498.68,142.33 499.26,142.46 499.26,142.46 499.83,143.00 499.83,143.00 500.40,139.20 500.40,139.20 500.98,142.23 500.98,142.23 501.55,142.57 501.55,142.57 502.13,141.27 502.13,141.27 502.70,141.81 502.70,141.81 503.27,142.02 503.27,142.02 503.85,142.22 503.85,142.22 504.42,141.80 504.42,141.80 504.99,141.94 504.99,141.94 505.57,142.41 505.57,142.41 506.14,141.86 506.14,141.86 506.72,142.70 506.72,142.70 507.29,142.74 507.29,142.74 507.86,142.89 507.86,142.89 508.44,140.21 508.44,140.21 509.01,143.06 509.01,143.06 509.59,142.17 509.59,142.17 510.16,142.18 510.16,142.18 510.73,142.60 510.73,142.60 511.31,142.65 511.31,142.65 511.88,142.49 511.88,142.49 512.45,141.53 512.45,141.53 513.03,142.18 513.03,142.18 513.60,142.47 513.60,142.47 514.18,142.21 514.18,142.21 514.75,142.48 514.75,142.48 515.32,142.08 515.32,142.08 515.90,142.28 515.90,142.28 516.47,142.68 516.47,142.68 517.05,142.58 517.05,142.58 517.62,142.51 517.62,142.51 518.19,142.63 518.19,142.63 518.77,142.67 518.77,142.67 519.34,142.46 519.34,142.46 519.92,142.42 519.92,142.42 520.49,142.31 520.49,142.31 521.06,142.74 521.06,142.74 521.64,142.32 521.64,142.32 522.21,142.02 522.21,142.02 522.78,142.39 522.78,142.39 523.36,142.15 523.36,142.15 523.93,142.59 523.93,142.59 524.51,142.01 524.51,142.01 525.08,142.79 525.08,142.79 525.65,143.11 525.65,143.11 526.23,142.68 526.23,142.68 526.80,142.37 526.80,142.37 527.38,142.48 527.38,142.48 527.95,142.89 527.95,142.89 528.52,143.25 528.52,143.25 529.10,142.81 529.10,142.81 529.67,142.34 529.67,142.34 530.24,142.72 530.24,142.72 530.82,142.38 530.82,142.38 531.39,142.25 531.39,142.25 531.97,142.47 531.97,142.47 532.54,142.27 532.54,142.27 533.11,142.41 533.11,142.41 533.69,142.37 533.69,142.37 534.26,142.48 534.26,142.48 534.84,142.47 534.84,142.47 535.41,142.42 535.41,142.42 535.98,142.55 535.98,142.55 536.56,141.54 536.56,141.54 537.13,141.12 537.13,141.12 537.71,142.69 537.71,142.69 538.85,142.65 538.85,142.65 539.43,143.11 539.43,143.11 540.00,143.00 540.00,143.00 540.57,142.39 540.57,142.39 541.15,142.52 541.15,142.52 541.72,142.23 541.72,142.23 542.30,141.63 542.30,141.63 542.87,142.83 542.87,142.83 543.44,141.92 543.44,141.92 544.02,135.56 544.02,135.56 544.59,138.37 544.59,138.37 545.17,141.91 545.17,141.91 545.74,142.58 545.74,142.58 546.31,142.07 546.31,142.07 546.89,141.91 546.89,141.91 547.46,142.26 547.46,142.26 548.03,142.08 548.03,142.08 548.61,142.63 548.61,142.63 549.18,141.92 549.18,141.92 549.76,142.43 549.76,142.43 550.33,142.72 550.33,142.72 550.90,142.26 550.90,142.26 551.48,141.71 551.48,141.71 552.05,142.00 552.05,142.00 552.63,142.44 552.63,142.44 553.20,142.55 553.20,142.55 553.77,142.80 553.77,142.80 554.35,142.68 554.35,142.68 554.92,142.33 554.92,142.33 555.50,142.91 556.07,142.99 556.07,142.99 556.64,142.65 556.64,142.65 557.22,142.77 557.22,142.77 557.79,142.88 557.79,142.88 558.36,142.53 558.36,142.53 558.94,142.85 558.94,142.85 559.51,142.26 559.51,142.26 560.09,141.87 560.09,141.87 560.66,141.65 560.66,141.65 561.23,141.94 561.23,141.94 561.81,140.44 561.81,140.44 562.38,141.55 562.38,141.55 562.96,141.57 562.96,141.57 563.53,142.10 563.53,142.10 564.10,142.18 564.10,142.18 564.68,142.47 564.68,142.47 565.25,142.18 565.25,142.18 565.82,141.33 565.82,141.33 566.40,142.44 566.40,142.44 566.97,142.68 566.97,142.68 567.55,142.31 567.55,142.31 568.12,142.04 568.12,142.04 568.69,142.01 568.69,142.01 569.27,141.17 569.27,141.17 569.84,141.65 569.84,141.65 570.42,141.64 570.42,141.64 570.99,142.57 570.99,142.57 571.56,142.43 571.56,142.43 572.14,141.84 572.14,141.84 572.71,142.01 572.71,142.01 573.29,141.94 573.29,141.94 573.86,141.60 573.86,141.60 574.43,142.34 574.43,142.34 575.01,141.92 575.01,141.92 575.58,143.36 575.58,143.36 576.15,142.85 576.73,133.80 576.73,133.80 577.30,135.65 577.30,135.65 577.88,141.69 577.88,141.69 578.45,142.04 578.45,142.04 579.02,142.28 579.02,142.28 579.60,142.37 579.60,142.37 580.17,143.07 580.17,143.07 580.75,143.10 580.75,143.10 581.32,142.98 581.32,142.98 581.89,140.93 581.89,140.93 582.47,141.89 582.47,141.89 583.04,141.80 583.04,141.80 583.61,141.85 583.61,141.85 584.19,141.48 584.19,141.48 584.76,141.87 584.76,141.87 585.34,142.34 585.34,142.34 585.91,142.25 585.91,142.25 586.48,143.01 586.48,143.01 587.06,142.90 587.06,142.90 587.63,142.18 587.63,142.18 588.21,142.69 588.21,142.69 588.78,142.22 588.78,142.22 589.35,142.38 589.35,142.38 589.93,142.06 589.93,142.06 590.50,141.65 590.50,141.65 591.08,142.04 591.08,142.04 591.65,142.46 591.65,142.46 592.22,142.12 592.22,142.12 592.80,141.83 592.80,141.83 593.37,142.17 593.37,142.17 593.94,142.81 593.94,142.81 594.52,142.15 594.52,142.15 595.09,142.32 595.09,142.32 595.67,142.51 595.67,142.51 596.24,142.38 596.24,142.38 596.81,142.33 596.81,142.33 597.39,142.18 597.39,142.18 597.96,142.18 597.96,142.18 598.54,142.51 598.54,142.51 599.11,141.12 599.11,141.12 599.68,141.65 599.68,141.65 600.26,142.27 600.26,142.27 600.83,142.13 600.83,142.13 601.40,142.55 601.40,142.55 601.98,141.54 601.98,141.54 602.55,140.79 602.55,140.79 603.13,141.68 603.13,141.68 603.70,141.73 603.70,141.73 604.27,142.36 604.27,142.36 604.85,142.53 604.85,142.53 605.42,142.43 605.42,142.43 606.00,142.10 606.00,142.10 606.57,142.31 606.57,142.31 607.14,142.94 607.14,142.94 607.72,141.53 607.72,141.53 608.29,141.47 608.29,141.47 608.87,142.23 608.87,142.23 609.44,142.42 609.44,142.42 610.01,141.90 610.01,141.90 610.59,142.38 610.59,142.38 611.16,142.16 611.16,142.16 611.73,142.18 611.73,142.18 612.31,142.49 612.31,142.49 612.88,142.60 612.88,142.60 613.46,142.53 613.46,142.53 614.03,142.01 614.03,142.01 614.60,141.95 614.60,141.95 615.18,142.06 615.18,142.06 615.75,142.04 615.75,142.04 616.33,141.80 616.33,141.80 616.90,141.18 616.90,141.18 617.47,141.70 617.47,141.70 618.05,142.85 618.05,142.85 618.62,142.43 618.62,142.43 619.20,142.06 619.20,142.06 619.77,142.07 619.77,142.07 620.34,142.30 620.34,142.30 620.92,141.95 620.92,141.95 621.49,142.96 621.49,142.96 622.06,142.54 622.06,142.54 622.64,142.52 622.64,142.52 623.21,141.96 623.21,141.96 623.79,141.81 623.79,141.81 624.36,139.82 624.36,139.82 624.93,138.09 624.93,138.09 625.51,106.25 625.51,106.25 626.08,112.10 626.08,112.10 626.66,137.94 626.66,137.94 627.23,141.53 627.23,141.53 627.80,141.49 627.80,141.49 628.38,142.68 628.38,142.68 628.95,142.58 628.95,142.58 629.52,131.94 629.52,131.94 630.10,140.92 630.10,140.92 630.67,141.69 630.67,141.69 631.25,142.16 631.25,142.16 631.82,142.31 631.82,142.31 632.39,142.27 632.39,142.27 632.97,142.53 632.97,142.53 633.54,142.30 633.54,142.30 634.12,141.21 634.12,141.21 634.69,142.42 634.69,142.42 635.26,142.21 635.26,142.21 635.84,139.27 635.84,139.27 636.41,140.84 636.41,140.84 636.99,141.50 636.99,141.50 637.56,142.26 637.56,142.26 638.13,141.99 638.13,141.99 638.71,140.28 638.71,140.28 639.28,141.79 639.28,141.79 639.85,141.63 639.85,141.63 640.43,142.22 640.43,142.22 641.00,142.11 641.00,142.11 641.58,141.58 641.58,141.58 642.15,142.06 642.15,142.06 642.72,142.58 642.72,142.58 643.30,142.23 643.30,142.23 643.87,141.63 643.87,141.63 644.45,142.31 644.45,142.31 645.02,141.97 645.02,141.97 645.59,142.02 645.59,142.02 646.17,142.74 646.17,142.74 646.74,142.32 646.74,142.32 647.31,142.13 647.31,142.13 647.89,142.32 647.89,142.32 648.46,141.91 648.46,141.91 649.04,141.02 649.04,141.02 649.61,141.34 649.61,141.34 650.18,141.84 650.18,141.84 650.76,142.86 650.76,142.86 651.33,142.28 651.33,142.28 651.91,142.73 651.91,142.73 652.48,141.81 652.48,141.81 653.05,140.19 653.05,140.19 653.63,142.36 653.63,142.36 654.20,141.86 654.20,141.86 654.78,141.83 654.78,141.83 655.35,141.37 655.35,141.37 655.92,142.30 655.92,142.30 656.50,142.42 656.50,142.42 657.07,142.55 657.07,142.55 657.64,142.20 657.64,142.20 658.22,142.62 658.22,142.62 658.79,142.73 658.79,142.73 659.37,142.18 659.37,142.18 659.94,142.57 659.94,142.57 660.51,142.01 660.51,142.01 661.09,142.18 661.09,142.18 661.66,142.02 661.66,142.02 662.24,142.15 662.24,142.15 662.81,141.94 662.81,141.94 663.38,142.64 663.96,142.31 663.96,142.31 664.53,142.75 664.53,142.75 665.10,142.96 665.10,142.96 665.68,142.75 665.68,142.75 666.25,142.52 666.25,142.52 666.83,141.80 666.83,141.80 667.40,142.06 667.40,142.06 667.97,142.15 667.97,142.15 668.55,142.42 668.55,142.42 669.12,142.94 669.12,142.94 669.70,142.74 669.70,142.74 670.27,142.48 670.27,142.48 670.84,142.99 670.84,142.99 671.42,141.95 671.42,141.95 671.99,142.98 671.99,142.98 672.57,142.78 672.57,142.78 673.14,142.41 673.14,142.41 673.71,142.65 673.71,142.65 674.29,142.23 674.29,142.23 674.86,141.81 674.86,141.81 675.43,142.02 675.43,142.02 676.01,142.33 676.01,142.33 676.58,141.87 676.58,141.87 677.16,141.50 677.16,141.50 677.73,142.04 677.73,142.04 678.30,137.01 678.30,137.01 678.88,139.86 678.88,139.86 679.45,142.93 679.45,142.93 680.03,141.66 680.03,141.66 680.60,141.90 680.60,141.90 681.17,142.52 681.17,142.52 681.75,142.46 681.75,142.46 682.32,141.52 682.32,141.52 682.89,141.70 682.89,141.70 683.47,141.83 683.47,141.83 684.04,142.04 684.04,142.04 684.62,142.25 684.62,142.25 685.19,142.47 685.19,142.47 685.76,134.91 685.76,134.91 686.34,139.60 686.34,139.60 686.91,141.55 686.91,141.55 687.49,142.44 687.49,142.44 688.06,141.54 688.06,141.54 688.63,142.67 688.63,142.67 689.21,142.18 689.21,142.18 689.78,142.33 689.78,142.33 690.36,142.39 690.36,142.39 690.93,142.34 690.93,142.34 691.50,142.23 691.50,142.23 692.08,142.16 692.08,142.16 692.65,142.33 692.65,142.33 693.22,142.48 693.22,142.48 693.80,142.01 693.80,142.01 694.37,142.22 694.37,142.22 694.95,142.15 694.95,142.15 695.52,142.57 695.52,142.57 696.09,142.99 696.09,142.99 696.67,142.68 696.67,142.68 697.24,142.25 697.24,142.25 697.82,142.39 697.82,142.39 698.39,142.52 698.39,142.52 698.96,141.91 698.96,141.91 699.54,140.64 699.54,140.64 "
       style="stroke:#117733;stroke-width:1.07;stroke-linecap:butt"
       id="polyline116" />
    <line
       x1="281.17999"
       y1="148.31"
       x2="281.17999"
       y2="39.43"
       style="stroke:#bebebe;stroke-width:1.07;stroke-linecap:butt;stroke-dasharray:1.42, 4.27"
       id="line118" />
    <line
       x1="490.64999"
       y1="148.31"
       x2="490.64999"
       y2="39.43"
       style="stroke:#bebebe;stroke-width:1.07;stroke-linecap:butt;stroke-dasharray:1.42, 4.27"
       id="line120" />
    <rect
       x="64.860001"
       y="39.43"
       width="640.96997"
       height="108.88"
       style="stroke:#333333;stroke-width:1.07"
       id="rect122" />
  </g>
  <g
     clip-path="url(#cpMC4wMHw3MjAuMDB8MC4wMHwzNjAuMDA=)"
     id="g126"
     transform="translate(0,-9.4835129)" />
  <defs
     id="defs131">
    <clipPath
       id="cpNjQuODZ8NzA1LjgzfDE3OS4wNHwyODcuOTI=">
      <rect
         x="64.860001"
         y="179.03999"
         width="640.96997"
         height="108.88"
         id="rect128" />
    </clipPath>
  </defs>
  <g
     clip-path="url(#cpNjQuODZ8NzA1LjgzfDE3OS4wNHwyODcuOTI=)"
     id="g235"
     transform="translate(0,-9.4835129)">
    <rect
       x="64.860001"
       y="179.03999"
       width="640.96997"
       height="108.88"
       style="fill:#ffffff;stroke:none;stroke-width:1.07"
       id="rect133" />
    <polyline
       points="64.86,270.68 705.83,270.68 "
       style="stroke:#ebebeb;stroke-width:0.53;stroke-linecap:butt"
       id="polyline135" />
    <polyline
       points="64.86,245.95 705.83,245.95 "
       style="stroke:#ebebeb;stroke-width:0.53;stroke-linecap:butt"
       id="polyline137" />
    <polyline
       points="64.86,221.21 705.83,221.21 "
       style="stroke:#ebebeb;stroke-width:0.53;stroke-linecap:butt"
       id="polyline139" />
    <polyline
       points="64.86,196.48 705.83,196.48 "
       style="stroke:#ebebeb;stroke-width:0.53;stroke-linecap:butt"
       id="polyline141" />
    <polyline
       points="88.94,287.92 88.94,179.04 "
       style="stroke:#ebebeb;stroke-width:0.53;stroke-linecap:butt"
       id="polyline143" />
    <polyline
       points="105.58,287.92 105.58,179.04 "
       style="stroke:#ebebeb;stroke-width:0.53;stroke-linecap:butt"
       id="polyline145" />
    <polyline
       points="140.59,287.92 140.59,179.04 "
       style="stroke:#ebebeb;stroke-width:0.53;stroke-linecap:butt"
       id="polyline147" />
    <polyline
       points="158.38,287.92 158.38,179.04 "
       style="stroke:#ebebeb;stroke-width:0.53;stroke-linecap:butt"
       id="polyline149" />
    <polyline
       points="193.38,287.92 193.38,179.04 "
       style="stroke:#ebebeb;stroke-width:0.53;stroke-linecap:butt"
       id="polyline151" />
    <polyline
       points="211.17,287.92 211.17,179.04 "
       style="stroke:#ebebeb;stroke-width:0.53;stroke-linecap:butt"
       id="polyline153" />
    <polyline
       points="246.18,287.92 246.18,179.04 "
       style="stroke:#ebebeb;stroke-width:0.53;stroke-linecap:butt"
       id="polyline155" />
    <polyline
       points="263.39,287.92 263.39,179.04 "
       style="stroke:#ebebeb;stroke-width:0.53;stroke-linecap:butt"
       id="polyline157" />
    <polyline
       points="298.97,287.92 298.97,179.04 "
       style="stroke:#ebebeb;stroke-width:0.53;stroke-linecap:butt"
       id="polyline159" />
    <polyline
       points="315.04,287.92 315.04,179.04 "
       style="stroke:#ebebeb;stroke-width:0.53;stroke-linecap:butt"
       id="polyline161" />
    <polyline
       points="350.05,287.92 350.05,179.04 "
       style="stroke:#ebebeb;stroke-width:0.53;stroke-linecap:butt"
       id="polyline163" />
    <polyline
       points="367.84,287.92 367.84,179.04 "
       style="stroke:#ebebeb;stroke-width:0.53;stroke-linecap:butt"
       id="polyline165" />
    <polyline
       points="402.85,287.92 402.85,179.04 "
       style="stroke:#ebebeb;stroke-width:0.53;stroke-linecap:butt"
       id="polyline167" />
    <polyline
       points="420.64,287.92 420.64,179.04 "
       style="stroke:#ebebeb;stroke-width:0.53;stroke-linecap:butt"
       id="polyline169" />
    <polyline
       points="455.64,287.92 455.64,179.04 "
       style="stroke:#ebebeb;stroke-width:0.53;stroke-linecap:butt"
       id="polyline171" />
    <polyline
       points="472.86,287.92 472.86,179.04 "
       style="stroke:#ebebeb;stroke-width:0.53;stroke-linecap:butt"
       id="polyline173" />
    <polyline
       points="508.44,287.92 508.44,179.04 "
       style="stroke:#ebebeb;stroke-width:0.53;stroke-linecap:butt"
       id="polyline175" />
    <polyline
       points="524.51,287.92 524.51,179.04 "
       style="stroke:#ebebeb;stroke-width:0.53;stroke-linecap:butt"
       id="polyline177" />
    <polyline
       points="559.51,287.92 559.51,179.04 "
       style="stroke:#ebebeb;stroke-width:0.53;stroke-linecap:butt"
       id="polyline179" />
    <polyline
       points="577.30,287.92 577.30,179.04 "
       style="stroke:#ebebeb;stroke-width:0.53;stroke-linecap:butt"
       id="polyline181" />
    <polyline
       points="612.31,287.92 612.31,179.04 "
       style="stroke:#ebebeb;stroke-width:0.53;stroke-linecap:butt"
       id="polyline183" />
    <polyline
       points="630.10,287.92 630.10,179.04 "
       style="stroke:#ebebeb;stroke-width:0.53;stroke-linecap:butt"
       id="polyline185" />
    <polyline
       points="665.10,287.92 665.10,179.04 "
       style="stroke:#ebebeb;stroke-width:0.53;stroke-linecap:butt"
       id="polyline187" />
    <polyline
       points="682.32,287.92 682.32,179.04 "
       style="stroke:#ebebeb;stroke-width:0.53;stroke-linecap:butt"
       id="polyline189" />
    <polyline
       points="64.86,283.05 705.83,283.05 "
       style="stroke:#ebebeb;stroke-width:1.07;stroke-linecap:butt"
       id="polyline191" />
    <polyline
       points="64.86,258.31 705.83,258.31 "
       style="stroke:#ebebeb;stroke-width:1.07;stroke-linecap:butt"
       id="polyline193" />
    <polyline
       points="64.86,233.58 705.83,233.58 "
       style="stroke:#ebebeb;stroke-width:1.07;stroke-linecap:butt"
       id="polyline195" />
    <polyline
       points="64.86,208.85 705.83,208.85 "
       style="stroke:#ebebeb;stroke-width:1.07;stroke-linecap:butt"
       id="polyline197" />
    <polyline
       points="64.86,184.12 705.83,184.12 "
       style="stroke:#ebebeb;stroke-width:1.07;stroke-linecap:butt"
       id="polyline199" />
    <polyline
       points="71.15,287.92 71.15,179.04 "
       style="stroke:#ebebeb;stroke-width:1.07;stroke-linecap:butt"
       id="polyline201" />
    <polyline
       points="123.37,287.92 123.37,179.04 "
       style="stroke:#ebebeb;stroke-width:1.07;stroke-linecap:butt"
       id="polyline203" />
    <polyline
       points="175.59,287.92 175.59,179.04 "
       style="stroke:#ebebeb;stroke-width:1.07;stroke-linecap:butt"
       id="polyline205" />
    <polyline
       points="228.39,287.92 228.39,179.04 "
       style="stroke:#ebebeb;stroke-width:1.07;stroke-linecap:butt"
       id="polyline207" />
    <polyline
       points="281.18,287.92 281.18,179.04 "
       style="stroke:#ebebeb;stroke-width:1.07;stroke-linecap:butt"
       id="polyline209" />
    <polyline
       points="332.83,287.92 332.83,179.04 "
       style="stroke:#ebebeb;stroke-width:1.07;stroke-linecap:butt"
       id="polyline211" />
    <polyline
       points="385.06,287.92 385.06,179.04 "
       style="stroke:#ebebeb;stroke-width:1.07;stroke-linecap:butt"
       id="polyline213" />
    <polyline
       points="437.85,287.92 437.85,179.04 "
       style="stroke:#ebebeb;stroke-width:1.07;stroke-linecap:butt"
       id="polyline215" />
    <polyline
       points="490.65,287.92 490.65,179.04 "
       style="stroke:#ebebeb;stroke-width:1.07;stroke-linecap:butt"
       id="polyline217" />
    <polyline
       points="542.30,287.92 542.30,179.04 "
       style="stroke:#ebebeb;stroke-width:1.07;stroke-linecap:butt"
       id="polyline219" />
    <polyline
       points="594.52,287.92 594.52,179.04 "
       style="stroke:#ebebeb;stroke-width:1.07;stroke-linecap:butt"
       id="polyline221" />
    <polyline
       points="647.31,287.92 647.31,179.04 "
       style="stroke:#ebebeb;stroke-width:1.07;stroke-linecap:butt"
       id="polyline223" />
    <polyline
       points="700.11,287.92 700.11,179.04 "
       style="stroke:#ebebeb;stroke-width:1.07;stroke-linecap:butt"
       id="polyline225" />
    <polyline
       points="71.15,277.49 71.15,277.49 71.72,274.80 71.72,274.80 72.29,275.40 72.29,275.40 72.87,266.50 72.87,266.50 73.44,269.48 73.44,269.48 74.02,271.10 74.02,271.10 74.59,271.55 74.59,271.55 75.16,274.16 75.16,274.16 75.74,273.80 75.74,273.80 76.31,275.79 76.31,275.79 76.89,274.40 76.89,274.40 77.46,276.41 77.46,276.41 78.03,276.68 78.03,276.68 78.61,276.46 78.61,276.46 79.18,270.25 79.18,270.25 79.75,273.24 79.75,273.24 80.33,274.12 80.33,274.12 80.90,272.99 80.90,272.99 81.48,276.89 81.48,276.89 82.05,274.30 82.05,274.30 82.62,273.12 82.62,273.12 83.20,266.81 83.20,266.81 83.77,272.37 83.77,272.37 84.35,273.07 84.35,273.07 84.92,274.01 84.92,274.01 85.49,271.27 85.49,271.27 86.07,270.99 86.07,270.99 86.64,268.85 86.64,268.85 87.22,270.69 87.22,270.69 87.79,273.50 87.79,273.50 88.36,271.99 88.36,271.99 88.94,274.32 88.94,274.32 89.51,254.04 89.51,254.04 90.08,270.56 90.08,270.56 90.66,268.92 90.66,268.92 91.23,273.67 91.23,273.67 91.81,271.21 91.81,271.21 92.38,273.99 92.38,273.99 92.95,270.42 92.95,270.42 93.53,262.37 93.53,262.37 94.10,275.48 94.10,275.48 94.68,267.23 94.68,267.23 95.25,267.97 95.25,267.97 95.82,262.12 95.82,262.12 96.40,268.99 96.40,268.99 96.97,258.19 96.97,258.19 97.55,270.85 97.55,270.85 98.12,276.15 98.12,276.15 98.69,266.12 98.69,266.12 99.27,258.80 99.27,258.80 99.84,265.67 99.84,265.67 100.41,269.05 100.41,269.05 100.99,272.14 100.99,272.14 101.56,268.49 101.56,268.49 102.14,264.57 102.14,264.57 102.71,271.92 102.71,271.92 103.28,269.58 103.28,269.58 103.86,272.84 103.86,272.84 104.43,273.81 104.43,273.81 105.01,271.05 105.01,271.05 105.58,268.99 105.58,268.99 106.15,271.31 106.15,271.31 106.73,271.95 106.73,271.95 107.30,272.36 107.30,272.36 107.87,267.84 107.87,267.84 108.45,272.51 108.45,272.51 109.02,270.01 109.02,270.01 109.60,267.35 109.60,267.35 110.17,270.45 110.17,270.45 110.74,268.69 110.74,268.69 111.32,269.93 111.32,269.93 111.89,265.61 111.89,265.61 112.47,244.75 112.47,244.75 113.04,261.80 113.04,261.80 113.61,262.54 113.61,262.54 114.19,272.00 114.19,272.00 114.76,264.25 114.76,264.25 115.34,274.13 115.34,274.13 115.91,277.51 115.91,277.51 116.48,275.06 116.48,275.06 117.06,269.88 117.06,269.88 117.63,279.62 117.63,279.62 118.20,277.93 118.20,277.93 118.78,272.63 118.78,272.63 119.35,277.27 119.35,277.27 119.93,274.90 119.93,274.90 121.07,275.38 121.07,275.38 121.65,279.71 121.65,279.71 122.22,278.74 122.22,278.74 122.80,273.96 122.80,273.96 123.37,261.57 123.37,261.57 123.94,267.85 123.94,267.85 124.52,272.35 124.52,272.35 125.09,273.61 125.09,273.61 125.66,269.17 125.66,269.17 126.24,269.15 126.24,269.15 126.81,268.23 126.81,268.23 127.39,274.79 127.39,274.79 127.96,271.68 127.96,271.68 128.53,271.22 128.53,271.22 129.11,272.93 129.11,272.93 129.68,272.54 129.68,272.54 130.26,269.44 130.26,269.44 130.83,271.08 130.83,271.08 131.40,269.75 131.40,269.75 131.98,269.69 131.98,269.69 132.55,271.25 132.55,271.25 133.13,272.65 133.13,272.65 133.70,275.57 133.70,275.57 134.27,269.80 134.27,269.80 134.85,267.66 134.85,267.66 135.42,274.59 135.42,274.59 135.99,274.93 135.99,274.93 136.57,271.58 136.57,271.58 137.14,268.34 137.14,268.34 137.72,270.73 137.72,270.73 138.29,271.53 138.29,271.53 138.86,272.00 138.86,272.00 139.44,271.73 139.44,271.73 140.01,273.46 140.01,273.46 140.59,274.27 140.59,274.27 141.16,269.12 141.16,269.12 141.73,269.88 141.73,269.88 142.31,270.96 142.31,270.96 142.88,268.38 142.88,268.38 143.45,267.55 143.45,267.55 144.03,267.21 144.03,267.21 144.60,270.22 144.60,270.22 145.18,265.18 145.18,265.18 145.75,270.62 145.75,270.62 146.32,271.55 146.32,271.55 146.90,271.25 146.90,271.25 147.47,272.87 147.47,272.87 148.05,270.72 148.05,270.72 148.62,274.12 148.62,274.12 149.19,271.94 149.19,271.94 149.77,268.10 149.77,268.10 150.34,269.33 150.34,269.33 150.92,270.19 150.92,270.19 151.49,267.95 151.49,267.95 152.06,264.95 152.06,264.95 152.64,274.49 152.64,274.49 153.21,273.34 153.21,273.34 153.78,273.46 153.78,273.46 154.36,273.62 154.36,273.62 154.93,271.87 154.93,271.87 155.51,272.35 155.51,272.35 156.08,271.69 156.08,271.69 156.65,270.02 156.65,270.02 157.23,270.16 157.23,270.16 157.80,272.07 157.80,272.07 158.38,275.69 158.38,275.69 158.95,278.76 158.95,278.76 159.52,270.74 159.52,270.74 160.10,273.78 160.10,273.78 160.67,269.25 160.67,269.25 161.24,267.65 161.24,267.65 161.82,272.83 161.82,272.83 162.39,270.77 162.39,270.77 162.97,271.34 162.97,271.34 163.54,272.65 163.54,272.65 164.11,278.85 164.11,278.85 164.69,276.85 164.69,276.85 165.26,271.30 165.26,271.30 165.84,260.87 165.84,260.87 166.41,246.99 166.41,246.99 166.98,268.21 166.98,268.21 167.56,269.42 167.56,269.42 168.13,276.57 168.13,276.57 168.71,274.58 168.71,274.58 169.28,273.41 169.28,273.41 169.85,269.52 169.85,269.52 170.43,269.80 170.43,269.80 171.00,272.31 171.00,272.31 171.57,275.44 171.57,275.44 172.15,270.16 172.15,270.16 172.72,258.03 172.72,258.03 173.30,272.55 173.30,272.55 173.87,269.22 173.87,269.22 174.44,279.15 174.44,279.15 175.02,277.44 175.02,277.44 175.59,274.12 175.59,274.12 176.17,275.19 176.17,275.19 176.74,275.68 176.74,275.68 177.31,272.50 177.31,272.50 177.89,279.09 177.89,279.09 178.46,279.58 178.46,279.58 179.03,277.91 179.03,277.91 179.61,281.29 179.61,281.29 180.18,271.67 180.18,271.67 180.76,273.96 180.76,273.96 181.33,274.22 181.33,274.22 181.90,275.82 181.90,275.82 182.48,272.67 182.48,272.67 183.05,271.06 183.05,271.06 183.63,273.48 183.63,273.48 184.20,268.91 184.20,268.91 184.77,275.63 184.77,275.63 185.35,271.69 185.35,271.69 185.92,273.14 185.92,273.14 186.50,271.88 186.50,271.88 187.07,275.95 187.07,275.95 187.64,271.09 187.64,271.09 188.22,278.85 188.22,278.85 188.79,278.06 188.79,278.06 189.36,277.15 189.36,277.15 189.94,273.99 189.94,273.99 190.51,277.98 190.51,277.98 191.09,273.17 191.09,273.17 191.66,276.75 191.66,276.75 192.23,274.09 192.23,274.09 192.81,275.61 192.81,275.61 193.38,276.25 193.38,276.25 193.96,272.67 193.96,272.67 194.53,272.82 194.53,272.82 195.10,265.13 195.10,265.13 195.68,273.44 195.68,273.44 196.25,271.29 196.25,271.29 196.82,275.75 196.82,275.75 197.40,274.03 197.40,274.03 197.97,272.86 197.97,272.86 198.55,270.11 198.55,270.11 199.12,273.51 199.12,273.51 199.69,274.76 199.69,274.76 200.27,275.27 200.27,275.27 200.84,272.73 200.84,272.73 201.42,271.90 201.42,271.90 201.99,272.13 201.99,272.13 202.56,271.40 202.56,271.40 203.14,267.03 203.14,267.03 203.71,267.84 203.71,267.84 204.29,268.26 204.29,268.26 204.86,270.79 204.86,270.79 205.43,268.50 205.43,268.50 206.01,270.82 206.01,270.82 206.58,269.07 206.58,269.07 207.15,268.87 207.15,268.87 207.73,271.16 207.73,271.16 208.30,270.57 208.30,270.57 208.88,268.85 208.88,268.85 209.45,271.51 209.45,271.51 210.02,268.92 210.02,268.92 210.60,264.55 210.60,264.55 211.17,254.91 211.17,254.91 211.75,254.97 211.75,254.97 212.32,255.52 212.32,255.52 212.89,257.81 212.89,257.81 213.47,237.25 213.47,237.25 214.04,238.69 214.04,238.69 214.61,235.58 214.61,235.58 215.19,243.85 215.19,243.85 215.76,240.94 215.76,240.94 216.34,222.76 216.34,222.76 216.91,219.94 216.91,219.94 217.48,244.06 217.48,244.06 218.06,253.50 218.06,253.50 218.63,256.08 218.63,256.08 219.21,261.91 219.21,261.91 219.78,266.51 219.78,266.51 220.35,272.14 220.35,272.14 220.93,262.94 220.93,262.94 221.50,259.62 221.50,259.62 222.08,260.24 222.08,260.24 222.65,257.89 222.65,257.89 223.22,262.59 223.22,262.59 223.80,268.34 223.80,268.34 224.37,267.18 224.37,267.18 224.94,265.34 224.94,265.34 225.52,258.96 225.52,258.96 226.09,259.45 226.09,259.45 226.67,258.76 226.67,258.76 227.24,260.30 227.24,260.30 227.81,261.47 227.81,261.47 228.39,248.89 228.39,248.89 228.96,263.00 228.96,263.00 229.54,269.59 229.54,269.59 230.11,266.28 230.11,266.28 230.68,273.91 230.68,273.91 231.26,268.34 231.26,268.34 231.83,245.43 231.83,245.43 232.41,270.61 232.41,270.61 232.98,270.73 232.98,270.73 233.55,265.93 233.55,265.93 234.13,264.27 234.13,264.27 234.70,272.05 234.70,272.05 235.27,271.47 235.27,271.47 235.85,267.87 235.85,267.87 236.42,268.54 236.42,268.54 237.00,272.24 237.00,272.24 237.57,269.21 237.57,269.21 238.14,267.35 238.14,267.35 238.72,258.51 238.72,258.51 239.29,263.98 239.29,263.98 239.87,268.94 239.87,268.94 240.44,267.65 240.44,267.65 241.01,270.37 241.01,270.37 241.59,271.53 241.59,271.53 242.16,274.54 242.16,274.54 242.73,273.03 242.73,273.03 243.31,265.14 243.31,265.14 243.88,273.31 243.88,273.31 244.46,273.03 244.46,273.03 245.03,273.66 245.03,273.66 245.60,274.43 245.60,274.43 246.18,273.26 246.18,273.26 246.75,273.88 246.75,273.88 247.33,275.49 247.33,275.49 247.90,270.32 247.90,270.32 248.47,273.88 248.47,273.88 249.05,271.40 249.05,271.40 249.62,263.06 249.62,263.06 250.20,259.77 250.20,259.77 250.77,262.69 250.77,262.69 251.34,208.43 251.34,208.43 251.92,253.91 251.92,253.91 252.49,261.63 252.49,261.63 253.06,266.22 253.06,266.22 253.64,265.47 253.64,265.47 254.21,259.12 254.21,259.12 254.79,265.04 254.79,265.04 255.36,258.03 255.36,258.03 255.93,237.50 255.93,237.50 256.51,254.52 256.51,254.52 257.08,266.06 257.08,266.06 257.66,271.47 257.66,271.47 258.23,267.85 258.23,267.85 258.80,264.18 258.80,264.18 259.38,268.33 259.38,268.33 259.95,270.02 259.95,270.02 260.52,265.61 260.52,265.61 261.10,259.74 261.10,259.74 261.67,251.18 261.67,251.18 262.25,255.36 262.25,255.36 262.82,260.70 262.82,260.70 263.39,263.87 263.39,263.87 263.97,264.40 263.97,264.40 264.54,270.83 264.54,270.83 265.12,265.59 265.12,265.59 265.69,253.11 265.69,253.11 266.26,241.21 266.26,241.21 266.84,255.04 266.84,255.04 267.41,263.41 267.41,263.41 267.99,267.80 267.99,267.80 268.56,270.31 268.56,270.31 269.13,265.21 269.13,265.21 269.71,270.11 269.71,270.11 270.28,269.65 270.28,269.65 270.85,266.44 270.85,266.44 271.43,259.86 271.43,259.86 272.00,259.09 272.00,259.09 272.58,257.49 272.58,257.49 273.15,269.47 273.15,269.47 273.72,268.38 273.72,268.38 274.30,264.89 274.30,264.89 274.87,267.17 274.87,267.17 275.45,261.45 275.45,261.45 276.02,257.70 276.02,257.70 276.59,246.78 276.59,246.78 277.17,235.61 277.17,235.61 277.74,267.23 277.74,267.23 278.31,269.01 278.31,269.01 278.89,266.35 278.89,266.35 279.46,274.11 279.46,274.11 280.04,272.49 280.04,272.49 280.61,277.00 280.61,277.00 281.18,256.00 281.18,256.00 281.76,274.20 281.76,274.20 282.33,272.46 282.33,272.46 282.91,272.86 282.91,272.86 283.48,270.10 283.48,270.10 284.05,270.28 284.05,270.28 284.63,269.31 284.63,269.31 285.20,213.60 285.20,213.60 285.78,228.34 285.78,228.34 286.35,262.23 286.35,262.23 286.92,265.73 286.92,265.73 287.50,264.89 287.50,264.89 288.07,266.31 288.07,266.31 288.64,269.79 288.64,269.79 289.22,269.21 289.22,269.21 289.79,272.89 289.79,272.89 290.37,270.35 290.37,270.35 290.94,271.35 290.94,271.35 291.51,262.84 291.51,262.84 292.09,233.36 292.09,233.36 292.66,254.32 292.66,254.32 293.24,266.70 293.24,266.70 293.81,262.93 293.81,262.93 294.38,268.80 294.38,268.80 294.96,269.10 294.96,269.10 295.53,260.92 295.53,260.92 296.10,267.32 296.10,267.32 296.68,270.07 296.68,270.07 297.25,273.35 297.25,273.35 297.83,267.70 297.83,267.70 298.40,261.52 298.40,261.52 298.97,271.69 298.97,271.69 299.55,272.35 299.55,272.35 300.12,264.81 300.12,264.81 300.70,271.50 300.70,271.50 301.27,271.62 301.27,271.62 301.84,274.72 301.84,274.72 302.42,271.20 302.42,271.20 302.99,270.05 302.99,270.05 303.57,264.30 303.57,264.30 304.14,265.18 304.14,265.18 304.71,264.39 304.71,264.39 305.29,266.61 305.29,266.61 305.86,266.44 305.86,266.44 306.43,267.74 306.43,267.74 307.01,269.89 307.01,269.89 307.58,267.77 307.58,267.77 308.16,271.34 308.16,271.34 308.73,274.46 308.73,274.46 309.30,277.09 309.30,277.09 309.88,265.21 309.88,265.21 310.45,278.05 310.45,278.05 311.03,278.37 311.03,278.37 311.60,249.69 311.60,249.69 312.17,263.46 312.17,263.46 312.75,272.91 312.75,272.91 313.32,271.19 313.32,271.19 313.89,264.11 313.89,264.11 314.47,268.59 314.47,268.59 315.04,248.15 315.04,248.15 315.62,255.21 315.62,255.21 316.19,265.77 316.19,265.77 316.76,268.33 316.76,268.33 317.34,262.33 317.34,262.33 317.91,262.25 317.91,262.25 318.49,267.09 318.49,267.09 319.06,266.87 319.06,266.87 319.63,269.62 319.63,269.62 320.21,265.20 320.21,265.20 320.78,272.30 320.78,272.30 321.36,270.17 321.36,270.17 321.93,266.38 321.93,266.38 322.50,267.01 322.50,267.01 323.08,262.80 323.08,262.80 323.65,265.39 323.65,265.39 324.22,266.81 324.22,266.81 324.80,269.51 324.80,269.51 325.37,276.78 325.37,276.78 325.95,267.40 325.95,267.40 326.52,262.75 326.52,262.75 327.09,261.58 327.09,261.58 327.67,263.80 327.67,263.80 328.24,263.07 328.24,263.07 328.82,243.08 328.82,243.08 329.39,256.16 329.39,256.16 329.96,269.39 329.96,269.39 330.54,261.78 330.54,261.78 331.11,263.82 331.11,263.82 331.68,261.24 331.68,261.24 332.26,266.14 332.26,266.14 332.83,269.18 332.83,269.18 333.41,266.65 333.41,266.65 333.98,262.75 333.98,262.75 334.55,258.99 334.55,258.99 335.13,267.59 335.13,267.59 335.70,269.22 335.70,269.22 336.28,272.28 336.28,272.28 336.85,269.52 336.85,269.52 337.42,252.17 337.42,252.17 338.00,254.38 338.00,254.38 338.57,275.17 338.57,275.17 339.15,268.74 339.15,268.74 339.72,273.99 339.72,273.99 340.29,276.62 340.29,276.62 340.87,277.33 340.87,277.33 341.44,272.77 341.44,272.77 342.01,243.07 342.01,243.07 342.59,229.31 342.59,229.31 343.16,268.18 343.16,268.18 343.74,275.61 343.74,275.61 344.31,272.18 344.31,272.18 344.88,269.21 344.88,269.21 345.46,264.18 345.46,264.18 346.03,256.20 346.03,256.20 346.61,261.55 346.61,261.55 347.18,259.25 347.18,259.25 347.75,262.57 347.75,262.57 348.33,256.69 348.33,256.69 348.90,257.97 348.90,257.97 349.47,266.59 349.47,266.59 350.05,265.49 350.05,265.49 350.62,258.96 350.62,258.96 351.20,270.30 351.20,270.30 351.77,268.92 351.77,268.92 352.34,267.01 352.34,267.01 352.92,276.05 352.92,276.05 353.49,273.69 353.49,273.69 354.07,269.13 354.07,269.13 354.64,269.54 354.64,269.54 355.21,268.96 355.21,268.96 355.79,270.20 355.79,270.20 356.36,275.80 356.36,275.80 356.94,272.10 356.94,272.10 357.51,269.04 357.51,269.04 358.08,266.38 358.08,266.38 358.66,263.63 358.66,263.63 359.23,265.72 359.23,265.72 359.80,272.25 359.80,272.25 360.38,257.20 360.38,257.20 360.95,267.97 360.95,267.97 361.53,269.22 361.53,269.22 362.10,266.55 362.10,266.55 362.67,273.80 362.67,273.80 363.25,273.26 363.25,273.26 363.82,270.20 363.82,270.20 364.40,262.31 364.40,262.31 364.97,247.43 364.97,247.43 365.54,248.74 365.54,248.74 366.12,260.76 366.12,260.76 366.69,271.11 366.69,271.11 367.27,275.63 367.27,275.63 367.84,268.05 367.84,268.05 368.41,270.27 368.41,270.27 368.99,260.56 368.99,260.56 369.56,276.39 369.56,276.39 370.13,272.18 370.13,272.18 370.71,272.70 370.71,272.70 371.28,274.41 371.28,274.41 371.86,267.85 371.86,267.85 372.43,267.85 372.43,267.85 373.00,271.01 373.00,271.01 373.58,269.42 373.58,269.42 374.15,266.90 374.15,266.90 374.73,268.01 374.73,268.01 375.30,269.22 375.30,269.22 375.87,264.08 375.87,264.08 376.45,272.66 376.45,272.66 377.02,274.91 377.02,274.91 377.59,270.42 377.59,270.42 378.17,271.48 378.17,271.48 378.74,270.16 378.74,270.16 379.32,269.48 379.32,269.48 379.89,269.27 379.89,269.27 380.46,269.78 380.46,269.78 381.04,273.09 381.04,273.09 381.61,274.44 381.61,274.44 382.19,274.66 382.19,274.66 382.76,242.79 382.76,242.79 383.33,262.00 383.33,262.00 383.91,273.24 383.91,273.24 384.48,269.51 384.48,269.51 385.06,268.62 385.06,268.62 385.63,271.94 385.63,271.94 386.20,273.02 386.20,273.02 386.78,267.30 386.78,267.30 387.35,272.89 387.35,272.89 387.92,271.77 387.92,271.77 388.50,270.56 388.50,270.56 389.07,272.94 389.07,272.94 389.65,265.89 389.65,265.89 390.22,266.60 390.22,266.60 390.79,271.27 390.79,271.27 391.37,265.62 391.37,265.62 391.94,265.67 391.94,265.67 392.52,278.41 392.52,278.41 393.09,269.94 393.09,269.94 393.66,268.75 393.66,268.75 394.24,273.09 394.24,273.09 394.81,280.67 394.81,280.67 395.38,271.01 395.38,271.01 395.96,271.47 395.96,271.47 396.53,228.57 396.53,228.57 397.11,248.66 397.11,248.66 397.68,255.09 397.68,255.09 398.25,267.16 398.25,267.16 398.83,269.22 398.83,269.22 399.40,269.96 399.40,269.96 399.98,268.26 399.98,268.26 400.55,258.96 400.55,258.96 401.12,275.06 401.12,275.06 401.70,269.55 401.70,269.55 402.27,270.15 402.27,270.15 402.85,265.05 402.85,265.05 403.42,266.33 403.42,266.33 403.99,269.52 403.99,269.52 404.57,273.87 404.57,273.87 405.14,270.53 405.14,270.53 405.71,270.47 405.71,270.47 406.29,268.06 406.29,268.06 406.86,268.87 406.86,268.87 407.44,262.23 407.44,262.23 408.01,270.45 408.01,270.45 408.58,265.83 408.58,265.83 409.16,265.03 409.16,265.03 409.73,268.12 409.73,268.12 410.31,267.70 410.31,267.70 410.88,268.58 410.88,268.58 411.45,273.40 411.45,273.40 412.03,268.11 412.03,268.11 412.60,261.39 412.60,261.39 413.17,262.39 413.17,262.39 413.75,267.59 413.75,267.59 414.32,268.92 414.32,268.92 414.90,259.59 414.90,259.59 415.47,260.47 415.47,260.47 416.04,266.46 416.04,266.46 416.62,261.08 416.62,261.08 417.19,269.51 417.19,269.51 417.77,277.26 417.77,277.26 418.34,226.87 418.34,226.87 418.91,219.00 418.91,219.00 419.49,238.66 419.49,238.66 420.06,261.32 420.06,261.32 420.64,244.67 420.64,244.67 421.21,231.73 421.21,231.73 421.78,233.02 421.78,233.02 422.36,241.63 422.36,241.63 422.93,241.73 422.93,241.73 423.50,239.49 423.50,239.49 424.08,245.64 424.08,245.64 424.65,270.06 424.65,270.06 425.23,267.95 425.23,267.95 425.80,238.47 425.80,238.47 426.37,201.42 426.37,201.42 426.95,219.58 426.95,219.58 427.52,236.86 427.52,236.86 428.10,243.13 428.10,243.13 428.67,240.85 428.67,240.85 429.24,248.84 429.24,248.84 429.82,245.08 429.82,245.08 430.39,254.68 430.39,254.68 430.96,266.50 430.96,266.50 431.54,261.06 431.54,261.06 432.11,254.63 432.11,254.63 432.69,253.96 432.69,253.96 433.26,261.32 433.26,261.32 433.83,259.62 433.83,259.62 434.41,252.22 434.41,252.22 434.98,248.82 434.98,248.82 435.56,245.16 435.56,245.16 436.13,253.42 436.13,253.42 436.70,248.72 436.70,248.72 437.28,261.37 437.28,261.37 437.85,263.26 437.85,263.26 438.43,273.07 438.43,273.07 439.00,270.37 439.00,270.37 439.57,278.64 439.57,278.64 440.15,278.68 440.15,278.68 440.72,272.56 440.72,272.56 441.29,265.14 441.29,265.14 441.87,257.62 441.87,257.62 442.44,259.28 442.44,259.28 443.02,256.15 443.02,256.15 443.59,262.10 443.59,262.10 444.16,269.70 444.16,269.70 444.74,263.05 444.74,263.05 445.31,263.76 445.31,263.76 445.89,268.40 445.89,268.40 446.46,265.96 446.46,265.96 447.03,270.53 447.03,270.53 447.61,266.82 447.61,266.82 448.18,265.77 448.18,265.77 448.75,264.93 448.75,264.93 449.33,269.73 449.33,269.73 449.90,263.38 449.90,263.38 450.48,267.66 450.48,267.66 451.05,268.28 451.05,268.28 451.62,268.64 451.62,268.64 452.20,264.77 452.20,264.77 452.77,267.69 452.77,267.69 453.35,269.38 453.35,269.38 453.92,275.01 453.92,275.01 454.49,275.57 454.49,275.57 455.07,269.27 455.07,269.27 455.64,272.55 455.64,272.55 456.22,269.57 456.22,269.57 456.79,269.91 456.79,269.91 457.36,280.57 457.36,280.57 457.94,275.58 457.94,275.58 458.51,271.58 458.51,271.58 459.08,267.47 459.08,267.47 459.66,261.07 459.66,261.07 460.23,262.27 460.23,262.27 460.81,266.36 460.81,266.36 461.38,249.03 461.38,249.03 461.95,257.41 461.95,257.41 462.53,259.32 462.53,259.32 463.10,257.29 463.10,257.29 463.68,263.27 463.68,263.27 464.25,265.44 464.25,265.44 464.82,263.56 464.82,263.56 465.40,253.52 465.40,253.52 465.97,255.11 465.97,255.11 466.54,270.25 466.54,270.25 467.12,278.62 467.12,278.62 467.69,267.91 467.69,267.91 468.27,263.50 468.27,263.50 468.84,267.25 468.84,267.25 469.41,268.37 469.41,268.37 469.99,268.29 469.99,268.29 470.56,255.96 470.56,255.96 471.14,248.42 471.14,248.42 471.71,259.88 471.71,259.88 472.28,265.15 472.28,265.15 472.86,265.93 472.86,265.93 473.43,277.20 473.43,277.20 474.01,277.05 474.01,277.05 474.58,272.41 474.58,272.41 475.15,278.68 475.15,278.68 475.73,275.80 475.73,275.80 476.30,272.84 476.30,272.84 476.87,270.78 476.87,270.78 477.45,270.49 477.45,270.49 478.02,270.52 478.02,270.52 478.60,271.47 478.60,271.47 479.17,282.33 479.17,282.33 479.74,279.13 479.74,279.13 480.32,277.35 480.32,277.35 480.89,271.32 480.89,271.32 481.47,272.35 481.47,272.35 482.04,274.53 482.04,274.53 482.61,270.63 482.61,270.63 483.19,265.65 483.19,265.65 483.76,267.34 483.76,267.34 484.33,268.49 484.33,268.49 484.91,196.70 484.91,196.70 485.48,213.70 485.48,213.70 486.06,186.90 486.06,186.90 486.63,183.99 486.63,183.99 487.20,228.30 487.20,228.30 487.78,262.82 487.78,262.82 488.35,271.16 488.35,271.16 488.93,266.12 488.93,266.12 489.50,267.43 489.50,267.43 490.07,259.24 490.07,259.24 490.65,193.24 490.65,193.24 491.22,252.51 491.22,252.51 491.80,267.04 491.80,267.04 492.37,260.86 492.37,260.86 492.94,266.86 492.94,266.86 493.52,270.17 493.52,270.17 494.09,274.38 494.09,274.38 494.66,268.58 494.66,268.58 495.24,270.14 495.24,270.14 495.81,274.59 495.81,274.59 496.39,275.40 496.39,275.40 496.96,267.19 496.96,267.19 497.53,260.73 497.53,260.73 498.11,271.78 498.11,271.78 498.68,274.63 498.68,274.63 499.26,273.19 499.26,273.19 499.83,263.32 499.83,263.32 500.40,259.81 500.40,259.81 500.98,268.55 500.98,268.55 501.55,271.82 501.55,271.82 502.13,265.44 502.13,265.44 502.70,265.33 502.70,265.33 503.27,266.24 503.27,266.24 503.85,266.04 503.85,266.04 504.42,261.99 504.42,261.99 504.99,269.47 504.99,269.47 505.57,276.05 505.57,276.05 506.14,269.32 506.14,269.32 506.72,223.03 506.72,223.03 507.29,271.74 507.29,271.74 507.86,271.30 507.86,271.30 508.44,266.51 508.44,266.51 509.01,279.34 509.01,279.34 509.59,266.44 509.59,266.44 510.16,269.06 510.16,269.06 510.73,261.95 510.73,261.95 511.31,268.43 511.31,268.43 511.88,265.88 511.88,265.88 512.45,277.16 512.45,277.16 513.03,271.13 513.03,271.13 513.60,268.44 513.60,268.44 514.18,267.64 514.18,267.64 514.75,269.44 514.75,269.44 515.32,267.79 515.32,267.79 515.90,267.38 515.90,267.38 516.47,273.61 516.47,273.61 517.05,272.03 517.05,272.03 517.62,272.35 517.62,272.35 518.19,272.93 518.19,272.93 518.77,277.64 518.77,277.64 519.34,273.38 519.34,273.38 519.92,266.65 519.92,266.65 520.49,271.79 520.49,271.79 521.06,273.09 521.06,273.09 521.64,258.09 521.64,258.09 522.21,263.32 522.21,263.32 522.78,264.98 522.78,264.98 523.36,263.62 523.36,263.62 523.93,266.71 523.93,266.71 524.51,265.28 524.51,265.28 525.08,275.63 525.08,275.63 525.65,277.79 525.65,277.79 526.23,272.76 526.23,272.76 526.80,262.44 526.80,262.44 527.38,263.25 527.38,263.25 527.95,228.63 527.95,228.63 528.52,276.28 528.52,276.28 529.10,269.63 529.10,269.63 529.67,262.15 529.67,262.15 530.24,265.86 530.24,265.86 530.82,268.96 530.82,268.96 531.39,267.98 531.39,267.98 531.97,266.23 531.97,266.23 532.54,270.89 532.54,270.89 533.11,268.87 533.11,268.87 533.69,269.90 533.69,269.90 534.26,271.05 534.26,271.05 534.84,272.60 534.84,272.60 535.41,269.78 535.41,269.78 535.98,273.03 535.98,273.03 536.56,269.00 536.56,269.00 537.13,265.91 537.13,265.91 537.71,271.67 537.71,271.67 538.85,272.07 538.85,272.07 539.43,279.04 539.43,279.04 540.00,279.23 540.00,279.23 540.57,272.88 540.57,272.88 541.15,274.48 541.15,274.48 541.72,272.26 541.72,272.26 542.30,270.38 542.30,270.38 542.87,274.29 542.87,274.29 543.44,263.95 543.44,263.95 544.02,268.26 544.02,268.26 544.59,268.86 544.59,268.86 545.17,269.25 545.17,269.25 545.74,270.38 545.74,270.38 546.31,267.44 546.31,267.44 546.89,267.58 546.89,267.58 547.46,272.31 547.46,272.31 548.03,269.48 548.03,269.48 548.61,253.48 548.61,253.48 549.18,265.67 549.18,265.67 549.76,271.22 549.76,271.22 550.33,274.35 550.33,274.35 550.90,258.34 550.90,258.34 551.48,259.11 551.48,259.11 552.05,260.87 552.05,260.87 552.63,260.53 552.63,260.53 553.20,266.29 553.20,266.29 553.77,264.84 553.77,264.84 554.35,270.12 554.35,270.12 554.92,271.32 554.92,271.32 555.50,276.41 555.50,276.41 556.07,272.33 556.07,272.33 556.64,276.20 556.64,276.20 557.22,276.75 557.22,276.75 557.79,275.39 557.79,275.39 558.36,277.93 558.36,277.93 558.94,277.36 558.94,277.36 559.51,273.69 559.51,273.69 560.09,270.20 560.09,270.20 560.66,264.10 560.66,264.10 561.23,267.11 561.23,267.11 561.81,268.59 561.81,268.59 562.38,266.19 562.38,266.19 562.96,266.81 562.96,266.81 563.53,270.16 563.53,270.16 564.10,272.13 564.10,272.13 564.68,271.92 564.68,271.92 565.25,271.97 565.25,271.97 565.82,267.14 565.82,267.14 566.40,274.55 566.40,274.55 566.97,276.97 566.97,276.97 567.55,275.80 567.55,275.80 568.12,276.25 568.12,276.25 568.69,273.83 568.69,273.83 569.27,269.30 569.27,269.30 569.84,272.63 569.84,272.63 570.42,273.31 570.42,273.31 570.99,277.95 570.99,277.95 571.56,273.77 571.56,273.77 572.14,268.97 572.14,268.97 572.71,270.21 572.71,270.21 573.29,258.97 573.29,258.97 573.86,263.46 573.86,263.46 574.43,254.85 574.43,254.85 575.01,253.10 575.01,253.10 575.58,230.25 575.58,230.25 576.15,264.82 576.15,264.82 576.73,270.38 576.73,270.38 577.30,274.44 577.30,274.44 577.88,272.25 577.88,272.25 578.45,264.93 578.45,264.93 579.02,268.39 579.02,268.39 579.60,272.11 579.60,272.11 580.17,260.76 580.17,260.76 580.75,274.76 580.75,274.76 581.32,257.37 581.32,257.37 581.89,248.75 581.89,248.75 582.47,267.92 582.47,267.92 583.04,265.88 583.04,265.88 583.61,261.37 583.61,261.37 584.19,256.50 584.19,256.50 584.76,263.98 584.76,263.98 585.34,270.12 585.34,270.12 585.91,274.34 585.91,274.34 586.48,277.59 586.48,277.59 587.06,275.84 587.06,275.84 587.63,274.88 587.63,274.88 588.21,272.63 588.21,272.63 588.78,272.03 588.78,272.03 589.35,269.10 589.35,269.10 589.93,268.18 589.93,268.18 590.50,263.32 590.50,263.32 591.08,272.54 591.08,272.54 591.65,273.20 591.65,273.20 592.22,270.62 592.22,270.62 592.80,267.43 592.80,267.43 593.37,274.63 593.37,274.63 593.94,279.72 593.94,279.72 594.52,271.83 594.52,271.83 595.09,265.72 595.09,265.72 595.67,265.15 595.67,265.15 596.24,270.53 596.24,270.53 596.81,269.06 596.81,269.06 597.39,267.76 597.39,267.76 597.96,270.54 597.96,270.54 598.54,276.34 598.54,276.34 599.11,266.95 599.11,266.95 599.68,265.04 599.68,265.04 600.26,265.73 600.26,265.73 600.83,271.17 600.83,271.17 601.40,273.66 601.40,273.66 601.98,271.67 601.98,271.67 602.55,269.67 602.55,269.67 603.13,268.16 603.13,268.16 603.70,265.52 603.70,265.52 604.27,269.79 604.27,269.79 604.85,271.29 604.85,271.29 605.42,270.20 605.42,270.20 606.00,267.18 606.00,267.18 606.57,272.84 606.57,272.84 607.14,278.90 607.14,278.90 607.72,270.57 607.72,270.57 608.29,264.34 608.29,264.34 608.87,270.98 608.87,270.98 609.44,276.91 609.44,276.91 610.01,268.42 610.01,268.42 610.59,265.36 610.59,265.36 611.16,265.34 611.16,265.34 611.73,272.71 611.73,272.71 612.31,270.78 612.31,270.78 612.88,271.11 612.88,271.11 613.46,267.98 613.46,267.98 614.03,259.43 614.03,259.43 614.60,265.82 614.60,265.82 615.18,268.02 615.18,268.02 615.75,267.47 615.75,267.47 616.33,271.06 616.33,271.06 616.90,268.85 616.90,268.85 617.47,269.95 617.47,269.95 618.05,271.98 618.05,271.98 618.62,274.53 618.62,274.53 619.20,268.66 619.20,268.66 619.77,271.87 619.77,271.87 620.34,268.94 620.34,268.94 620.92,271.95 620.92,271.95 621.49,275.85 621.49,275.85 622.06,272.75 622.06,272.75 622.64,273.18 622.64,273.18 623.21,268.90 623.21,268.90 623.79,262.91 623.79,262.91 624.36,266.87 624.36,266.87 624.93,266.57 624.93,266.57 625.51,264.68 625.51,264.68 626.08,276.17 626.08,276.17 626.66,273.14 626.66,273.14 627.23,267.56 627.23,267.56 627.80,276.73 627.80,276.73 628.38,279.45 628.38,279.45 628.95,274.45 628.95,274.45 629.52,266.48 629.52,266.48 630.10,244.72 630.10,244.72 630.67,247.37 630.67,247.37 631.25,251.34 631.25,251.34 631.82,257.50 631.82,257.50 632.39,256.64 632.39,256.64 632.97,254.44 632.97,254.44 633.54,247.93 633.54,247.93 634.12,251.44 634.12,251.44 634.69,264.00 634.69,264.00 635.26,233.42 635.26,233.42 635.84,218.39 635.84,218.39 636.41,249.57 636.41,249.57 636.99,246.44 636.99,246.44 637.56,245.13 637.56,245.13 638.13,260.32 638.13,260.32 638.71,259.25 638.71,259.25 639.28,251.13 639.28,251.13 639.85,259.61 639.85,259.61 640.43,266.50 640.43,266.50 641.00,261.18 641.00,261.18 641.58,255.93 641.58,255.93 642.15,278.36 642.15,278.36 642.72,272.40 642.72,272.40 643.30,264.16 643.30,264.16 643.87,255.99 643.87,255.99 644.45,252.71 644.45,252.71 645.02,251.45 645.02,251.45 645.59,259.58 645.59,259.58 646.17,273.15 646.17,273.15 646.74,265.91 646.74,265.91 647.31,257.82 647.31,257.82 647.89,264.55 647.89,264.55 648.46,264.53 648.46,264.53 649.04,263.26 649.04,263.26 649.61,265.54 649.61,265.54 650.18,265.23 650.18,265.23 650.76,277.35 650.76,277.35 651.33,274.76 651.33,274.76 651.91,274.49 651.91,274.49 652.48,269.51 652.48,269.51 653.05,268.78 653.05,268.78 653.63,269.99 653.63,269.99 654.20,269.07 654.20,269.07 654.78,270.85 654.78,270.85 655.35,262.83 655.35,262.83 655.92,259.08 655.92,259.08 656.50,258.21 656.50,258.21 657.07,250.54 657.07,250.54 657.64,235.81 657.64,235.81 658.22,229.05 658.22,229.05 658.79,242.65 658.79,242.65 659.37,248.80 659.37,248.80 659.94,262.16 659.94,262.16 660.51,264.15 660.51,264.15 661.09,265.89 661.09,265.89 661.66,268.02 661.66,268.02 662.24,273.38 662.24,273.38 662.81,271.95 662.81,271.95 663.38,273.75 663.38,273.75 663.96,272.13 663.96,272.13 664.53,274.17 664.53,274.17 665.10,278.03 665.10,278.03 665.68,274.91 665.68,274.91 666.25,273.05 666.25,273.05 666.83,272.16 666.83,272.16 667.40,267.24 667.40,267.24 667.97,269.79 667.97,269.79 668.55,271.61 668.55,271.61 669.12,275.01 669.12,275.01 669.70,274.16 669.70,274.16 670.27,273.70 670.27,273.70 670.84,278.14 670.84,278.14 671.42,267.43 671.42,267.43 671.99,277.80 671.99,277.80 672.57,267.87 672.57,267.87 673.14,244.22 673.14,244.22 673.71,256.89 673.71,256.89 674.29,255.69 674.29,255.69 674.86,261.50 674.86,261.50 675.43,265.03 675.43,265.03 676.01,264.83 676.01,264.83 676.58,272.63 676.58,272.63 677.16,276.20 677.16,276.20 677.73,270.02 677.73,270.02 678.30,269.60 678.30,269.60 678.88,275.90 678.88,275.90 679.45,280.44 679.45,280.44 680.03,268.42 680.03,268.42 680.60,266.25 680.60,266.25 681.17,274.77 681.17,274.77 681.75,269.31 681.75,269.31 682.32,272.19 682.32,272.19 682.89,277.48 682.89,277.48 683.47,260.02 683.47,260.02 684.04,247.32 684.04,247.32 684.62,259.17 684.62,259.17 685.19,270.66 685.19,270.66 685.76,266.90 685.76,266.90 686.34,271.05 686.34,271.05 686.91,262.09 686.91,262.09 687.49,231.79 687.49,231.79 688.06,259.18 688.06,259.18 688.63,265.62 688.63,265.62 689.21,262.58 689.21,262.58 689.78,268.50 689.78,268.50 690.36,272.39 690.36,272.39 690.93,248.01 690.93,248.01 691.50,255.79 691.50,255.79 692.08,260.14 692.08,260.14 692.65,270.94 692.65,270.94 693.22,272.51 693.22,272.51 693.80,270.11 693.80,270.11 694.37,265.98 694.37,265.98 694.95,268.57 694.95,268.57 695.52,239.22 695.52,239.22 696.09,186.53 696.09,186.53 696.67,214.24 696.67,214.24 697.24,263.71 697.24,263.71 697.82,228.37 697.82,228.37 698.39,218.53 698.39,218.53 698.96,234.22 698.96,234.22 699.54,242.11 699.54,242.11 "
       style="stroke:#44aa99;stroke-width:1.07;stroke-linecap:butt"
       id="polyline227" />
    <line
       x1="281.17999"
       y1="287.92001"
       x2="281.17999"
       y2="179.03999"
       style="stroke:#bebebe;stroke-width:1.07;stroke-linecap:butt;stroke-dasharray:1.42, 4.27"
       id="line229" />
    <line
       x1="490.64999"
       y1="287.92001"
       x2="490.64999"
       y2="179.03999"
       style="stroke:#bebebe;stroke-width:1.07;stroke-linecap:butt;stroke-dasharray:1.42, 4.27"
       id="line231" />
    <rect
       x="64.860001"
       y="179.03999"
       width="640.96997"
       height="108.88"
       style="stroke:#333333;stroke-width:1.07"
       id="rect233" />
  </g>
  <text
     xml:space="preserve"
     style="font-style:normal;font-weight:normal;font-size:30px;line-height:1.25;font-family:sans-serif;letter-spacing:0px;word-spacing:0px;fill:#000000;fill-opacity:1;stroke:none;stroke-width:0.75"
     x="-212.07468"
     y="632.32074"
     id="text1400-8"
     transform="rotate(-90)"><tspan
       sodipodi:role="line"
       id="tspan1398-8"
       x="-212.07468"
       y="632.32074"
       style="font-style:normal;font-variant:normal;font-weight:normal;font-stretch:normal;font-size:12px;font-family:sans-serif;-inkscape-font-specification:'sans-serif, Normal';font-variant-ligatures:normal;font-variant-caps:normal;font-variant-numeric:normal;font-feature-settings:normal;text-align:start;writing-mode:lr-tb;text-anchor:start;stroke-width:0.75">WSPD</tspan></text>
  <text
     xml:space="preserve"
     style="font-style:normal;font-weight:normal;font-size:30px;line-height:1.25;font-family:sans-serif;letter-spacing:0px;word-spacing:0px;fill:#000000;fill-opacity:1;stroke:none;stroke-width:0.75"
     x="-209.79755"
     y="423.37769"
     id="text1400-9"
     transform="rotate(-90)"><tspan
       sodipodi:role="line"
       id="tspan1398-7"
       x="-209.79755"
       y="423.37769"
       style="font-style:normal;font-variant:normal;font-weight:normal;font-stretch:normal;font-size:12px;font-family:sans-serif;-inkscape-font-specification:'sans-serif, Normal';font-variant-ligatures:normal;font-variant-caps:normal;font-variant-numeric:normal;font-feature-settings:normal;text-align:start;writing-mode:lr-tb;text-anchor:start;stroke-width:0.75">WSPD</tspan></text>
  <text
     xml:space="preserve"
     style="font-style:normal;font-weight:normal;font-size:30px;line-height:1.25;font-family:sans-serif;letter-spacing:0px;word-spacing:0px;fill:#000000;fill-opacity:1;stroke:none;stroke-width:0.75"
     x="-217.79333"
     y="279.6192"
     id="text1400-8-7"
     transform="rotate(-90)"><tspan
       sodipodi:role="line"
       id="tspan1398-8-6"
       x="-217.79333"
       y="279.6192"
       style="font-style:normal;font-variant:normal;font-weight:normal;font-stretch:normal;font-size:12px;font-family:sans-serif;-inkscape-font-specification:'sans-serif, Normal';font-variant-ligatures:normal;font-variant-caps:normal;font-variant-numeric:normal;font-feature-settings:normal;text-align:start;writing-mode:lr-tb;text-anchor:start;stroke-width:0.75">Xmas</tspan></text>
  <text
     xml:space="preserve"
     style="font-style:normal;font-variant:normal;font-weight:normal;font-stretch:normal;font-size:12px;line-height:1.25;font-family:sans-serif;-inkscape-font-specification:'sans-serif, Normal';font-variant-ligatures:normal;font-variant-caps:normal;font-variant-numeric:normal;font-variant-east-asian:normal;text-align:start;letter-spacing:0px;word-spacing:0px;writing-mode:lr-tb;text-anchor:start;white-space:pre;fill:#000000;fill-opacity:1;stroke:none;stroke-width:0.75"
     x="-208.88055"
     y="481.08948"
     id="text1400-8-7-4"
     transform="rotate(-90)"><tspan
       sodipodi:role="line"
       id="tspan8253"
       x="-208.88055"
       y="481.08948">Xmas</tspan></text>
  <text
     xml:space="preserve"
     style="font-style:normal;font-variant:normal;font-weight:normal;font-stretch:normal;font-size:12px;line-height:1.25;font-family:sans-serif;-inkscape-font-specification:'sans-serif, Normal';font-variant-ligatures:normal;font-variant-caps:normal;font-variant-numeric:normal;font-variant-east-asian:normal;text-align:start;letter-spacing:0px;word-spacing:0px;writing-mode:lr-tb;text-anchor:start;white-space:pre;fill:#000000;fill-opacity:1;stroke:none;stroke-width:0.75"
     x="-194.86031"
     y="502.87762"
     id="text1400-8-7-4-7"
     transform="rotate(-90)"
     inkscape:transform-center-x="22.940036"
     inkscape:transform-center-y="1.3589187"><tspan
       sodipodi:role="line"
       id="tspan8253-6"
       x="-194.86031"
       y="502.87762">NY</tspan></text>
  <text
     xml:space="preserve"
     style="font-style:normal;font-weight:normal;font-size:30px;line-height:1.25;font-family:sans-serif;letter-spacing:0px;word-spacing:0px;fill:#000000;fill-opacity:1;stroke:none;stroke-width:0.75"
     x="-206.36993"
     y="692.4787"
     id="text1400-8-7-4-0"
     transform="rotate(-90)"><tspan
       sodipodi:role="line"
       id="tspan1398-8-6-3-3"
       x="-206.36993"
       y="692.4787"
       style="font-style:normal;font-variant:normal;font-weight:normal;font-stretch:normal;font-size:12px;font-family:sans-serif;-inkscape-font-specification:'sans-serif, Normal';font-variant-ligatures:normal;font-variant-caps:normal;font-variant-numeric:normal;font-feature-settings:normal;text-align:start;writing-mode:lr-tb;text-anchor:start;stroke-width:0.75">Xmas</tspan></text>
  <text
     xml:space="preserve"
     style="font-style:normal;font-variant:normal;font-weight:normal;font-stretch:normal;font-size:12px;line-height:1.25;font-family:sans-serif;-inkscape-font-specification:'sans-serif, Normal';font-variant-ligatures:normal;font-variant-caps:normal;font-variant-numeric:normal;font-feature-settings:normal;text-align:start;letter-spacing:0px;word-spacing:0px;writing-mode:lr-tb;text-anchor:start;fill:#000000;fill-opacity:1;stroke:none;stroke-width:0.75"
     x="-212.11371"
     y="247.49957"
     id="text1400-8-7-0"
     transform="rotate(-90)"><tspan
       sodipodi:role="line"
       id="tspan1511"
       x="-212.11371"
       y="247.49957">Trump </tspan></text>
  <text
     xml:space="preserve"
     style="font-style:normal;font-weight:normal;font-size:30px;line-height:1.25;font-family:sans-serif;letter-spacing:0px;word-spacing:0px;fill:#000000;fill-opacity:1;stroke:none;stroke-width:0.75"
     x="-214.35403"
     y="214.70186"
     id="text1400-2"
     transform="rotate(-90)"><tspan
       sodipodi:role="line"
       id="tspan1398-2"
       x="-214.35403"
       y="214.70186"
       style="font-style:normal;font-variant:normal;font-weight:normal;font-stretch:normal;font-size:12px;font-family:sans-serif;-inkscape-font-specification:'sans-serif, Normal';font-variant-ligatures:normal;font-variant-caps:normal;font-variant-numeric:normal;font-feature-settings:normal;text-align:start;writing-mode:lr-tb;text-anchor:start;stroke-width:0.75">WSPD</tspan></text>
  <g
     clip-path="url(#cpMC4wMHw3MjAuMDB8MC4wMHwzNjAuMDA=)"
     id="g237"
     transform="translate(0,-9.4835129)" />
  <defs
     id="defs242">
    <clipPath
       id="cpNjQuODZ8NzA1LjgzfDE1My43OXwxNzkuMDQ=">
      <rect
         x="64.860001"
         y="153.78999"
         width="640.96997"
         height="25.26"
         id="rect239" />
    </clipPath>
  </defs>
  <g
     clip-path="url(#cpNjQuODZ8NzA1LjgzfDE1My43OXwxNzkuMDQ=)"
     id="g248"
     transform="translate(0,-9.4835129)">
    <rect
       x="64.860001"
       y="153.78999"
       width="640.96997"
       height="25.26"
       style="fill:#d9d9d9;stroke:#333333;stroke-width:1.07"
       id="rect244" />
    <text
       x="385.34"
       y="172.83"
       text-anchor="middle"
       style="font-size:17.6px;font-family:'Liberation Sans';fill:#1a1a1a"
       textLength="94.080002"
       lengthAdjust="spacingAndGlyphs"
       id="text246">Prevention</text>
  </g>
  <g
     clip-path="url(#cpMC4wMHw3MjAuMDB8MC4wMHwzNjAuMDA=)"
     id="g250"
     transform="translate(0,-9.4835129)" />
  <defs
     id="defs255">
    <clipPath
       id="cpNjQuODZ8NzA1LjgzfDE0LjE3fDM5LjQz">
      <rect
         x="64.860001"
         y="14.17"
         width="640.96997"
         height="25.26"
         id="rect252" />
    </clipPath>
  </defs>
  <g
     clip-path="url(#cpNjQuODZ8NzA1LjgzfDE0LjE3fDM5LjQz)"
     id="g261"
     transform="translate(0,-9.4835129)">
    <rect
       x="64.860001"
       y="14.17"
       width="640.96997"
       height="25.26"
       style="fill:#d9d9d9;stroke:#333333;stroke-width:1.07"
       id="rect257" />
    <text
       x="385.34"
       y="33.220001"
       text-anchor="middle"
       style="font-size:17.6px;font-family:'Liberation Sans';fill:#1a1a1a"
       textLength="61.43"
       lengthAdjust="spacingAndGlyphs"
       id="text259">Coping</text>
  </g>
  <g
     clip-path="url(#cpMC4wMHw3MjAuMDB8MC4wMHwzNjAuMDA=)"
     id="g357"
     transform="translate(0,-9.4835129)">
    <polyline
       points="71.15,290.66 71.15,287.92 "
       style="stroke:#333333;stroke-width:1.07;stroke-linecap:butt"
       id="polyline263" />
    <polyline
       points="123.37,290.66 123.37,287.92 "
       style="stroke:#333333;stroke-width:1.07;stroke-linecap:butt"
       id="polyline265" />
    <polyline
       points="175.59,290.66 175.59,287.92 "
       style="stroke:#333333;stroke-width:1.07;stroke-linecap:butt"
       id="polyline267" />
    <polyline
       points="228.39,290.66 228.39,287.92 "
       style="stroke:#333333;stroke-width:1.07;stroke-linecap:butt"
       id="polyline269" />
    <polyline
       points="281.18,290.66 281.18,287.92 "
       style="stroke:#333333;stroke-width:1.07;stroke-linecap:butt"
       id="polyline271" />
    <polyline
       points="332.83,290.66 332.83,287.92 "
       style="stroke:#333333;stroke-width:1.07;stroke-linecap:butt"
       id="polyline273" />
    <polyline
       points="385.06,290.66 385.06,287.92 "
       style="stroke:#333333;stroke-width:1.07;stroke-linecap:butt"
       id="polyline275" />
    <polyline
       points="437.85,290.66 437.85,287.92 "
       style="stroke:#333333;stroke-width:1.07;stroke-linecap:butt"
       id="polyline277" />
    <polyline
       points="490.65,290.66 490.65,287.92 "
       style="stroke:#333333;stroke-width:1.07;stroke-linecap:butt"
       id="polyline279" />
    <polyline
       points="542.30,290.66 542.30,287.92 "
       style="stroke:#333333;stroke-width:1.07;stroke-linecap:butt"
       id="polyline281" />
    <polyline
       points="594.52,290.66 594.52,287.92 "
       style="stroke:#333333;stroke-width:1.07;stroke-linecap:butt"
       id="polyline283" />
    <polyline
       points="647.31,290.66 647.31,287.92 "
       style="stroke:#333333;stroke-width:1.07;stroke-linecap:butt"
       id="polyline285" />
    <polyline
       points="700.11,290.66 700.11,287.92 "
       style="stroke:#333333;stroke-width:1.07;stroke-linecap:butt"
       id="polyline287" />
    <text
       transform="rotate(-45,404.57175,54.130894)"
       text-anchor="end"
       style="font-size:17.6px;font-family:'Liberation Sans';fill:#4d4d4d"
       textLength="55.119999"
       lengthAdjust="spacingAndGlyphs"
       id="text289">Jan 16</text>
    <text
       transform="rotate(-45,430.68175,-8.9042221)"
       text-anchor="end"
       style="font-size:17.6px;font-family:'Liberation Sans';fill:#4d4d4d"
       textLength="58.43"
       lengthAdjust="spacingAndGlyphs"
       id="text291">Apr 16</text>
    <text
       transform="rotate(-45,456.79175,-71.939338)"
       text-anchor="end"
       style="font-size:17.6px;font-family:'Liberation Sans';fill:#4d4d4d"
       textLength="49.220001"
       lengthAdjust="spacingAndGlyphs"
       id="text293">Jul 16</text>
    <text
       transform="rotate(-45,483.19175,-135.67458)"
       text-anchor="end"
       style="font-size:17.6px;font-family:'Liberation Sans';fill:#4d4d4d"
       textLength="58.41"
       lengthAdjust="spacingAndGlyphs"
       id="text295">Oct 16</text>
    <text
       transform="rotate(-45,509.59175,-199.40981)"
       text-anchor="end"
       style="font-size:17.6px;font-family:'Liberation Sans';fill:#4d4d4d"
       textLength="55.119999"
       lengthAdjust="spacingAndGlyphs"
       id="text297">Jan 17</text>
    <text
       transform="rotate(-45,535.41675,-261.75688)"
       text-anchor="end"
       style="font-size:17.6px;font-family:'Liberation Sans';fill:#4d4d4d"
       textLength="58.43"
       lengthAdjust="spacingAndGlyphs"
       id="text299">Apr 17</text>
    <text
       transform="rotate(-45,561.52675,-324.792)"
       text-anchor="end"
       style="font-size:17.6px;font-family:'Liberation Sans';fill:#4d4d4d"
       textLength="49.220001"
       lengthAdjust="spacingAndGlyphs"
       id="text301">Jul 17</text>
    <text
       transform="rotate(-45,587.92175,-388.51516)"
       text-anchor="end"
       style="font-size:17.6px;font-family:'Liberation Sans';fill:#4d4d4d"
       textLength="58.41"
       lengthAdjust="spacingAndGlyphs"
       id="text303">Oct 17</text>
    <text
       transform="rotate(-45,614.32175,-452.2504)"
       text-anchor="end"
       style="font-size:17.6px;font-family:'Liberation Sans';fill:#4d4d4d"
       textLength="55.119999"
       lengthAdjust="spacingAndGlyphs"
       id="text305">Jan 18</text>
    <text
       transform="rotate(-45,640.14675,-514.59747)"
       text-anchor="end"
       style="font-size:17.6px;font-family:'Liberation Sans';fill:#4d4d4d"
       textLength="58.43"
       lengthAdjust="spacingAndGlyphs"
       id="text307">Apr 18</text>
    <text
       transform="rotate(-45,666.25675,-577.63258)"
       text-anchor="end"
       style="font-size:17.6px;font-family:'Liberation Sans';fill:#4d4d4d"
       textLength="49.220001"
       lengthAdjust="spacingAndGlyphs"
       id="text309">Jul 18</text>
    <text
       transform="rotate(-45,692.65675,-641.36782)"
       text-anchor="end"
       style="font-size:17.6px;font-family:'Liberation Sans';fill:#4d4d4d"
       textLength="58.41"
       lengthAdjust="spacingAndGlyphs"
       id="text311">Oct 18</text>
    <text
       transform="rotate(-45,719.05175,-705.09099)"
       text-anchor="end"
       style="font-size:17.6px;font-family:'Liberation Sans';fill:#4d4d4d"
       textLength="55.119999"
       lengthAdjust="spacingAndGlyphs"
       id="text313">Jan 19</text>
    <text
       x="59.93"
       y="149.85001"
       text-anchor="end"
       style="font-size:17.6px;font-family:'Liberation Sans';fill:#4d4d4d"
       textLength="11.2"
       lengthAdjust="spacingAndGlyphs"
       id="text315">0</text>
    <text
       x="59.93"
       y="125.12"
       text-anchor="end"
       style="font-size:17.6px;font-family:'Liberation Sans';fill:#4d4d4d"
       textLength="22.389999"
       lengthAdjust="spacingAndGlyphs"
       id="text317">20</text>
    <text
       x="59.93"
       y="100.38"
       text-anchor="end"
       style="font-size:17.6px;font-family:'Liberation Sans';fill:#4d4d4d"
       textLength="22.389999"
       lengthAdjust="spacingAndGlyphs"
       id="text319">40</text>
    <text
       x="59.93"
       y="75.650002"
       text-anchor="end"
       style="font-size:17.6px;font-family:'Liberation Sans';fill:#4d4d4d"
       textLength="22.389999"
       lengthAdjust="spacingAndGlyphs"
       id="text321">60</text>
    <text
       x="59.93"
       y="50.919998"
       text-anchor="end"
       style="font-size:17.6px;font-family:'Liberation Sans';fill:#4d4d4d"
       textLength="22.389999"
       lengthAdjust="spacingAndGlyphs"
       id="text323">80</text>
    <polyline
       points="62.12,143.43 64.86,143.43 "
       style="stroke:#333333;stroke-width:1.07;stroke-linecap:butt"
       id="polyline325" />
    <polyline
       points="62.12,118.70 64.86,118.70 "
       style="stroke:#333333;stroke-width:1.07;stroke-linecap:butt"
       id="polyline327" />
    <polyline
       points="62.12,93.97 64.86,93.97 "
       style="stroke:#333333;stroke-width:1.07;stroke-linecap:butt"
       id="polyline329" />
    <polyline
       points="62.12,69.23 64.86,69.23 "
       style="stroke:#333333;stroke-width:1.07;stroke-linecap:butt"
       id="polyline331" />
    <polyline
       points="62.12,44.50 64.86,44.50 "
       style="stroke:#333333;stroke-width:1.07;stroke-linecap:butt"
       id="polyline333" />
    <text
       x="59.93"
       y="289.45999"
       text-anchor="end"
       style="font-size:17.6px;font-family:'Liberation Sans';fill:#4d4d4d"
       textLength="11.2"
       lengthAdjust="spacingAndGlyphs"
       id="text335">0</text>
    <text
       x="59.93"
       y="264.73001"
       text-anchor="end"
       style="font-size:17.6px;font-family:'Liberation Sans';fill:#4d4d4d"
       textLength="22.389999"
       lengthAdjust="spacingAndGlyphs"
       id="text337">20</text>
    <text
       x="59.93"
       y="240"
       text-anchor="end"
       style="font-size:17.6px;font-family:'Liberation Sans';fill:#4d4d4d"
       textLength="22.389999"
       lengthAdjust="spacingAndGlyphs"
       id="text339">40</text>
    <text
       x="59.93"
       y="215.25999"
       text-anchor="end"
       style="font-size:17.6px;font-family:'Liberation Sans';fill:#4d4d4d"
       textLength="22.389999"
       lengthAdjust="spacingAndGlyphs"
       id="text341">60</text>
    <text
       x="59.93"
       y="190.53"
       text-anchor="end"
       style="font-size:17.6px;font-family:'Liberation Sans';fill:#4d4d4d"
       textLength="22.389999"
       lengthAdjust="spacingAndGlyphs"
       id="text343">80</text>
    <polyline
       points="62.12,283.05 64.86,283.05 "
       style="stroke:#333333;stroke-width:1.07;stroke-linecap:butt"
       id="polyline345" />
    <polyline
       points="62.12,258.31 64.86,258.31 "
       style="stroke:#333333;stroke-width:1.07;stroke-linecap:butt"
       id="polyline347" />
    <polyline
       points="62.12,233.58 64.86,233.58 "
       style="stroke:#333333;stroke-width:1.07;stroke-linecap:butt"
       id="polyline349" />
    <polyline
       points="62.12,208.85 64.86,208.85 "
       style="stroke:#333333;stroke-width:1.07;stroke-linecap:butt"
       id="polyline351" />
    <polyline
       points="62.12,184.12 64.86,184.12 "
       style="stroke:#333333;stroke-width:1.07;stroke-linecap:butt"
       id="polyline353" />
    <text
       transform="rotate(-90,96.945,66.735)"
       text-anchor="middle"
       style="font-size:22px;font-family:'Liberation Sans'"
       textLength="230.56"
       lengthAdjust="spacingAndGlyphs"
       id="text355">Percent per category</text>
  </g>
  <text
     xml:space="preserve"
     style="font-style:normal;font-variant:normal;font-weight:normal;font-stretch:normal;font-size:12px;line-height:1.25;font-family:sans-serif;-inkscape-font-specification:'sans-serif, Normal';font-variant-ligatures:normal;font-variant-caps:normal;font-variant-numeric:normal;font-feature-settings:normal;text-align:start;letter-spacing:0px;word-spacing:0px;writing-mode:lr-tb;text-anchor:start;fill:#000000;fill-opacity:1;stroke:none;stroke-width:0.75"
     x="-96.994858"
     y="466.10498"
     id="text1400-81-6"
     transform="rotate(-90)"
     inkscape:transform-center-x="85.068541"
     inkscape:transform-center-y="22.435659"><tspan
       sodipodi:role="line"
       id="tspan1866"
       x="-96.994858"
       y="466.10498">Finding</tspan><tspan
       sodipodi:role="line"
       id="tspan1868"
       x="-96.994858"
       y="481.10498">strength</tspan></text>
  <text
     xml:space="preserve"
     style="font-style:normal;font-variant:normal;font-weight:normal;font-stretch:normal;font-size:12px;line-height:1.25;font-family:sans-serif;-inkscape-font-specification:'sans-serif, Normal';font-variant-ligatures:normal;font-variant-caps:normal;font-variant-numeric:normal;font-feature-settings:normal;text-align:start;letter-spacing:0px;word-spacing:0px;writing-mode:lr-tb;text-anchor:start;fill:#000000;fill-opacity:1;stroke:none;stroke-width:0.75"
     x="-86.065048"
     y="623.5769"
     id="text1400-81-6-0"
     transform="rotate(-90)"
     inkscape:transform-center-x="85.068541"
     inkscape:transform-center-y="22.435659"><tspan
       sodipodi:role="line"
       id="tspan5846"
       x="-86.065048"
       y="623.5769">Survived</tspan><tspan
       sodipodi:role="line"
       id="tspan5848"
       x="-86.065048"
       y="638.5769">attempt</tspan></text>
</svg>
