<svg version="1.1" viewBox="0.0 0.0 1017.0 261.0" fill="none" stroke="none" stroke-linecap="square" stroke-miterlimit="10" width="1017" height="261" xmlns:xlink="http://www.w3.org/1999/xlink" xmlns="http://www.w3.org/2000/svg"><path fill="#ffffff" d="M0 0L1017.0 0L1017.0 261.0L0 261.0L0 0Z" fill-rule="nonzero"/><path stroke="#333333" stroke-width="1.0" stroke-linecap="butt" d="M88.5 217.5L894.5 217.5" fill-rule="nonzero"/><path stroke="#cccccc" stroke-width="1.0" stroke-linecap="butt" d="M88.5 195.5L894.5 195.5" fill-rule="nonzero"/><path stroke="#cccccc" stroke-width="1.0" stroke-linecap="butt" d="M88.5 173.5L894.5 173.5" fill-rule="nonzero"/><path stroke="#cccccc" stroke-width="1.0" stroke-linecap="butt" d="M88.5 151.5L894.5 151.5" fill-rule="nonzero"/><path stroke="#cccccc" stroke-width="1.0" stroke-linecap="butt" d="M88.5 129.5L894.5 129.5" fill-rule="nonzero"/><path stroke="#cccccc" stroke-width="1.0" stroke-linecap="butt" d="M88.5 108.5L894.5 108.5" fill-rule="nonzero"/><path stroke="#cccccc" stroke-width="1.0" stroke-linecap="butt" d="M88.5 86.5L894.5 86.5" fill-rule="nonzero"/><path stroke="#cccccc" stroke-width="1.0" stroke-linecap="butt" d="M88.5 64.5L894.5 64.5" fill-rule="nonzero"/><path stroke="#cccccc" stroke-width="1.0" stroke-linecap="butt" d="M88.5 42.5L894.5 42.5" fill-rule="nonzero"/><path stroke="#cccccc" stroke-width="1.0" stroke-linecap="butt" d="M88.5 20.5L894.5 20.5" fill-rule="nonzero"/><clipPath id="id_0"><path d="M88.05 20.05L894.29 20.05L894.29 217.95L88.05 217.95L88.05 20.05Z" clip-rule="nonzero"/></clipPath><path stroke="#000000" stroke-width="2.0" stroke-linecap="butt" stroke-opacity="0.0" clip-path="url(#id_0)" d="M152.0 218.0L133.0 218.0L133.0 53.0C133.0 51.89543 133.89543 51.0 135.0 51.0L150.0 51.0C151.10457 51.0 152.0 51.89543 152.0 53.0Z" fill-rule="nonzero"/><path fill="#351c75" clip-path="url(#id_0)" d="M152.0 218.0L133.0 218.0L133.0 53.0C133.0 51.89543 133.89543 51.0 135.0 51.0L150.0 51.0C151.10457 51.0 152.0 51.89543 152.0 53.0Z" fill-rule="nonzero"/><path stroke="#000000" stroke-width="2.0" stroke-linecap="butt" stroke-opacity="0.0" clip-path="url(#id_0)" d="M279.0 218.0L260.0 218.0L260.0 92.0C260.0 90.89543 260.89542 90.0 262.0 90.0L277.0 90.0C278.10458 90.0 279.0 90.89543 279.0 92.0Z" fill-rule="nonzero"/><path fill="#351c75" clip-path="url(#id_0)" d="M279.0 218.0L260.0 218.0L260.0 92.0C260.0 90.89543 260.89542 90.0 262.0 90.0L277.0 90.0C278.10458 90.0 279.0 90.89543 279.0 92.0Z" fill-rule="nonzero"/><path stroke="#000000" stroke-width="2.0" stroke-linecap="butt" stroke-opacity="0.0" clip-path="url(#id_0)" d="M406.0 218.0L387.0 218.0L387.0 42.0C387.0 40.89543 387.89542 40.0 389.0 40.0L404.0 40.0C405.10458 40.0 406.0 40.89543 406.0 42.0Z" fill-rule="nonzero"/><path fill="#351c75" clip-path="url(#id_0)" d="M406.0 218.0L387.0 218.0L387.0 42.0C387.0 40.89543 387.89542 40.0 389.0 40.0L404.0 40.0C405.10458 40.0 406.0 40.89543 406.0 42.0Z" fill-rule="nonzero"/><path stroke="#000000" stroke-width="2.0" stroke-linecap="butt" stroke-opacity="0.0" clip-path="url(#id_0)" d="M533.0 218.0L514.0 218.0L514.0 64.0C514.0 62.89543 514.89545 62.0 516.0 62.0L531.0 62.0C532.10455 62.0 533.0 62.89543 533.0 64.0Z" fill-rule="nonzero"/><path fill="#351c75" clip-path="url(#id_0)" d="M533.0 218.0L514.0 218.0L514.0 64.0C514.0 62.89543 514.89545 62.0 516.0 62.0L531.0 62.0C532.10455 62.0 533.0 62.89543 533.0 64.0Z" fill-rule="nonzero"/><path stroke="#000000" stroke-width="2.0" stroke-linecap="butt" stroke-opacity="0.0" clip-path="url(#id_0)" d="M660.0 218.0L641.0 218.0L641.0 55.0C641.0 53.89543 641.89545 53.0 643.0 53.0L658.0 53.0C659.10455 53.0 660.0 53.89543 660.0 55.0Z" fill-rule="nonzero"/><path fill="#351c75" clip-path="url(#id_0)" d="M660.0 218.0L641.0 218.0L641.0 55.0C641.0 53.89543 641.89545 53.0 643.0 53.0L658.0 53.0C659.10455 53.0 660.0 53.89543 660.0 55.0Z" fill-rule="nonzero"/><path stroke="#000000" stroke-width="2.0" stroke-linecap="butt" stroke-opacity="0.0" clip-path="url(#id_0)" d="M787.0 218.0L768.0 218.0L768.0 79.0C768.0 77.89543 768.89545 77.0 770.0 77.0L785.0 77.0C786.10455 77.0 787.0 77.89543 787.0 79.0Z" fill-rule="nonzero"/><path fill="#351c75" clip-path="url(#id_0)" d="M787.0 218.0L768.0 218.0L768.0 79.0C768.0 77.89543 768.89545 77.0 770.0 77.0L785.0 77.0C786.10455 77.0 787.0 77.89543 787.0 79.0Z" fill-rule="nonzero"/><path stroke="#000000" stroke-width="2.0" stroke-linecap="butt" stroke-opacity="0.0" clip-path="url(#id_0)" d="M173.0 218.0L154.0 218.0L154.0 68.0C154.0 66.89543 154.89543 66.0 156.0 66.0L171.0 66.0C172.10457 66.0 173.0 66.89543 173.0 68.0Z" fill-rule="nonzero"/><path fill="#4285f4" clip-path="url(#id_0)" d="M173.0 218.0L154.0 218.0L154.0 68.0C154.0 66.89543 154.89543 66.0 156.0 66.0L171.0 66.0C172.10457 66.0 173.0 66.89543 173.0 68.0Z" fill-rule="nonzero"/><path stroke="#000000" stroke-width="2.0" stroke-linecap="butt" stroke-opacity="0.0" clip-path="url(#id_0)" d="M300.0 218.0L281.0 218.0L281.0 121.0C281.0 119.89543 281.89542 119.0 283.0 119.0L298.0 119.0C299.10458 119.0 300.0 119.89543 300.0 121.0Z" fill-rule="nonzero"/><path fill="#4285f4" clip-path="url(#id_0)" d="M300.0 218.0L281.0 218.0L281.0 121.0C281.0 119.89543 281.89542 119.0 283.0 119.0L298.0 119.0C299.10458 119.0 300.0 119.89543 300.0 121.0Z" fill-rule="nonzero"/><path stroke="#000000" stroke-width="2.0" stroke-linecap="butt" stroke-opacity="0.0" clip-path="url(#id_0)" d="M427.0 218.0L408.0 218.0L408.0 24.0C408.0 22.89543 408.89542 22.0 410.0 22.0L425.0 22.0C426.10458 22.0 427.0 22.89543 427.0 24.0Z" fill-rule="nonzero"/><path fill="#4285f4" clip-path="url(#id_0)" d="M427.0 218.0L408.0 218.0L408.0 24.0C408.0 22.89543 408.89542 22.0 410.0 22.0L425.0 22.0C426.10458 22.0 427.0 22.89543 427.0 24.0Z" fill-rule="nonzero"/><path stroke="#000000" stroke-width="2.0" stroke-linecap="butt" stroke-opacity="0.0" clip-path="url(#id_0)" d="M554.0 218.0L535.0 218.0L535.0 66.0C535.0 64.89543 535.89545 64.0 537.0 64.0L552.0 64.0C553.10455 64.0 554.0 64.89543 554.0 66.0Z" fill-rule="nonzero"/><path fill="#4285f4" clip-path="url(#id_0)" d="M554.0 218.0L535.0 218.0L535.0 66.0C535.0 64.89543 535.89545 64.0 537.0 64.0L552.0 64.0C553.10455 64.0 554.0 64.89543 554.0 66.0Z" fill-rule="nonzero"/><path stroke="#000000" stroke-width="2.0" stroke-linecap="butt" stroke-opacity="0.0" clip-path="url(#id_0)" d="M681.0 218.0L662.0 218.0L662.0 51.0C662.0 49.89543 662.89545 49.0 664.0 49.0L679.0 49.0C680.10455 49.0 681.0 49.89543 681.0 51.0Z" fill-rule="nonzero"/><path fill="#4285f4" clip-path="url(#id_0)" d="M681.0 218.0L662.0 218.0L662.0 51.0C662.0 49.89543 662.89545 49.0 664.0 49.0L679.0 49.0C680.10455 49.0 681.0 49.89543 681.0 51.0Z" fill-rule="nonzero"/><path stroke="#000000" stroke-width="2.0" stroke-linecap="butt" stroke-opacity="0.0" clip-path="url(#id_0)" d="M808.0 218.0L789.0 218.0L789.0 77.0C789.0 75.89543 789.89545 75.0 791.0 75.0L806.0 75.0C807.10455 75.0 808.0 75.89543 808.0 77.0Z" fill-rule="nonzero"/><path fill="#4285f4" clip-path="url(#id_0)" d="M808.0 218.0L789.0 218.0L789.0 77.0C789.0 75.89543 789.89545 75.0 791.0 75.0L806.0 75.0C807.10455 75.0 808.0 75.89543 808.0 77.0Z" fill-rule="nonzero"/><path stroke="#000000" stroke-width="2.0" stroke-linecap="butt" stroke-opacity="0.0" clip-path="url(#id_0)" d="M194.0 218.0L175.0 218.0L175.0 62.0C175.0 60.89543 175.89543 60.0 177.0 60.0L192.0 60.0C193.10457 60.0 194.0 60.89543 194.0 62.0Z" fill-rule="nonzero"/><path fill="#46bdc6" clip-path="url(#id_0)" d="M194.0 218.0L175.0 218.0L175.0 62.0C175.0 60.89543 175.89543 60.0 177.0 60.0L192.0 60.0C193.10457 60.0 194.0 60.89543 194.0 62.0Z" fill-rule="nonzero"/><path stroke="#000000" stroke-width="2.0" stroke-linecap="butt" stroke-opacity="0.0" clip-path="url(#id_0)" d="M321.0 218.0L302.0 218.0L302.0 108.0C302.0 106.89543 302.89542 106.0 304.0 106.0L319.0 106.0C320.10458 106.0 321.0 106.89543 321.0 108.0Z" fill-rule="nonzero"/><path fill="#46bdc6" clip-path="url(#id_0)" d="M321.0 218.0L302.0 218.0L302.0 108.0C302.0 106.89543 302.89542 106.0 304.0 106.0L319.0 106.0C320.10458 106.0 321.0 106.89543 321.0 108.0Z" fill-rule="nonzero"/><path stroke="#000000" stroke-width="2.0" stroke-linecap="butt" stroke-opacity="0.0" clip-path="url(#id_0)" d="M448.0 218.0L429.0 218.0L429.0 33.0C429.0 31.89543 429.89542 31.0 431.0 31.0L446.0 31.0C447.10458 31.0 448.0 31.89543 448.0 33.0Z" fill-rule="nonzero"/><path fill="#46bdc6" clip-path="url(#id_0)" d="M448.0 218.0L429.0 218.0L429.0 33.0C429.0 31.89543 429.89542 31.0 431.0 31.0L446.0 31.0C447.10458 31.0 448.0 31.89543 448.0 33.0Z" fill-rule="nonzero"/><path stroke="#000000" stroke-width="2.0" stroke-linecap="butt" stroke-opacity="0.0" clip-path="url(#id_0)" d="M575.0 218.0L556.0 218.0L556.0 66.0C556.0 64.89543 556.89545 64.0 558.0 64.0L573.0 64.0C574.10455 64.0 575.0 64.89543 575.0 66.0Z" fill-rule="nonzero"/><path fill="#46bdc6" clip-path="url(#id_0)" d="M575.0 218.0L556.0 218.0L556.0 66.0C556.0 64.89543 556.89545 64.0 558.0 64.0L573.0 64.0C574.10455 64.0 575.0 64.89543 575.0 66.0Z" fill-rule="nonzero"/><path stroke="#000000" stroke-width="2.0" stroke-linecap="butt" stroke-opacity="0.0" clip-path="url(#id_0)" d="M702.0 218.0L683.0 218.0L683.0 53.0C683.0 51.89543 683.89545 51.0 685.0 51.0L700.0 51.0C701.10455 51.0 702.0 51.89543 702.0 53.0Z" fill-rule="nonzero"/><path fill="#46bdc6" clip-path="url(#id_0)" d="M702.0 218.0L683.0 218.0L683.0 53.0C683.0 51.89543 683.89545 51.0 685.0 51.0L700.0 51.0C701.10455 51.0 702.0 51.89543 702.0 53.0Z" fill-rule="nonzero"/><path stroke="#000000" stroke-width="2.0" stroke-linecap="butt" stroke-opacity="0.0" clip-path="url(#id_0)" d="M829.0 218.0L810.0 218.0L810.0 108.0C810.0 106.89543 810.89545 106.0 812.0 106.0L827.0 106.0C828.10455 106.0 829.0 106.89543 829.0 108.0Z" fill-rule="nonzero"/><path fill="#46bdc6" clip-path="url(#id_0)" d="M829.0 218.0L810.0 218.0L810.0 108.0C810.0 106.89543 810.89545 106.0 812.0 106.0L827.0 106.0C828.10455 106.0 829.0 106.89543 829.0 108.0Z" fill-rule="nonzero"/><path stroke="#000000" stroke-width="2.0" stroke-linecap="butt" stroke-opacity="0.0" clip-path="url(#id_0)" d="M215.0 218.0L196.0 218.0L196.0 51.0C196.0 49.89543 196.89543 49.0 198.0 49.0L213.0 49.0C214.10457 49.0 215.0 49.89543 215.0 51.0Z" fill-rule="nonzero"/><path fill="#38761d" clip-path="url(#id_0)" d="M215.0 218.0L196.0 218.0L196.0 51.0C196.0 49.89543 196.89543 49.0 198.0 49.0L213.0 49.0C214.10457 49.0 215.0 49.89543 215.0 51.0Z" fill-rule="nonzero"/><path stroke="#000000" stroke-width="2.0" stroke-linecap="butt" stroke-opacity="0.0" clip-path="url(#id_0)" d="M342.0 218.0L323.0 218.0L323.0 92.0C323.0 90.89543 323.89542 90.0 325.0 90.0L340.0 90.0C341.10458 90.0 342.0 90.89543 342.0 92.0Z" fill-rule="nonzero"/><path fill="#38761d" clip-path="url(#id_0)" d="M342.0 218.0L323.0 218.0L323.0 92.0C323.0 90.89543 323.89542 90.0 325.0 90.0L340.0 90.0C341.10458 90.0 342.0 90.89543 342.0 92.0Z" fill-rule="nonzero"/><path stroke="#000000" stroke-width="2.0" stroke-linecap="butt" stroke-opacity="0.0" clip-path="url(#id_0)" d="M469.0 218.0L450.0 218.0L450.0 42.0C450.0 40.89543 450.89542 40.0 452.0 40.0L467.0 40.0C468.10458 40.0 469.0 40.89543 469.0 42.0Z" fill-rule="nonzero"/><path fill="#38761d" clip-path="url(#id_0)" d="M469.0 218.0L450.0 218.0L450.0 42.0C450.0 40.89543 450.89542 40.0 452.0 40.0L467.0 40.0C468.10458 40.0 469.0 40.89543 469.0 42.0Z" fill-rule="nonzero"/><path stroke="#000000" stroke-width="2.0" stroke-linecap="butt" stroke-opacity="0.0" clip-path="url(#id_0)" d="M596.0 218.0L577.0 218.0L577.0 79.0C577.0 77.89543 577.89545 77.0 579.0 77.0L594.0 77.0C595.10455 77.0 596.0 77.89543 596.0 79.0Z" fill-rule="nonzero"/><path fill="#38761d" clip-path="url(#id_0)" d="M596.0 218.0L577.0 218.0L577.0 79.0C577.0 77.89543 577.89545 77.0 579.0 77.0L594.0 77.0C595.10455 77.0 596.0 77.89543 596.0 79.0Z" fill-rule="nonzero"/><path stroke="#000000" stroke-width="2.0" stroke-linecap="butt" stroke-opacity="0.0" clip-path="url(#id_0)" d="M723.0 218.0L704.0 218.0L704.0 64.0C704.0 62.89543 704.89545 62.0 706.0 62.0L721.0 62.0C722.10455 62.0 723.0 62.89543 723.0 64.0Z" fill-rule="nonzero"/><path fill="#38761d" clip-path="url(#id_0)" d="M723.0 218.0L704.0 218.0L704.0 64.0C704.0 62.89543 704.89545 62.0 706.0 62.0L721.0 62.0C722.10455 62.0 723.0 62.89543 723.0 64.0Z" fill-rule="nonzero"/><path stroke="#000000" stroke-width="2.0" stroke-linecap="butt" stroke-opacity="0.0" clip-path="url(#id_0)" d="M850.0 218.0L831.0 218.0L831.0 55.0C831.0 53.89543 831.89545 53.0 833.0 53.0L848.0 53.0C849.10455 53.0 850.0 53.89543 850.0 55.0Z" fill-rule="nonzero"/><path fill="#38761d" clip-path="url(#id_0)" d="M850.0 218.0L831.0 218.0L831.0 55.0C831.0 53.89543 831.89545 53.0 833.0 53.0L848.0 53.0C849.10455 53.0 850.0 53.89543 850.0 55.0Z" fill-rule="nonzero"/><path fill="#000000" d="M30.050013 206.1875L17.159388 206.1875L17.159388 201.34375Q17.159388 199.875 17.550013 198.98438Q17.940638 198.09375 18.753138 197.59375Q19.565638 197.07812 20.456263 197.07812Q21.284388 197.07812 22.018763 197.53125Q22.753138 197.96875 23.190638 198.875Q23.534388 197.70312 24.362513 197.07812Q25.190638 196.45312 26.315638 196.45312Q27.221888 196.45312 28.003138 196.84375Q28.768763 197.21875 29.190638 197.78125Q29.612513 198.34375 29.831263 199.1875Q30.050013 200.03125 30.050013 201.26562L30.050013 206.1875ZM22.581263 204.46875L22.581263 201.6875Q22.581263 200.5625 22.425013 200.0625Q22.237513 199.40625 21.800013 199.07812Q21.346888 198.75 20.659388 198.75Q20.018763 198.75 19.534388 199.0625Q19.050013 199.375 18.878138 199.95312Q18.690638 200.51562 18.690638 201.90625L18.690638 204.46875L22.581263 204.46875ZM28.534388 204.46875L28.534388 201.26562Q28.534388 200.4375 28.471888 200.10938Q28.362513 199.51562 28.112513 199.125Q27.862513 198.73438 27.393763 198.48438Q26.925013 198.21875 26.315638 198.21875Q25.596888 198.21875 25.065638 198.59375Q24.534388 198.95312 24.315638 199.60938Q24.096888 200.26562 24.096888 201.5L24.096888 204.46875L28.534388 204.46875ZM30.050013 194.07812L17.159388 194.07812L17.159388 184.76562L18.690638 184.76562L18.690638 192.375L22.628138 192.375L22.628138 185.25L24.143763 185.25L24.143763 192.375L28.534388 192.375L28.534388 184.45312L30.050013 184.45312L30.050013 194.07812ZM30.050013 182.07812L17.159388 182.07812L17.159388 176.375Q17.159388 174.65625 17.518763 173.76562Q17.862513 172.85938 18.737513 172.32812Q19.612513 171.78125 20.675013 171.78125Q22.050013 171.78125 22.987513 172.67188Q23.925013 173.5625 24.190638 175.40625Q24.518763 174.73438 24.831263 174.39062Q25.518763 173.64062 26.550013 172.96875L30.050013 170.73438L30.050013 172.875L27.362513 174.57812Q26.206263 175.32812 25.596888 175.8125Q24.971888 176.29688 24.737513 176.6875Q24.487513 177.0625 24.393763 177.45312Q24.331263 177.75 24.331263 178.40625L24.331263 180.375L30.050013 180.375L30.050013 182.07812ZM22.846888 180.375L22.846888 176.71875Q22.846888 175.54688 22.612513 174.89062Q22.362513 174.23438 21.831263 173.89062Q21.300013 173.54688 20.675013 173.54688Q19.768763 173.54688 19.175013 174.21875Q18.581263 174.875 18.581263 176.29688L18.581263 180.375L22.846888 180.375ZM30.050013 165.82812L18.690638 165.82812L18.690638 170.07812L17.159388 170.07812L17.159388 159.85938L18.690638 159.85938L18.690638 164.125L30.050013 164.125L30.050013 165.82812ZM33.628136 152.3125L20.721888 152.3125L20.721888 150.875L21.925013 150.875Q21.221888 150.35938 20.862513 149.71875Q20.503138 149.07812 20.503138 148.17188Q20.503138 146.96875 21.128138 146.0625Q21.737513 145.14062 22.862513 144.67188Q23.971888 144.20312 25.315638 144.20312Q26.737513 144.20312 27.893763 144.71875Q29.034388 145.23438 29.659388 146.21875Q30.268763 147.20312 30.268763 148.28125Q30.268763 149.0625 29.940638 149.70312Q29.596888 150.32812 29.081263 150.73438L33.628136 150.73438L33.628136 152.3125ZM25.440638 150.875Q27.237513 150.875 28.096888 150.15625Q28.956263 149.42188 28.956263 148.39062Q28.956263 147.32812 28.065638 146.57812Q27.175013 145.82812 25.300013 145.82812Q23.518763 145.82812 22.628138 146.5625Q21.737513 147.29688 21.737513 148.3125Q21.737513 149.32812 22.690638 150.10938Q23.628138 150.875 25.440638 150.875ZM27.050013 135.92188L27.253138 134.28125Q28.675013 134.67188 29.471888 135.71875Q30.268763 136.76562 30.268763 138.39062Q30.268763 140.4375 29.003138 141.64062Q27.737513 142.84375 25.456263 142.84375Q23.112513 142.84375 21.815638 141.64062Q20.503138 140.42188 20.503138 138.48438Q20.503138 136.60938 21.784388 135.42188Q23.050013 134.23438 25.362513 134.23438Q25.503138 134.23438 25.784388 134.25L25.784388 141.20312Q27.331263 141.125 28.143763 140.34375Q28.956263 139.54688 28.956263 138.39062Q28.956263 137.51562 28.503138 136.90625Q28.050013 136.28125 27.050013 135.92188ZM24.487513 141.125L24.487513 135.90625Q23.315638 136.01562 22.721888 136.5Q21.800013 137.26562 21.800013 138.46875Q21.800013 139.54688 22.534388 140.29688Q23.268763 141.03125 24.487513 141.125ZM30.050013 132.32812L20.721888 132.32812L20.721888 130.90625L22.128138 130.90625Q21.143763 130.35938 20.831263 129.90625Q20.503138 129.4375 20.503138 128.89062Q20.503138 128.07812 21.018763 127.265625L22.487513 127.796875Q22.143763 128.39062 22.143763 128.96875Q22.143763 129.48438 22.456263 129.90625Q22.768763 130.3125 23.315638 130.48438Q24.159388 130.75 25.159388 130.75L30.050013 130.75L30.050013 132.32812ZM30.050013 125.9375L21.940638 125.9375L21.940638 127.328125L20.721888 127.328125L20.721888 125.9375L19.721888 125.9375Q18.784388 125.9375 18.331263 125.765625Q17.706263 125.546875 17.331263 124.96875Q16.940638 124.390625 16.940638 123.34375Q16.940638 122.6875 17.096888 121.875L18.487513 122.109375Q18.393763 122.609375 18.393763 123.046875Q18.393763 123.765625 18.706263 124.0625Q19.003138 124.359375 19.846888 124.359375L20.721888 124.359375L20.721888 122.546875L21.940638 122.546875L21.940638 124.359375L30.050013 124.359375L30.050013 125.9375ZM25.378138 121.90625Q22.784388 121.90625 21.534388 120.453125Q20.503138 119.25 20.503138 117.53125Q20.503138 115.59375 21.768763 114.375Q23.034388 113.15625 25.253138 113.15625Q27.050013 113.15625 28.081263 113.703125Q29.112513 114.234375 29.690638 115.265625Q30.268763 116.296875 30.268763 117.53125Q30.268763 119.484375 29.018763 120.703125Q27.753138 121.90625 25.378138 121.90625ZM25.378138 120.28125Q27.175013 120.28125 28.065638 119.5Q28.956263 118.71875 28.956263 117.53125Q28.956263 116.34375 28.065638 115.5625Q27.159388 114.78125 25.331263 114.78125Q23.596888 114.78125 22.706263 115.578125Q21.815638 116.359375 21.815638 117.53125Q21.815638 118.71875 22.706263 119.5Q23.596888 120.28125 25.378138 120.28125ZM30.050013 111.328125L20.721888 111.328125L20.721888 109.90625L22.128138 109.90625Q21.143763 109.359375 20.831263 108.90625Q20.503138 108.4375 20.503138 107.890625Q20.503138 107.078125 21.018763 106.265625L22.487513 106.796875Q22.143763 107.390625 22.143763 107.96875Q22.143763 108.484375 22.456263 108.90625Q22.768763 109.3125 23.315638 109.484375Q24.159388 109.75 25.159388 109.75L30.050013 109.75L30.050013 111.328125ZM30.050013 105.3125L20.721888 105.3125L20.721888 103.890625L22.018763 103.890625Q21.346888 103.453125 20.925013 102.734375Q20.503138 102.0 20.503138 101.0625Q20.503138 100.03125 20.940638 99.375Q21.362513 98.703125 22.143763 98.4375Q20.503138 97.328125 20.503138 95.546875Q20.503138 94.15625 21.284388 93.421875Q22.050013 92.671875 23.643763 92.671875L30.050013 92.671875L30.050013 94.234375L24.175013 94.234375Q23.221888 94.234375 22.800013 94.390625Q22.378138 94.546875 22.128138 94.953125Q21.878138 95.359375 21.878138 95.90625Q21.878138 96.890625 22.534388 97.546875Q23.190638 98.1875 24.628138 98.1875L30.050013 98.1875L30.050013 99.765625L23.987513 99.765625Q22.925013 99.765625 22.409388 100.15625Q21.878138 100.546875 21.878138 101.421875Q21.878138 102.09375 22.237513 102.65625Q22.581263 103.21875 23.253138 103.484375Q23.925013 103.734375 25.206263 103.734375L30.050013 103.734375L30.050013 105.3125ZM28.893763 85.21875Q29.643763 86.09375 29.956263 86.921875Q30.268763 87.734375 30.268763 88.65625Q30.268763 90.203125 29.518763 91.03125Q28.753138 91.84375 27.581263 91.84375Q26.909388 91.84375 26.346888 91.53125Q25.768763 91.21875 25.425013 90.71875Q25.081263 90.21875 24.909388 89.578125Q24.784388 89.109375 24.675013 88.171875Q24.440638 86.265625 24.128138 85.359375Q23.800013 85.34375 23.706263 85.34375Q22.753138 85.34375 22.346888 85.796875Q21.815638 86.40625 21.815638 87.59375Q21.815638 88.71875 22.206263 89.25Q22.596888 89.78125 23.596888 90.03125L23.378138 91.578125Q22.378138 91.359375 21.768763 90.890625Q21.159388 90.40625 20.831263 89.5Q20.503138 88.578125 20.503138 87.359375Q20.503138 86.171875 20.784388 85.421875Q21.065638 84.671875 21.503138 84.328125Q21.925013 83.96875 22.565638 83.828125Q22.971888 83.75 24.034388 83.75L26.143763 83.75Q28.346888 83.75 28.940638 83.65625Q29.518763 83.546875 30.050013 83.25L30.050013 84.90625Q29.550013 85.15625 28.893763 85.21875ZM25.362513 85.359375Q25.721888 86.21875 25.956263 87.9375Q26.096888 88.90625 26.284388 89.3125Q26.456263 89.71875 26.800013 89.9375Q27.128138 90.15625 27.550013 90.15625Q28.175013 90.15625 28.596888 89.6875Q29.018763 89.203125 29.018763 88.28125Q29.018763 87.359375 28.628138 86.65625Q28.221888 85.9375 27.534388 85.609375Q26.987513 85.359375 25.940638 85.359375L25.362513 85.359375ZM30.050013 81.3125L20.721888 81.3125L20.721888 79.890625L22.050013 79.890625Q20.503138 78.859375 20.503138 76.921875Q20.503138 76.078125 20.815638 75.375Q21.112513 74.65625 21.612513 74.3125Q22.096888 73.953125 22.768763 73.8125Q23.206263 73.734375 24.315638 73.734375L30.050013 73.734375L30.050013 75.3125L24.378138 75.3125Q23.409388 75.3125 22.925013 75.5Q22.440638 75.671875 22.159388 76.15625Q21.878138 76.625 21.878138 77.25Q21.878138 78.265625 22.518763 79.0Q23.159388 79.734375 24.956263 79.734375L30.050013 79.734375L30.050013 81.3125ZM26.628138 65.21875L26.831263 63.671875Q28.440638 63.921875 29.362513 64.96875Q30.268763 66.015625 30.268763 67.546875Q30.268763 69.46875 29.018763 70.640625Q27.753138 71.796875 25.425013 71.796875Q23.909388 71.796875 22.784388 71.296875Q21.643763 70.796875 21.081263 69.78125Q20.503138 68.75 20.503138 67.546875Q20.503138 66.015625 21.284388 65.0625Q22.050013 64.09375 23.456263 63.8125L23.690638 65.359375Q22.753138 65.578125 22.284388 66.140625Q21.800013 66.6875 21.800013 67.484375Q21.800013 68.671875 22.659388 69.421875Q23.518763 70.171875 25.378138 70.171875Q27.253138 70.171875 28.112513 69.453125Q28.956263 68.734375 28.956263 67.5625Q28.956263 66.640625 28.393763 66.015625Q27.815638 65.390625 26.628138 65.21875ZM27.050013 55.921875L27.253138 54.28125Q28.675013 54.671875 29.471888 55.71875Q30.268763 56.765625 30.268763 58.390625Q30.268763 60.4375 29.003138 61.640625Q27.737513 62.84375 25.456263 62.84375Q23.112513 62.84375 21.815638 61.640625Q20.503138 60.421875 20.503138 58.484375Q20.503138 56.609375 21.784388 55.421875Q23.050013 54.234375 25.362513 54.234375Q25.503138 54.234375 25.784388 54.25L25.784388 61.203125Q27.331263 61.125 28.143763 60.34375Q28.956263 59.546875 28.956263 58.390625Q28.956263 57.515625 28.503138 56.90625Q28.050013 56.28125 27.050013 55.921875ZM24.487513 61.125L24.487513 55.90625Q23.315638 56.015625 22.721888 56.5Q21.800013 57.265625 21.800013 58.46875Q21.800013 59.546875 22.534388 60.296875Q23.268763 61.03125 24.487513 61.125Z" fill-rule="nonzero"/><path fill="#000000" d="M65.55 217.71562Q65.55 216.18437 65.8625 215.2625Q66.175 214.325 66.78438 213.825Q67.40938 213.325 68.34688 213.325Q69.03438 213.325 69.55 213.60625Q70.08125 213.8875 70.425 214.41875Q70.76875 214.93437 70.95625 215.68437Q71.14375 216.43437 71.14375 217.71562Q71.14375 219.23125 70.83125 220.15312Q70.53438 221.075 69.90938 221.59062Q69.3 222.09062 68.34688 222.09062Q67.1125 222.09062 66.39375 221.2Q65.55 220.1375 65.55 217.71562ZM66.62813 217.71562Q66.62813 219.825 67.12813 220.52812Q67.62813 221.23125 68.34688 221.23125Q69.08125 221.23125 69.56563 220.52812Q70.06563 219.825 70.06563 217.71562Q70.06563 215.59062 69.56563 214.90312Q69.08125 214.2 68.33125 214.2Q67.6125 214.2 67.175 214.80937Q66.62813 215.59062 66.62813 217.71562ZM73.1125 221.95L73.1125 220.74687L74.31563 220.74687L74.31563 221.95Q74.31563 222.60625 74.08125 223.0125Q73.84688 223.43437 73.34688 223.65312L73.05 223.2Q73.37813 223.05937 73.53438 222.7625Q73.69063 222.48125 73.72188 221.95L73.1125 221.95ZM75.55 217.71562Q75.55 216.18437 75.8625 215.2625Q76.175 214.325 76.78438 213.825Q77.40938 213.325 78.34688 213.325Q79.03438 213.325 79.55 213.60625Q80.08125 213.8875 80.425 214.41875Q80.76875 214.93437 80.95625 215.68437Q81.14375 216.43437 81.14375 217.71562Q81.14375 219.23125 80.83125 220.15312Q80.53438 221.075 79.90938 221.59062Q79.3 222.09062 78.34688 222.09062Q77.1125 222.09062 76.39375 221.2Q75.55 220.1375 75.55 217.71562ZM76.62813 217.71562Q76.62813 219.825 77.12813 220.52812Q77.62813 221.23125 78.34688 221.23125Q79.08125 221.23125 79.56563 220.52812Q80.06563 219.825 80.06563 217.71562Q80.06563 215.59062 79.56563 214.90312Q79.08125 214.2 78.33125 214.2Q77.6125 214.2 77.175 214.80937Q76.62813 215.59062 76.62813 217.71562Z" fill-rule="nonzero"/><path fill="#000000" d="M65.55 195.72673Q65.55 194.19548 65.8625 193.2736Q66.175 192.3361 66.78438 191.8361Q67.40938 191.3361 68.34688 191.3361Q69.03438 191.3361 69.55 191.61736Q70.08125 191.8986 70.425 192.42986Q70.76875 192.94548 70.95625 193.69548Q71.14375 194.44548 71.14375 195.72673Q71.14375 197.24236 70.83125 198.16423Q70.53438 199.0861 69.90938 199.60173Q69.3 200.10173 68.34688 200.10173Q67.1125 200.10173 66.39375 199.2111Q65.55 198.1486 65.55 195.72673ZM66.62813 195.72673Q66.62813 197.8361 67.12813 198.53923Q67.62813 199.24236 68.34688 199.24236Q69.08125 199.24236 69.56563 198.53923Q70.06563 197.8361 70.06563 195.72673Q70.06563 193.60173 69.56563 192.91423Q69.08125 192.2111 68.33125 192.2111Q67.6125 192.2111 67.175 192.82048Q66.62813 193.60173 66.62813 195.72673ZM73.1125 199.9611L73.1125 198.75798L74.31563 198.75798L74.31563 199.9611Q74.31563 200.61736 74.08125 201.0236Q73.84688 201.44548 73.34688 201.66423L73.05 201.2111Q73.37813 201.07048 73.53438 200.7736Q73.69063 200.49236 73.72188 199.9611L73.1125 199.9611ZM79.51875 199.9611L78.47188 199.9611L78.47188 193.24236Q78.08125 193.60173 77.45625 193.97673Q76.84688 194.3361 76.3625 194.50798L76.3625 193.49236Q77.2375 193.07048 77.89375 192.49236Q78.56563 191.8986 78.84688 191.3361L79.51875 191.3361L79.51875 199.9611Z" fill-rule="nonzero"/><path fill="#000000" d="M65.55 173.73785Q65.55 172.2066 65.8625 171.28473Q66.175 170.34723 66.78438 169.84723Q67.40938 169.34723 68.34688 169.34723Q69.03438 169.34723 69.55 169.62848Q70.08125 169.90973 70.425 170.44098Q70.76875 170.9566 70.95625 171.7066Q71.14375 172.4566 71.14375 173.73785Q71.14375 175.25348 70.83125 176.17535Q70.53438 177.09723 69.90938 177.61285Q69.3 178.11285 68.34688 178.11285Q67.1125 178.11285 66.39375 177.22223Q65.55 176.15973 65.55 173.73785ZM66.62813 173.73785Q66.62813 175.84723 67.12813 176.55035Q67.62813 177.25348 68.34688 177.25348Q69.08125 177.25348 69.56563 176.55035Q70.06563 175.84723 70.06563 173.73785Q70.06563 171.61285 69.56563 170.92535Q69.08125 170.22223 68.33125 170.22223Q67.6125 170.22223 67.175 170.8316Q66.62813 171.61285 66.62813 173.73785ZM73.1125 177.97223L73.1125 176.7691L74.31563 176.7691L74.31563 177.97223Q74.31563 178.62848 74.08125 179.03473Q73.84688 179.4566 73.34688 179.67535L73.05 179.22223Q73.37813 179.0816 73.53438 178.78473Q73.69063 178.50348 73.72188 177.97223L73.1125 177.97223ZM81.09688 176.9566L81.09688 177.97223L75.40938 177.97223Q75.40938 177.59723 75.53438 177.23785Q75.75313 176.65973 76.22188 176.09723Q76.70625 175.53473 77.6125 174.80035Q79.01875 173.6441 79.50313 172.97223Q80.00313 172.30035 80.00313 171.7066Q80.00313 171.0816 79.55 170.65973Q79.09688 170.22223 78.37813 170.22223Q77.6125 170.22223 77.15938 170.67535Q76.70625 171.12848 76.69063 171.94098L75.6125 171.8316Q75.72188 170.61285 76.44063 169.98785Q77.175 169.34723 78.40938 169.34723Q79.64375 169.34723 80.3625 170.03473Q81.08125 170.72223 81.08125 171.73785Q81.08125 172.25348 80.8625 172.75348Q80.65938 173.23785 80.15938 173.80035Q79.675 174.34723 78.55 175.30035Q77.59688 176.09723 77.31563 176.3941Q77.05 176.67535 76.87813 176.9566L81.09688 176.9566Z" fill-rule="nonzero"/><path fill="#000000" d="M65.55 151.74896Q65.55 150.21771 65.8625 149.29584Q66.175 148.35834 66.78438 147.85834Q67.40938 147.35834 68.34688 147.35834Q69.03438 147.35834 69.55 147.63959Q70.08125 147.92084 70.425 148.45209Q70.76875 148.96771 70.95625 149.71771Q71.14375 150.46771 71.14375 151.74896Q71.14375 153.26459 70.83125 154.18646Q70.53438 155.10834 69.90938 155.62396Q69.3 156.12396 68.34688 156.12396Q67.1125 156.12396 66.39375 155.23334Q65.55 154.17084 65.55 151.74896ZM66.62813 151.74896Q66.62813 153.85834 67.12813 154.56146Q67.62813 155.26459 68.34688 155.26459Q69.08125 155.26459 69.56563 154.56146Q70.06563 153.85834 70.06563 151.74896Q70.06563 149.62396 69.56563 148.93646Q69.08125 148.23334 68.33125 148.23334Q67.6125 148.23334 67.175 148.84271Q66.62813 149.62396 66.62813 151.74896ZM73.1125 155.98334L73.1125 154.78021L74.31563 154.78021L74.31563 155.98334Q74.31563 156.63959 74.08125 157.04584Q73.84688 157.46771 73.34688 157.68646L73.05 157.23334Q73.37813 157.09271 73.53438 156.79584Q73.69063 156.51459 73.72188 155.98334L73.1125 155.98334ZM75.55 153.71771L76.6125 153.57709Q76.78438 154.46771 77.22188 154.87396Q77.65938 155.26459 78.28438 155.26459Q79.03438 155.26459 79.55 154.74896Q80.06563 154.23334 80.06563 153.46771Q80.06563 152.74896 79.58125 152.28021Q79.1125 151.79584 78.37813 151.79584Q78.08125 151.79584 77.62813 151.92084L77.75313 150.98334Q77.8625 150.99896 77.925 150.99896Q78.59688 150.99896 79.12813 150.65521Q79.675 150.29584 79.675 149.56146Q79.675 148.98334 79.28438 148.60834Q78.89375 148.21771 78.26875 148.21771Q77.65938 148.21771 77.2375 148.60834Q76.83125 148.99896 76.72188 149.76459L75.65938 149.57709Q75.84688 148.53021 76.53438 147.95209Q77.22188 147.35834 78.2375 147.35834Q78.94063 147.35834 79.53438 147.67084Q80.12813 147.96771 80.44063 148.48334Q80.75313 148.99896 80.75313 149.59271Q80.75313 150.13959 80.45625 150.60834Q80.15938 151.06146 79.58125 151.32709Q80.33125 151.49896 80.75313 152.06146Q81.175 152.60834 81.175 153.45209Q81.175 154.57709 80.34688 155.35834Q79.53438 156.13959 78.28438 156.13959Q77.15938 156.13959 76.40938 155.46771Q75.65938 154.78021 75.55 153.71771Z" fill-rule="nonzero"/><path fill="#000000" d="M65.55 129.76007Q65.55 128.22882 65.8625 127.306946Q66.175 126.369446 66.78438 125.869446Q67.40938 125.369446 68.34688 125.369446Q69.03438 125.369446 69.55 125.650696Q70.08125 125.931946 70.425 126.463196Q70.76875 126.97882 70.95625 127.72882Q71.14375 128.47882 71.14375 129.76007Q71.14375 131.2757 70.83125 132.19757Q70.53438 133.11945 69.90938 133.63507Q69.3 134.13507 68.34688 134.13507Q67.1125 134.13507 66.39375 133.24445Q65.55 132.18195 65.55 129.76007ZM66.62813 129.76007Q66.62813 131.86945 67.12813 132.57257Q67.62813 133.2757 68.34688 133.2757Q69.08125 133.2757 69.56563 132.57257Q70.06563 131.86945 70.06563 129.76007Q70.06563 127.63507 69.56563 126.94757Q69.08125 126.244446 68.33125 126.244446Q67.6125 126.244446 67.175 126.85382Q66.62813 127.63507 66.62813 129.76007ZM73.1125 133.99445L73.1125 132.79132L74.31563 132.79132L74.31563 133.99445Q74.31563 134.6507 74.08125 135.05695Q73.84688 135.47882 73.34688 135.69757L73.05 135.24445Q73.37813 135.10382 73.53438 134.80695Q73.69063 134.5257 73.72188 133.99445L73.1125 133.99445ZM78.925 133.99445L78.925 131.93195L75.20625 131.93195L75.20625 130.9632L79.12813 125.400696L79.9875 125.400696L79.9875 130.9632L81.14375 130.9632L81.14375 131.93195L79.9875 131.93195L79.9875 133.99445L78.925 133.99445ZM78.925 130.9632L78.925 127.10382L76.2375 130.9632L78.925 130.9632Z" fill-rule="nonzero"/><path fill="#000000" d="M65.55 107.77118Q65.55 106.23993 65.8625 105.318054Q66.175 104.380554 66.78438 103.880554Q67.40938 103.380554 68.34688 103.380554Q69.03438 103.380554 69.55 103.661804Q70.08125 103.943054 70.425 104.474304Q70.76875 104.98993 70.95625 105.73993Q71.14375 106.48993 71.14375 107.77118Q71.14375 109.286804 70.83125 110.20868Q70.53438 111.130554 69.90938 111.64618Q69.3 112.14618 68.34688 112.14618Q67.1125 112.14618 66.39375 111.255554Q65.55 110.193054 65.55 107.77118ZM66.62813 107.77118Q66.62813 109.880554 67.12813 110.58368Q67.62813 111.286804 68.34688 111.286804Q69.08125 111.286804 69.56563 110.58368Q70.06563 109.880554 70.06563 107.77118Q70.06563 105.64618 69.56563 104.95868Q69.08125 104.255554 68.33125 104.255554Q67.6125 104.255554 67.175 104.86493Q66.62813 105.64618 66.62813 107.77118ZM73.1125 112.005554L73.1125 110.80243L74.31563 110.80243L74.31563 112.005554Q74.31563 112.661804 74.08125 113.068054Q73.84688 113.48993 73.34688 113.70868L73.05 113.255554Q73.37813 113.11493 73.53438 112.818054Q73.69063 112.536804 73.72188 112.005554L73.1125 112.005554ZM75.55 109.755554L76.65938 109.661804Q76.78438 110.474304 77.22188 110.880554Q77.675 111.286804 78.31563 111.286804Q79.06563 111.286804 79.59688 110.70868Q80.12813 110.130554 80.12813 109.193054Q80.12813 108.286804 79.6125 107.77118Q79.1125 107.23993 78.28438 107.23993Q77.78438 107.23993 77.3625 107.474304Q76.95625 107.70868 76.72188 108.068054L75.7375 107.943054L76.56563 103.536804L80.84688 103.536804L80.84688 104.536804L77.40938 104.536804L76.95625 106.849304Q77.72188 106.30243 78.56563 106.30243Q79.69063 106.30243 80.45625 107.08368Q81.2375 107.86493 81.2375 109.099304Q81.2375 110.255554 80.56563 111.11493Q79.7375 112.14618 78.31563 112.14618Q77.14375 112.14618 76.39375 111.48993Q75.65938 110.83368 75.55 109.755554Z" fill-rule="nonzero"/><path fill="#000000" d="M65.55 85.782295Q65.55 84.251045 65.8625 83.32917Q66.175 82.39167 66.78438 81.89167Q67.40938 81.39167 68.34688 81.39167Q69.03438 81.39167 69.55 81.67292Q70.08125 81.95417 70.425 82.48542Q70.76875 83.001045 70.95625 83.751045Q71.14375 84.501045 71.14375 85.782295Q71.14375 87.29792 70.83125 88.219795Q70.53438 89.14167 69.90938 89.657295Q69.3 90.157295 68.34688 90.157295Q67.1125 90.157295 66.39375 89.26667Q65.55 88.20417 65.55 85.782295ZM66.62813 85.782295Q66.62813 87.89167 67.12813 88.594795Q67.62813 89.29792 68.34688 89.29792Q69.08125 89.29792 69.56563 88.594795Q70.06563 87.89167 70.06563 85.782295Q70.06563 83.657295 69.56563 82.969795Q69.08125 82.26667 68.33125 82.26667Q67.6125 82.26667 67.175 82.876045Q66.62813 83.657295 66.62813 85.782295ZM73.1125 90.01667L73.1125 88.813545L74.31563 88.813545L74.31563 90.01667Q74.31563 90.67292 74.08125 91.07917Q73.84688 91.501045 73.34688 91.719795L73.05 91.26667Q73.37813 91.126045 73.53438 90.82917Q73.69063 90.54792 73.72188 90.01667L73.1125 90.01667ZM81.01875 83.532295L79.97188 83.61042Q79.83125 82.98542 79.58125 82.70417Q79.14375 82.251045 78.51875 82.251045Q78.01875 82.251045 77.62813 82.532295Q77.14375 82.907295 76.84688 83.61042Q76.56563 84.29792 76.55 85.57917Q76.925 85.001045 77.47188 84.719795Q78.03438 84.438545 78.64375 84.438545Q79.69063 84.438545 80.425 85.219795Q81.175 86.001045 81.175 87.219795Q81.175 88.032295 80.81563 88.73542Q80.47188 89.42292 79.8625 89.79792Q79.25313 90.157295 78.4875 90.157295Q77.15938 90.157295 76.33125 89.188545Q75.50313 88.219795 75.50313 86.001045Q75.50313 83.501045 76.425 82.376045Q77.22188 81.39167 78.58125 81.39167Q79.59688 81.39167 80.2375 81.969795Q80.89375 82.532295 81.01875 83.532295ZM76.72188 87.23542Q76.72188 87.782295 76.94063 88.282295Q77.175 88.76667 77.58125 89.032295Q78.00313 89.29792 78.47188 89.29792Q79.12813 89.29792 79.6125 88.76667Q80.09688 88.219795 80.09688 87.29792Q80.09688 86.407295 79.6125 85.89167Q79.14375 85.376045 78.425 85.376045Q77.70625 85.376045 77.20625 85.89167Q76.72188 86.407295 76.72188 87.23542Z" fill-rule="nonzero"/><path fill="#000000" d="M65.55 63.793404Q65.55 62.262154 65.8625 61.34028Q66.175 60.40278 66.78438 59.90278Q67.40938 59.40278 68.34688 59.40278Q69.03438 59.40278 69.55 59.68403Q70.08125 59.96528 70.425 60.49653Q70.76875 61.012154 70.95625 61.762154Q71.14375 62.512154 71.14375 63.793404Q71.14375 65.30903 70.83125 66.2309Q70.53438 67.15278 69.90938 67.6684Q69.3 68.1684 68.34688 68.1684Q67.1125 68.1684 66.39375 67.27778Q65.55 66.21528 65.55 63.793404ZM66.62813 63.793404Q66.62813 65.90278 67.12813 66.6059Q67.62813 67.30903 68.34688 67.30903Q69.08125 67.30903 69.56563 66.6059Q70.06563 65.90278 70.06563 63.793404Q70.06563 61.668404 69.56563 60.980904Q69.08125 60.27778 68.33125 60.27778Q67.6125 60.27778 67.175 60.887154Q66.62813 61.668404 66.62813 63.793404ZM73.1125 68.02778L73.1125 66.82465L74.31563 66.82465L74.31563 68.02778Q74.31563 68.68403 74.08125 69.09028Q73.84688 69.51215 73.34688 69.7309L73.05 69.27778Q73.37813 69.13715 73.53438 68.84028Q73.69063 68.55903 73.72188 68.02778L73.1125 68.02778ZM75.6125 60.55903L75.6125 59.543404L81.175 59.543404L81.175 60.37153Q80.3625 61.24653 79.55 62.699654Q78.75313 64.13715 78.31563 65.6684Q77.9875 66.74653 77.90938 68.02778L76.81563 68.02778Q76.83125 67.01215 77.20625 65.57465Q77.59688 64.13715 78.3 62.80903Q79.01875 61.480904 79.83125 60.55903L75.6125 60.55903Z" fill-rule="nonzero"/><path fill="#000000" d="M65.55 41.804512Q65.55 40.273262 65.8625 39.351387Q66.175 38.413887 66.78438 37.913887Q67.40938 37.413887 68.34688 37.413887Q69.03438 37.413887 69.55 37.695137Q70.08125 37.976387 70.425 38.507637Q70.76875 39.023262 70.95625 39.773262Q71.14375 40.523262 71.14375 41.804512Q71.14375 43.320137 70.83125 44.242012Q70.53438 45.163887 69.90938 45.679512Q69.3 46.179512 68.34688 46.179512Q67.1125 46.179512 66.39375 45.288887Q65.55 44.226387 65.55 41.804512ZM66.62813 41.804512Q66.62813 43.913887 67.12813 44.617012Q67.62813 45.320137 68.34688 45.320137Q69.08125 45.320137 69.56563 44.617012Q70.06563 43.913887 70.06563 41.804512Q70.06563 39.679512 69.56563 38.992012Q69.08125 38.288887 68.33125 38.288887Q67.6125 38.288887 67.175 38.898262Q66.62813 39.679512 66.62813 41.804512ZM73.1125 46.038887L73.1125 44.835762L74.31563 44.835762L74.31563 46.038887Q74.31563 46.695137 74.08125 47.101387Q73.84688 47.523262 73.34688 47.742012L73.05 47.288887Q73.37813 47.148262 73.53438 46.851387Q73.69063 46.570137 73.72188 46.038887L73.1125 46.038887ZM77.175 41.382637Q76.51875 41.132637 76.19063 40.695137Q75.87813 40.242012 75.87813 39.632637Q75.87813 38.695137 76.55 38.054512Q77.2375 37.413887 78.34688 37.413887Q79.47188 37.413887 80.15938 38.070137Q80.84688 38.726387 80.84688 39.663887Q80.84688 40.257637 80.53438 40.695137Q80.22188 41.132637 79.58125 41.382637Q80.37813 41.632637 80.78438 42.210762Q81.19063 42.788887 81.19063 43.585762Q81.19063 44.679512 80.40938 45.429512Q79.64375 46.179512 78.3625 46.179512Q77.09688 46.179512 76.31563 45.429512Q75.53438 44.679512 75.53438 43.554512Q75.53438 42.710762 75.95625 42.148262Q76.39375 41.585762 77.175 41.382637ZM76.95625 39.585762Q76.95625 40.195137 77.34688 40.585762Q77.75313 40.976387 78.37813 40.976387Q78.9875 40.976387 79.37813 40.601387Q79.76875 40.210762 79.76875 39.648262Q79.76875 39.070137 79.3625 38.679512Q78.95625 38.273262 78.3625 38.273262Q77.75313 38.273262 77.34688 38.663887Q76.95625 39.054512 76.95625 39.585762ZM76.62813 43.554512Q76.62813 44.007637 76.83125 44.429512Q77.05 44.851387 77.47188 45.085762Q77.89375 45.320137 78.37813 45.320137Q79.12813 45.320137 79.6125 44.835762Q80.1125 44.351387 80.1125 43.601387Q80.1125 42.835762 79.6125 42.335762Q79.1125 41.835762 78.34688 41.835762Q77.59688 41.835762 77.1125 42.335762Q76.62813 42.820137 76.62813 43.554512Z" fill-rule="nonzero"/><path fill="#000000" d="M65.55 19.815624Q65.55 18.284374 65.8625 17.3625Q66.175 16.425 66.78438 15.924999Q67.40938 15.424999 68.34688 15.424999Q69.03438 15.424999 69.55 15.706249Q70.08125 15.987499 70.425 16.51875Q70.76875 17.034374 70.95625 17.784374Q71.14375 18.534374 71.14375 19.815624Q71.14375 21.33125 70.83125 22.253124Q70.53438 23.175 69.90938 23.690624Q69.3 24.190624 68.34688 24.190624Q67.1125 24.190624 66.39375 23.3Q65.55 22.2375 65.55 19.815624ZM66.62813 19.815624Q66.62813 21.925 67.12813 22.628124Q67.62813 23.33125 68.34688 23.33125Q69.08125 23.33125 69.56563 22.628124Q70.06563 21.925 70.06563 19.815624Q70.06563 17.690624 69.56563 17.003124Q69.08125 16.3 68.33125 16.3Q67.6125 16.3 67.175 16.909374Q66.62813 17.690624 66.62813 19.815624ZM73.1125 24.05L73.1125 22.846874L74.31563 22.846874L74.31563 24.05Q74.31563 24.70625 74.08125 25.1125Q73.84688 25.534374 73.34688 25.753124L73.05 25.3Q73.37813 25.159374 73.53438 24.8625Q73.69063 24.58125 73.72188 24.05L73.1125 24.05ZM75.70625 22.065624L76.72188 21.971874Q76.84688 22.690624 77.20625 23.01875Q77.58125 23.33125 78.14375 23.33125Q78.62813 23.33125 78.9875 23.1125Q79.3625 22.878124 79.59688 22.51875Q79.83125 22.14375 79.9875 21.51875Q80.14375 20.878124 80.14375 20.221874Q80.14375 20.14375 80.14375 20.003124Q79.83125 20.503124 79.28438 20.83125Q78.7375 21.14375 78.09688 21.14375Q77.01875 21.14375 76.28438 20.378124Q75.55 19.596874 75.55 18.33125Q75.55 17.01875 76.31563 16.221874Q77.09688 15.424999 78.25313 15.424999Q79.08125 15.424999 79.76875 15.878124Q80.47188 16.33125 80.83125 17.175Q81.19063 18.003124 81.19063 19.58125Q81.19063 21.221874 80.83125 22.20625Q80.4875 23.175 79.76875 23.690624Q79.06563 24.190624 78.12813 24.190624Q77.1125 24.190624 76.47188 23.64375Q75.83125 23.08125 75.70625 22.065624ZM80.01875 18.26875Q80.01875 17.3625 79.53438 16.83125Q79.06563 16.3 78.37813 16.3Q77.675 16.3 77.14375 16.878124Q76.62813 17.440624 76.62813 18.3625Q76.62813 19.175 77.12813 19.690624Q77.62813 20.20625 78.34688 20.20625Q79.08125 20.20625 79.55 19.690624Q80.01875 19.175 80.01875 18.26875Z" fill-rule="nonzero"/><path fill="#000000" d="M155.8308 239.43437L157.53392 239.85625Q157.00267 241.96562 155.61205 243.075Q154.22142 244.16875 152.2058 244.16875Q150.12767 244.16875 148.81517 243.325Q147.5183 242.46562 146.8308 240.87187Q146.1433 239.2625 146.1433 237.40312Q146.1433 235.40312 146.90892 233.90312Q147.69017 232.40312 149.11205 231.62187Q150.53392 230.84062 152.23705 230.84062Q154.15892 230.84062 155.47142 231.825Q156.79955 232.80937 157.31517 234.59062L155.6433 234.99687Q155.19017 233.59062 154.3308 232.95Q153.48705 232.30937 152.19017 232.30937Q150.7058 232.30937 149.7058 233.02812Q148.72142 233.73125 148.31517 234.93437Q147.90892 236.12187 147.90892 237.40312Q147.90892 239.04375 148.37767 240.27812Q148.86205 241.49687 149.87767 242.10625Q150.8933 242.71562 152.06517 242.71562Q153.50267 242.71562 154.48705 241.8875Q155.48705 241.05937 155.8308 239.43437ZM158.84642 239.27812Q158.84642 236.68437 160.29955 235.43437Q161.50267 234.40312 163.22142 234.40312Q165.15892 234.40312 166.37767 235.66875Q167.59642 236.93437 167.59642 239.15312Q167.59642 240.95 167.04955 241.98125Q166.5183 243.0125 165.48705 243.59062Q164.4558 244.16875 163.22142 244.16875Q161.2683 244.16875 160.04955 242.91875Q158.84642 241.65312 158.84642 239.27812ZM160.47142 239.27812Q160.47142 241.075 161.25267 241.96562Q162.03392 242.85625 163.22142 242.85625Q164.40892 242.85625 165.19017 241.96562Q165.97142 241.05937 165.97142 239.23125Q165.97142 237.49687 165.17455 236.60625Q164.3933 235.71562 163.22142 235.71562Q162.03392 235.71562 161.25267 236.60625Q160.47142 237.49687 160.47142 239.27812ZM169.44017 247.52812L169.44017 234.62187L170.87767 234.62187L170.87767 235.825Q171.3933 235.12187 172.03392 234.7625Q172.67455 234.40312 173.5808 234.40312Q174.78392 234.40312 175.69017 235.02812Q176.61205 235.6375 177.0808 236.7625Q177.54955 237.87187 177.54955 239.21562Q177.54955 240.6375 177.03392 241.79375Q176.5183 242.93437 175.53392 243.55937Q174.54955 244.16875 173.47142 244.16875Q172.69017 244.16875 172.04955 243.84062Q171.42455 243.49687 171.0183 242.98125L171.0183 247.52812L169.44017 247.52812ZM170.87767 239.34062Q170.87767 241.1375 171.59642 241.99687Q172.3308 242.85625 173.36205 242.85625Q174.42455 242.85625 175.17455 241.96562Q175.92455 241.075 175.92455 239.2Q175.92455 237.41875 175.19017 236.52812Q174.4558 235.6375 173.44017 235.6375Q172.42455 235.6375 171.6433 236.59062Q170.87767 237.52812 170.87767 239.34062ZM179.4558 232.8875L179.4558 231.05937L181.03392 231.05937L181.03392 232.8875L179.4558 232.8875ZM179.4558 243.95L179.4558 234.62187L181.03392 234.62187L181.03392 243.95L179.4558 243.95ZM183.44017 243.95L183.44017 234.62187L184.86205 234.62187L184.86205 235.95Q185.8933 234.40312 187.8308 234.40312Q188.67455 234.40312 189.37767 234.71562Q190.09642 235.0125 190.44017 235.5125Q190.79955 235.99687 190.94017 236.66875Q191.0183 237.10625 191.0183 238.21562L191.0183 243.95L189.44017 243.95L189.44017 238.27812Q189.44017 237.30937 189.25267 236.825Q189.0808 236.34062 188.59642 236.05937Q188.12767 235.77812 187.50267 235.77812Q186.48705 235.77812 185.75267 236.41875Q185.0183 237.05937 185.0183 238.85625L185.0183 243.95L183.44017 243.95ZM193.1433 244.73125L194.69017 244.95Q194.78392 245.66875 195.22142 245.99687Q195.81517 246.43437 196.8308 246.43437Q197.92455 246.43437 198.5183 245.98125Q199.12767 245.54375 199.3308 244.7625Q199.4558 244.27812 199.4558 242.73125Q198.40892 243.95 196.86205 243.95Q194.94017 243.95 193.87767 242.55937Q192.8308 241.16875 192.8308 239.23125Q192.8308 237.8875 193.31517 236.7625Q193.79955 235.6375 194.72142 235.02812Q195.6433 234.40312 196.87767 234.40312Q198.53392 234.40312 199.59642 235.74687L199.59642 234.62187L201.06517 234.62187L201.06517 242.68437Q201.06517 244.87187 200.61205 245.77812Q200.17455 246.68437 199.2058 247.2Q198.25267 247.73125 196.84642 247.73125Q195.17455 247.73125 194.1433 246.98125Q193.11205 246.23125 193.1433 244.73125ZM194.4558 239.12187Q194.4558 240.95 195.19017 241.79375Q195.92455 242.6375 197.0183 242.6375Q198.11205 242.6375 198.84642 241.80937Q199.5808 240.96562 199.5808 239.16875Q199.5808 237.45 198.81517 236.59062Q198.06517 235.71562 196.98705 235.71562Q195.94017 235.71562 195.19017 236.575Q194.4558 237.43437 194.4558 239.12187Z" fill-rule="nonzero"/><path fill="#000000" d="M236.0321 239.80937L237.64148 239.66875Q237.75085 240.6375 238.1571 241.2625Q238.57898 241.87187 239.45398 242.2625Q240.3446 242.6375 241.43835 242.6375Q242.42273 242.6375 243.1571 242.35625Q243.9071 242.05937 244.26648 241.55937Q244.64148 241.04375 244.64148 240.45Q244.64148 239.84062 244.2821 239.3875Q243.93835 238.93437 243.12585 238.6375Q242.61023 238.43437 240.82898 238.0125Q239.06335 237.575 238.3446 237.2Q237.42273 236.71562 236.9696 235.99687Q236.51648 235.27812 236.51648 234.40312Q236.51648 233.41875 237.06335 232.575Q237.62585 231.73125 238.68835 231.29375Q239.75085 230.84062 241.06335 230.84062Q242.48523 230.84062 243.57898 231.30937Q244.67273 231.7625 245.26648 232.66875Q245.86023 233.55937 245.89148 234.7L244.26648 234.825Q244.12585 233.59062 243.36023 232.96562Q242.61023 232.34062 241.12585 232.34062Q239.57898 232.34062 238.86023 232.91875Q238.1571 233.48125 238.1571 234.27812Q238.1571 234.98125 238.67273 235.41875Q239.1571 235.87187 241.23523 236.34062Q243.31335 236.80937 244.0946 237.16875Q245.2196 237.68437 245.75085 238.48125Q246.2821 239.27812 246.2821 240.30937Q246.2821 241.34062 245.68835 242.24687Q245.11023 243.15312 244.00085 243.66875Q242.9071 244.16875 241.51648 244.16875Q239.76648 244.16875 238.57898 243.66875Q237.4071 243.15312 236.73523 242.1375Q236.06335 241.10625 236.0321 239.80937ZM254.51648 243.95L254.51648 242.575Q253.43835 244.16875 251.56335 244.16875Q250.73523 244.16875 250.01648 243.85625Q249.29773 243.52812 248.95398 243.05937Q248.61023 242.575 248.4696 241.87187Q248.37585 241.40312 248.37585 240.40312L248.37585 234.62187L249.95398 234.62187L249.95398 239.79375Q249.95398 241.02812 250.04773 241.46562Q250.20398 242.09062 250.68835 242.45Q251.17273 242.79375 251.87585 242.79375Q252.5946 242.79375 253.2196 242.43437Q253.8446 242.075 254.0946 241.45Q254.36023 240.80937 254.36023 239.62187L254.36023 234.62187L255.93835 234.62187L255.93835 243.95L254.51648 243.95ZM258.42273 232.8875L258.42273 231.05937L260.00085 231.05937L260.00085 232.8875L258.42273 232.8875ZM258.42273 243.95L258.42273 234.62187L260.00085 234.62187L260.00085 243.95L258.42273 243.95ZM268.50085 240.52812L270.04773 240.73125Q269.79773 242.34062 268.75085 243.2625Q267.70398 244.16875 266.17273 244.16875Q264.25085 244.16875 263.07898 242.91875Q261.92273 241.65312 261.92273 239.325Q261.92273 237.80937 262.42273 236.68437Q262.92273 235.54375 263.93835 234.98125Q264.9696 234.40312 266.17273 234.40312Q267.70398 234.40312 268.6571 235.18437Q269.62585 235.95 269.9071 237.35625L268.36023 237.59062Q268.14148 236.65312 267.57898 236.18437Q267.0321 235.7 266.23523 235.7Q265.04773 235.7 264.29773 236.55937Q263.54773 237.41875 263.54773 239.27812Q263.54773 241.15312 264.26648 242.0125Q264.98523 242.85625 266.1571 242.85625Q267.07898 242.85625 267.70398 242.29375Q268.32898 241.71562 268.50085 240.52812ZM271.42273 232.8875L271.42273 231.05937L273.00085 231.05937L273.00085 232.8875L271.42273 232.8875ZM271.42273 243.95L271.42273 234.62187L273.00085 234.62187L273.00085 243.95L271.42273 243.95ZM281.4696 243.95L281.4696 242.77812Q280.57898 244.16875 278.8446 244.16875Q277.73523 244.16875 276.79773 243.55937Q275.86023 242.93437 275.3446 241.84062Q274.82898 240.73125 274.82898 239.29375Q274.82898 237.8875 275.29773 236.7625Q275.76648 235.62187 276.68835 235.0125Q277.62585 234.40312 278.7821 234.40312Q279.62585 234.40312 280.2821 234.7625Q280.93835 235.12187 281.36023 235.68437L281.36023 231.05937L282.92273 231.05937L282.92273 243.95L281.4696 243.95ZM276.45398 239.29375Q276.45398 241.09062 277.20398 241.98125Q277.9696 242.85625 279.00085 242.85625Q280.0321 242.85625 280.75085 242.0125Q281.48523 241.16875 281.48523 239.41875Q281.48523 237.5125 280.75085 236.62187Q280.01648 235.71562 278.93835 235.71562Q277.87585 235.71562 277.1571 236.575Q276.45398 237.43437 276.45398 239.29375ZM291.50085 242.79375Q290.62585 243.54375 289.79773 243.85625Q288.98523 244.16875 288.06335 244.16875Q286.51648 244.16875 285.68835 243.41875Q284.87585 242.65312 284.87585 241.48125Q284.87585 240.80937 285.18835 240.24687Q285.50085 239.66875 286.00085 239.325Q286.50085 238.98125 287.14148 238.80937Q287.61023 238.68437 288.54773 238.575Q290.45398 238.34062 291.36023 238.02812Q291.37585 237.7 291.37585 237.60625Q291.37585 236.65312 290.92273 236.24687Q290.31335 235.71562 289.12585 235.71562Q288.00085 235.71562 287.4696 236.10625Q286.93835 236.49687 286.68835 237.49687L285.14148 237.27812Q285.36023 236.27812 285.82898 235.66875Q286.31335 235.05937 287.2196 234.73125Q288.14148 234.40312 289.36023 234.40312Q290.54773 234.40312 291.29773 234.68437Q292.04773 234.96562 292.39148 235.40312Q292.75085 235.825 292.89148 236.46562Q292.9696 236.87187 292.9696 237.93437L292.9696 240.04375Q292.9696 242.24687 293.06335 242.84062Q293.17273 243.41875 293.4696 243.95L291.81335 243.95Q291.56335 243.45 291.50085 242.79375ZM291.36023 239.2625Q290.50085 239.62187 288.7821 239.85625Q287.81335 239.99687 287.4071 240.18437Q287.00085 240.35625 286.7821 240.7Q286.56335 241.02812 286.56335 241.45Q286.56335 242.075 287.0321 242.49687Q287.51648 242.91875 288.43835 242.91875Q289.36023 242.91875 290.06335 242.52812Q290.7821 242.12187 291.11023 241.43437Q291.36023 240.8875 291.36023 239.84062L291.36023 239.2625ZM295.37585 243.95L295.37585 231.05937L296.95398 231.05937L296.95398 243.95L295.37585 243.95ZM304.42273 232.8875L304.42273 231.05937L306.00085 231.05937L306.00085 232.8875L304.42273 232.8875ZM304.42273 243.95L304.42273 234.62187L306.00085 234.62187L306.00085 243.95L304.42273 243.95ZM314.4696 243.95L314.4696 242.77812Q313.57898 244.16875 311.8446 244.16875Q310.73523 244.16875 309.79773 243.55937Q308.86023 242.93437 308.3446 241.84062Q307.82898 240.73125 307.82898 239.29375Q307.82898 237.8875 308.29773 236.7625Q308.76648 235.62187 309.68835 235.0125Q310.62585 234.40312 311.7821 234.40312Q312.62585 234.40312 313.2821 234.7625Q313.93835 235.12187 314.36023 235.68437L314.36023 231.05937L315.92273 231.05937L315.92273 243.95L314.4696 243.95ZM309.45398 239.29375Q309.45398 241.09062 310.20398 241.98125Q310.9696 242.85625 312.00085 242.85625Q313.0321 242.85625 313.75085 242.0125Q314.48523 241.16875 314.48523 239.41875Q314.48523 237.5125 313.75085 236.62187Q313.01648 235.71562 311.93835 235.71562Q310.87585 235.71562 310.1571 236.575Q309.45398 237.43437 309.45398 239.29375ZM324.79773 240.95L326.43835 241.15312Q326.04773 242.575 325.00085 243.37187Q323.95398 244.16875 322.32898 244.16875Q320.2821 244.16875 319.07898 242.90312Q317.87585 241.6375 317.87585 239.35625Q317.87585 237.0125 319.07898 235.71562Q320.29773 234.40312 322.23523 234.40312Q324.11023 234.40312 325.29773 235.68437Q326.48523 236.95 326.48523 239.2625Q326.48523 239.40312 326.4696 239.68437L319.51648 239.68437Q319.5946 241.23125 320.37585 242.04375Q321.17273 242.85625 322.32898 242.85625Q323.20398 242.85625 323.81335 242.40312Q324.43835 241.95 324.79773 240.95ZM319.5946 238.3875L324.81335 238.3875Q324.70398 237.21562 324.2196 236.62187Q323.45398 235.7 322.25085 235.7Q321.17273 235.7 320.42273 236.43437Q319.68835 237.16875 319.5946 238.3875ZM334.50085 242.79375Q333.62585 243.54375 332.79773 243.85625Q331.98523 244.16875 331.06335 244.16875Q329.51648 244.16875 328.68835 243.41875Q327.87585 242.65312 327.87585 241.48125Q327.87585 240.80937 328.18835 240.24687Q328.50085 239.66875 329.00085 239.325Q329.50085 238.98125 330.14148 238.80937Q330.61023 238.68437 331.54773 238.575Q333.45398 238.34062 334.36023 238.02812Q334.37585 237.7 334.37585 237.60625Q334.37585 236.65312 333.92273 236.24687Q333.31335 235.71562 332.12585 235.71562Q331.00085 235.71562 330.4696 236.10625Q329.93835 236.49687 329.68835 237.49687L328.14148 237.27812Q328.36023 236.27812 328.82898 235.66875Q329.31335 235.05937 330.2196 234.73125Q331.14148 234.40312 332.36023 234.40312Q333.54773 234.40312 334.29773 234.68437Q335.04773 234.96562 335.39148 235.40312Q335.75085 235.825 335.89148 236.46562Q335.9696 236.87187 335.9696 237.93437L335.9696 240.04375Q335.9696 242.24687 336.06335 242.84062Q336.17273 243.41875 336.4696 243.95L334.81335 243.95Q334.56335 243.45 334.50085 242.79375ZM334.36023 239.2625Q333.50085 239.62187 331.7821 239.85625Q330.81335 239.99687 330.4071 240.18437Q330.00085 240.35625 329.7821 240.7Q329.56335 241.02812 329.56335 241.45Q329.56335 242.075 330.0321 242.49687Q330.51648 242.91875 331.43835 242.91875Q332.36023 242.91875 333.06335 242.52812Q333.7821 242.12187 334.11023 241.43437Q334.36023 240.8875 334.36023 239.84062L334.36023 239.2625ZM341.86023 242.52812L342.0946 243.93437Q341.42273 244.075 340.89148 244.075Q340.0321 244.075 339.54773 243.80937Q339.07898 243.52812 338.89148 243.09062Q338.70398 242.6375 338.70398 241.21562L338.70398 235.84062L337.5321 235.84062L337.5321 234.62187L338.70398 234.62187L338.70398 232.30937L340.26648 231.35625L340.26648 234.62187L341.86023 234.62187L341.86023 235.84062L340.26648 235.84062L340.26648 241.30937Q340.26648 241.98125 340.3446 242.18437Q340.43835 242.37187 340.62585 242.48125Q340.81335 242.59062 341.17273 242.59062Q341.42273 242.59062 341.86023 242.52812ZM343.42273 232.8875L343.42273 231.05937L345.00085 231.05937L345.00085 232.8875L343.42273 232.8875ZM343.42273 243.95L343.42273 234.62187L345.00085 234.62187L345.00085 243.95L343.42273 243.95ZM346.81335 239.27812Q346.81335 236.68437 348.26648 235.43437Q349.4696 234.40312 351.18835 234.40312Q353.12585 234.40312 354.3446 235.66875Q355.56335 236.93437 355.56335 239.15312Q355.56335 240.95 355.01648 241.98125Q354.48523 243.0125 353.45398 243.59062Q352.42273 244.16875 351.18835 244.16875Q349.23523 244.16875 348.01648 242.91875Q346.81335 241.65312 346.81335 239.27812ZM348.43835 239.27812Q348.43835 241.075 349.2196 241.96562Q350.00085 242.85625 351.18835 242.85625Q352.37585 242.85625 353.1571 241.96562Q353.93835 241.05937 353.93835 239.23125Q353.93835 237.49687 353.14148 236.60625Q352.36023 235.71562 351.18835 235.71562Q350.00085 235.71562 349.2196 236.60625Q348.43835 237.49687 348.43835 239.27812ZM357.4071 243.95L357.4071 234.62187L358.82898 234.62187L358.82898 235.95Q359.86023 234.40312 361.79773 234.40312Q362.64148 234.40312 363.3446 234.71562Q364.06335 235.0125 364.4071 235.5125Q364.76648 235.99687 364.9071 236.66875Q364.98523 237.10625 364.98523 238.21562L364.98523 243.95L363.4071 243.95L363.4071 238.27812Q363.4071 237.30937 363.2196 236.825Q363.04773 236.34062 362.56335 236.05937Q362.0946 235.77812 361.4696 235.77812Q360.45398 235.77812 359.7196 236.41875Q358.98523 237.05937 358.98523 238.85625L358.98523 243.95L357.4071 243.95Z" fill-rule="nonzero"/><path fill="#000000" d="M386.07715 243.95L386.07715 231.05937L390.93652 231.05937Q392.21777 231.05937 392.88965 231.18437Q393.84277 231.34062 394.4834 231.79375Q395.12402 232.23125 395.51465 233.04375Q395.90527 233.84062 395.90527 234.79375Q395.90527 236.43437 394.8584 237.575Q393.81152 238.71562 391.09277 238.71562L387.78027 238.71562L387.78027 243.95L386.07715 243.95ZM387.78027 237.18437L391.1084 237.18437Q392.76465 237.18437 393.45215 236.575Q394.15527 235.96562 394.15527 234.84062Q394.15527 234.02812 393.74902 233.46562Q393.34277 232.8875 392.6709 232.7Q392.2334 232.59062 391.07715 232.59062L387.78027 232.59062L387.78027 237.18437ZM397.8584 243.95L397.8584 234.62187L399.28027 234.62187L399.28027 236.02812Q399.82715 235.04375 400.28027 234.73125Q400.74902 234.40312 401.2959 234.40312Q402.1084 234.40312 402.9209 234.91875L402.38965 236.3875Q401.7959 236.04375 401.21777 236.04375Q400.70215 236.04375 400.28027 236.35625Q399.87402 236.66875 399.70215 237.21562Q399.43652 238.05937 399.43652 239.05937L399.43652 243.95L397.8584 243.95ZM410.26465 240.95L411.90527 241.15312Q411.51465 242.575 410.46777 243.37187Q409.4209 244.16875 407.7959 244.16875Q405.74902 244.16875 404.5459 242.90312Q403.34277 241.6375 403.34277 239.35625Q403.34277 237.0125 404.5459 235.71562Q405.76465 234.40312 407.70215 234.40312Q409.57715 234.40312 410.76465 235.68437Q411.95215 236.95 411.95215 239.2625Q411.95215 239.40312 411.93652 239.68437L404.9834 239.68437Q405.06152 241.23125 405.84277 242.04375Q406.63965 242.85625 407.7959 242.85625Q408.6709 242.85625 409.28027 242.40312Q409.90527 241.95 410.26465 240.95ZM405.06152 238.3875L410.28027 238.3875Q410.1709 237.21562 409.68652 236.62187Q408.9209 235.7 407.71777 235.7Q406.63965 235.7 405.88965 236.43437Q405.15527 237.16875 405.06152 238.3875ZM416.46777 243.95L412.9209 234.62187L414.59277 234.62187L416.59277 240.2Q416.9209 241.10625 417.18652 242.09062Q417.40527 241.34062 417.78027 240.30937L419.84277 234.62187L421.4834 234.62187L417.93652 243.95L416.46777 243.95ZM429.26465 240.95L430.90527 241.15312Q430.51465 242.575 429.46777 243.37187Q428.4209 244.16875 426.7959 244.16875Q424.74902 244.16875 423.5459 242.90312Q422.34277 241.6375 422.34277 239.35625Q422.34277 237.0125 423.5459 235.71562Q424.76465 234.40312 426.70215 234.40312Q428.57715 234.40312 429.76465 235.68437Q430.95215 236.95 430.95215 239.2625Q430.95215 239.40312 430.93652 239.68437L423.9834 239.68437Q424.06152 241.23125 424.84277 242.04375Q425.63965 242.85625 426.7959 242.85625Q427.6709 242.85625 428.28027 242.40312Q428.90527 241.95 429.26465 240.95ZM424.06152 238.3875L429.28027 238.3875Q429.1709 237.21562 428.68652 236.62187Q427.9209 235.7 426.71777 235.7Q425.63965 235.7 424.88965 236.43437Q424.15527 237.16875 424.06152 238.3875ZM432.87402 243.95L432.87402 234.62187L434.2959 234.62187L434.2959 235.95Q435.32715 234.40312 437.26465 234.40312Q438.1084 234.40312 438.81152 234.71562Q439.53027 235.0125 439.87402 235.5125Q440.2334 235.99687 440.37402 236.66875Q440.45215 237.10625 440.45215 238.21562L440.45215 243.95L438.87402 243.95L438.87402 238.27812Q438.87402 237.30937 438.68652 236.825Q438.51465 236.34062 438.03027 236.05937Q437.56152 235.77812 436.93652 235.77812Q435.9209 235.77812 435.18652 236.41875Q434.45215 237.05937 434.45215 238.85625L434.45215 243.95L432.87402 243.95ZM446.32715 242.52812L446.56152 243.93437Q445.88965 244.075 445.3584 244.075Q444.49902 244.075 444.01465 243.80937Q443.5459 243.52812 443.3584 243.09062Q443.1709 242.6375 443.1709 241.21562L443.1709 235.84062L441.99902 235.84062L441.99902 234.62187L443.1709 234.62187L443.1709 232.30937L444.7334 231.35625L444.7334 234.62187L446.32715 234.62187L446.32715 235.84062L444.7334 235.84062L444.7334 241.30937Q444.7334 241.98125 444.81152 242.18437Q444.90527 242.37187 445.09277 242.48125Q445.28027 242.59062 445.63965 242.59062Q445.88965 242.59062 446.32715 242.52812ZM447.88965 232.8875L447.88965 231.05937L449.46777 231.05937L449.46777 232.8875L447.88965 232.8875ZM447.88965 243.95L447.88965 234.62187L449.46777 234.62187L449.46777 243.95L447.88965 243.95ZM451.28027 239.27812Q451.28027 236.68437 452.7334 235.43437Q453.93652 234.40312 455.65527 234.40312Q457.59277 234.40312 458.81152 235.66875Q460.03027 236.93437 460.03027 239.15312Q460.03027 240.95 459.4834 241.98125Q458.95215 243.0125 457.9209 243.59062Q456.88965 244.16875 455.65527 244.16875Q453.70215 244.16875 452.4834 242.91875Q451.28027 241.65312 451.28027 239.27812ZM452.90527 239.27812Q452.90527 241.075 453.68652 241.96562Q454.46777 242.85625 455.65527 242.85625Q456.84277 242.85625 457.62402 241.96562Q458.40527 241.05937 458.40527 239.23125Q458.40527 237.49687 457.6084 236.60625Q456.82715 235.71562 455.65527 235.71562Q454.46777 235.71562 453.68652 236.60625Q452.90527 237.49687 452.90527 239.27812ZM461.87402 243.95L461.87402 234.62187L463.2959 234.62187L463.2959 235.95Q464.32715 234.40312 466.26465 234.40312Q467.1084 234.40312 467.81152 234.71562Q468.53027 235.0125 468.87402 235.5125Q469.2334 235.99687 469.37402 236.66875Q469.45215 237.10625 469.45215 238.21562L469.45215 243.95L467.87402 243.95L467.87402 238.27812Q467.87402 237.30937 467.68652 236.825Q467.51465 236.34062 467.03027 236.05937Q466.56152 235.77812 465.93652 235.77812Q464.9209 235.77812 464.18652 236.41875Q463.45215 237.05937 463.45215 238.85625L463.45215 243.95L461.87402 243.95Z" fill-rule="nonzero"/><path fill="#000000" d="M510.62222 243.95L515.5753 231.05937L517.41907 231.05937L522.6847 243.95L520.7472 243.95L519.2472 240.04375L513.85657 240.04375L512.4347 243.95L510.62222 243.95ZM514.34094 238.65312L518.71594 238.65312L517.3722 235.09062Q516.7472 233.46562 516.4503 232.41875Q516.21594 233.65312 515.7628 234.87187L514.34094 238.65312ZM524.5597 243.95L521.7003 234.62187L523.34094 234.62187L524.8253 239.99687L525.3878 242.0125Q525.41907 241.85625 525.85657 240.075L527.35657 234.62187L528.98157 234.62187L530.3722 240.02812L530.84094 241.80937L531.3722 240.0125L532.98157 234.62187L534.5128 234.62187L531.59094 243.95L529.9503 243.95L528.46594 238.35625L528.10657 236.7625L526.21594 243.95L524.5597 243.95ZM541.9347 242.79375Q541.0597 243.54375 540.23157 243.85625Q539.41907 244.16875 538.4972 244.16875Q536.9503 244.16875 536.1222 243.41875Q535.3097 242.65312 535.3097 241.48125Q535.3097 240.80937 535.6222 240.24687Q535.9347 239.66875 536.4347 239.325Q536.9347 238.98125 537.5753 238.80937Q538.04407 238.68437 538.98157 238.575Q540.8878 238.34062 541.79407 238.02812Q541.8097 237.7 541.8097 237.60625Q541.8097 236.65312 541.35657 236.24687Q540.7472 235.71562 539.5597 235.71562Q538.4347 235.71562 537.90344 236.10625Q537.3722 236.49687 537.1222 237.49687L535.5753 237.27812Q535.79407 236.27812 536.2628 235.66875Q536.7472 235.05937 537.65344 234.73125Q538.5753 234.40312 539.79407 234.40312Q540.98157 234.40312 541.73157 234.68437Q542.48157 234.96562 542.8253 235.40312Q543.1847 235.825 543.3253 236.46562Q543.40344 236.87187 543.40344 237.93437L543.40344 240.04375Q543.40344 242.24687 543.4972 242.84062Q543.60657 243.41875 543.90344 243.95L542.2472 243.95Q541.9972 243.45 541.9347 242.79375ZM541.79407 239.2625Q540.9347 239.62187 539.21594 239.85625Q538.2472 239.99687 537.84094 240.18437Q537.4347 240.35625 537.21594 240.7Q536.9972 241.02812 536.9972 241.45Q536.9972 242.075 537.46594 242.49687Q537.9503 242.91875 538.8722 242.91875Q539.79407 242.91875 540.4972 242.52812Q541.21594 242.12187 541.54407 241.43437Q541.79407 240.8875 541.79407 239.84062L541.79407 239.2625ZM545.8253 243.95L545.8253 234.62187L547.2472 234.62187L547.2472 236.02812Q547.79407 235.04375 548.2472 234.73125Q548.71594 234.40312 549.2628 234.40312Q550.0753 234.40312 550.8878 234.91875L550.35657 236.3875Q549.7628 236.04375 549.1847 236.04375Q548.66907 236.04375 548.2472 236.35625Q547.84094 236.66875 547.66907 237.21562Q547.40344 238.05937 547.40344 239.05937L547.40344 243.95L545.8253 243.95ZM558.23157 240.95L559.8722 241.15312Q559.48157 242.575 558.4347 243.37187Q557.3878 244.16875 555.7628 244.16875Q553.71594 244.16875 552.5128 242.90312Q551.3097 241.6375 551.3097 239.35625Q551.3097 237.0125 552.5128 235.71562Q553.73157 234.40312 555.66907 234.40312Q557.54407 234.40312 558.73157 235.68437Q559.91907 236.95 559.91907 239.2625Q559.91907 239.40312 559.90344 239.68437L552.9503 239.68437Q553.02844 241.23125 553.8097 242.04375Q554.60657 242.85625 555.7628 242.85625Q556.6378 242.85625 557.2472 242.40312Q557.8722 241.95 558.23157 240.95ZM553.02844 238.3875L558.2472 238.3875Q558.1378 237.21562 557.65344 236.62187Q556.8878 235.7 555.6847 235.7Q554.60657 235.7 553.85657 236.43437Q553.1222 237.16875 553.02844 238.3875ZM561.84094 243.95L561.84094 234.62187L563.2628 234.62187L563.2628 235.95Q564.29407 234.40312 566.23157 234.40312Q567.0753 234.40312 567.77844 234.71562Q568.4972 235.0125 568.84094 235.5125Q569.2003 235.99687 569.34094 236.66875Q569.41907 237.10625 569.41907 238.21562L569.41907 243.95L567.84094 243.95L567.84094 238.27812Q567.84094 237.30937 567.65344 236.825Q567.48157 236.34062 566.9972 236.05937Q566.52844 235.77812 565.90344 235.77812Q564.8878 235.77812 564.15344 236.41875Q563.41907 237.05937 563.41907 238.85625L563.41907 243.95L561.84094 243.95ZM578.23157 240.95L579.8722 241.15312Q579.48157 242.575 578.4347 243.37187Q577.3878 244.16875 575.7628 244.16875Q573.71594 244.16875 572.5128 242.90312Q571.3097 241.6375 571.3097 239.35625Q571.3097 237.0125 572.5128 235.71562Q573.73157 234.40312 575.66907 234.40312Q577.54407 234.40312 578.73157 235.68437Q579.91907 236.95 579.91907 239.2625Q579.91907 239.40312 579.90344 239.68437L572.9503 239.68437Q573.02844 241.23125 573.8097 242.04375Q574.60657 242.85625 575.7628 242.85625Q576.6378 242.85625 577.2472 242.40312Q577.8722 241.95 578.23157 240.95ZM573.02844 238.3875L578.2472 238.3875Q578.1378 237.21562 577.65344 236.62187Q576.8878 235.7 575.6847 235.7Q574.60657 235.7 573.85657 236.43437Q573.1222 237.16875 573.02844 238.3875ZM581.2003 241.16875L582.77844 240.91875Q582.90344 241.85625 583.4972 242.35625Q584.10657 242.85625 585.1847 242.85625Q586.27844 242.85625 586.8097 242.41875Q587.34094 241.96562 587.34094 241.37187Q587.34094 240.84062 586.8722 240.52812Q586.54407 240.325 585.2472 239.99687Q583.5128 239.55937 582.84094 239.24687Q582.16907 238.91875 581.8097 238.35625Q581.46594 237.77812 581.46594 237.09062Q581.46594 236.46562 581.7472 235.93437Q582.04407 235.40312 582.52844 235.05937Q582.90344 234.77812 583.54407 234.59062Q584.1847 234.40312 584.90344 234.40312Q586.0128 234.40312 586.84094 234.73125Q587.66907 235.04375 588.0597 235.59062Q588.46594 236.12187 588.60657 237.02812L587.0597 237.23125Q586.9503 236.5125 586.4503 236.10625Q585.9503 235.7 585.02844 235.7Q583.9347 235.7 583.46594 236.05937Q582.9972 236.41875 582.9972 236.90312Q582.9972 237.21562 583.2003 237.46562Q583.3878 237.71562 583.79407 237.8875Q584.04407 237.96562 585.2003 238.29375Q586.8722 238.73125 587.52844 239.02812Q588.2003 239.30937 588.5753 239.85625Q588.96594 240.40312 588.96594 241.2Q588.96594 241.99687 588.4972 242.7Q588.04407 243.40312 587.16907 243.79375Q586.29407 244.16875 585.2003 244.16875Q583.3722 244.16875 582.41907 243.41875Q581.46594 242.65312 581.2003 241.16875ZM590.2003 241.16875L591.77844 240.91875Q591.90344 241.85625 592.4972 242.35625Q593.10657 242.85625 594.1847 242.85625Q595.27844 242.85625 595.8097 242.41875Q596.34094 241.96562 596.34094 241.37187Q596.34094 240.84062 595.8722 240.52812Q595.54407 240.325 594.2472 239.99687Q592.5128 239.55937 591.84094 239.24687Q591.16907 238.91875 590.8097 238.35625Q590.46594 237.77812 590.46594 237.09062Q590.46594 236.46562 590.7472 235.93437Q591.04407 235.40312 591.52844 235.05937Q591.90344 234.77812 592.54407 234.59062Q593.1847 234.40312 593.90344 234.40312Q595.0128 234.40312 595.84094 234.73125Q596.66907 235.04375 597.0597 235.59062Q597.46594 236.12187 597.60657 237.02812L596.0597 237.23125Q595.9503 236.5125 595.4503 236.10625Q594.9503 235.7 594.02844 235.7Q592.9347 235.7 592.46594 236.05937Q591.9972 236.41875 591.9972 236.90312Q591.9972 237.21562 592.2003 237.46562Q592.3878 237.71562 592.79407 237.8875Q593.04407 237.96562 594.2003 238.29375Q595.8722 238.73125 596.52844 239.02812Q597.2003 239.30937 597.5753 239.85625Q597.96594 240.40312 597.96594 241.2Q597.96594 241.99687 597.4972 242.7Q597.04407 243.40312 596.16907 243.79375Q595.29407 244.16875 594.2003 244.16875Q592.3722 244.16875 591.41907 243.41875Q590.46594 242.65312 590.2003 241.16875Z" fill-rule="nonzero"/><path fill="#000000" d="M653.26105 243.95L649.8392 231.05937L651.5892 231.05937L653.5423 239.5125Q653.8704 240.84062 654.0892 242.15312Q654.5892 240.075 654.6673 239.7625L657.1204 231.05937L659.1829 231.05937L661.0267 237.59062Q661.7298 240.0125 662.0267 242.15312Q662.2767 240.91875 662.6673 239.34062L664.69855 231.05937L666.4017 231.05937L662.8704 243.95L661.2298 243.95L658.51105 234.1375Q658.1673 232.90312 658.1048 232.62187Q657.9017 233.5125 657.7298 234.1375L654.9954 243.95L653.26105 243.95ZM674.19855 240.95L675.8392 241.15312Q675.44855 242.575 674.4017 243.37187Q673.3548 244.16875 671.7298 244.16875Q669.6829 244.16875 668.4798 242.90312Q667.2767 241.6375 667.2767 239.35625Q667.2767 237.0125 668.4798 235.71562Q669.69855 234.40312 671.63605 234.40312Q673.51105 234.40312 674.69855 235.68437Q675.88605 236.95 675.88605 239.2625Q675.88605 239.40312 675.8704 239.68437L668.9173 239.68437Q668.9954 241.23125 669.7767 242.04375Q670.57355 242.85625 671.7298 242.85625Q672.6048 242.85625 673.2142 242.40312Q673.8392 241.95 674.19855 240.95ZM668.9954 238.3875L674.2142 238.3875Q674.1048 237.21562 673.6204 236.62187Q672.8548 235.7 671.6517 235.7Q670.57355 235.7 669.82355 236.43437Q669.0892 237.16875 668.9954 238.3875ZM677.7923 243.95L677.7923 234.62187L679.2142 234.62187L679.2142 236.02812Q679.76105 235.04375 680.2142 234.73125Q680.6829 234.40312 681.2298 234.40312Q682.0423 234.40312 682.8548 234.91875L682.32355 236.3875Q681.7298 236.04375 681.1517 236.04375Q680.63605 236.04375 680.2142 236.35625Q679.8079 236.66875 679.63605 237.21562Q679.3704 238.05937 679.3704 239.05937L679.3704 243.95L677.7923 243.95ZM687.26105 242.52812L687.4954 243.93437Q686.82355 244.075 686.2923 244.075Q685.4329 244.075 684.94855 243.80937Q684.4798 243.52812 684.2923 243.09062Q684.1048 242.6375 684.1048 241.21562L684.1048 235.84062L682.9329 235.84062L682.9329 234.62187L684.1048 234.62187L684.1048 232.30937L685.6673 231.35625L685.6673 234.62187L687.26105 234.62187L687.26105 235.84062L685.6673 235.84062L685.6673 241.30937Q685.6673 241.98125 685.7454 242.18437Q685.8392 242.37187 686.0267 242.48125Q686.2142 242.59062 686.57355 242.59062Q686.82355 242.59062 687.26105 242.52812ZM688.8079 243.95L688.8079 231.05937L690.38605 231.05937L690.38605 235.68437Q691.4954 234.40312 693.1829 234.40312Q694.2142 234.40312 694.9798 234.80937Q695.7454 235.21562 696.07355 235.95Q696.4173 236.66875 696.4173 238.02812L696.4173 243.95L694.82355 243.95L694.82355 238.02812Q694.82355 236.84062 694.3079 236.30937Q693.7923 235.7625 692.8548 235.7625Q692.1517 235.7625 691.5267 236.1375Q690.9173 236.49687 690.6517 237.12187Q690.38605 237.74687 690.38605 238.84062L690.38605 243.95L688.8079 243.95ZM705.19855 240.95L706.8392 241.15312Q706.44855 242.575 705.4017 243.37187Q704.3548 244.16875 702.7298 244.16875Q700.6829 244.16875 699.4798 242.90312Q698.2767 241.6375 698.2767 239.35625Q698.2767 237.0125 699.4798 235.71562Q700.69855 234.40312 702.63605 234.40312Q704.51105 234.40312 705.69855 235.68437Q706.88605 236.95 706.88605 239.2625Q706.88605 239.40312 706.8704 239.68437L699.9173 239.68437Q699.9954 241.23125 700.7767 242.04375Q701.57355 242.85625 702.7298 242.85625Q703.6048 242.85625 704.2142 242.40312Q704.8392 241.95 705.19855 240.95ZM699.9954 238.3875L705.2142 238.3875Q705.1048 237.21562 704.6204 236.62187Q703.8548 235.7 702.6517 235.7Q701.57355 235.7 700.82355 236.43437Q700.0892 237.16875 699.9954 238.3875ZM708.7923 243.95L708.7923 234.62187L710.2142 234.62187L710.2142 236.02812Q710.76105 235.04375 711.2142 234.73125Q711.6829 234.40312 712.2298 234.40312Q713.0423 234.40312 713.8548 234.91875L713.32355 236.3875Q712.7298 236.04375 712.1517 236.04375Q711.63605 236.04375 711.2142 236.35625Q710.8079 236.66875 710.63605 237.21562Q710.3704 238.05937 710.3704 239.05937L710.3704 243.95L708.7923 243.95Z" fill-rule="nonzero"/><path fill="#000000" d="M773.2592 243.95L773.2592 231.05937L774.97797 231.05937L774.97797 243.95L773.2592 243.95ZM776.7592 243.95L776.7592 234.62187L778.1811 234.62187L778.1811 236.02812Q778.72797 235.04375 779.1811 234.73125Q779.64984 234.40312 780.1967 234.40312Q781.0092 234.40312 781.8217 234.91875L781.29047 236.3875Q780.6967 236.04375 780.1186 236.04375Q779.60297 236.04375 779.1811 236.35625Q778.77484 236.66875 778.60297 237.21562Q778.33734 238.05937 778.33734 239.05937L778.33734 243.95L776.7592 243.95ZM782.7592 243.95L782.7592 234.62187L784.1811 234.62187L784.1811 236.02812Q784.72797 235.04375 785.1811 234.73125Q785.64984 234.40312 786.1967 234.40312Q787.0092 234.40312 787.8217 234.91875L787.29047 236.3875Q786.6967 236.04375 786.1186 236.04375Q785.60297 236.04375 785.1811 236.35625Q784.77484 236.66875 784.60297 237.21562Q784.33734 238.05937 784.33734 239.05937L784.33734 243.95L782.7592 243.95ZM795.16547 240.95L796.8061 241.15312Q796.41547 242.575 795.3686 243.37187Q794.3217 244.16875 792.6967 244.16875Q790.64984 244.16875 789.4467 242.90312Q788.2436 241.6375 788.2436 239.35625Q788.2436 237.0125 789.4467 235.71562Q790.66547 234.40312 792.60297 234.40312Q794.47797 234.40312 795.66547 235.68437Q796.85297 236.95 796.85297 239.2625Q796.85297 239.40312 796.83734 239.68437L789.8842 239.68437Q789.96234 241.23125 790.7436 242.04375Q791.54047 242.85625 792.6967 242.85625Q793.5717 242.85625 794.1811 242.40312Q794.8061 241.95 795.16547 240.95ZM789.96234 238.3875L795.1811 238.3875Q795.0717 237.21562 794.58734 236.62187Q793.8217 235.7 792.6186 235.7Q791.54047 235.7 790.79047 236.43437Q790.0561 237.16875 789.96234 238.3875ZM798.7436 243.95L798.7436 231.05937L800.3217 231.05937L800.3217 243.95L798.7436 243.95ZM809.16547 240.95L810.8061 241.15312Q810.41547 242.575 809.3686 243.37187Q808.3217 244.16875 806.6967 244.16875Q804.64984 244.16875 803.4467 242.90312Q802.2436 241.6375 802.2436 239.35625Q802.2436 237.0125 803.4467 235.71562Q804.66547 234.40312 806.60297 234.40312Q808.47797 234.40312 809.66547 235.68437Q810.85297 236.95 810.85297 239.2625Q810.85297 239.40312 810.83734 239.68437L803.8842 239.68437Q803.96234 241.23125 804.7436 242.04375Q805.54047 242.85625 806.6967 242.85625Q807.5717 242.85625 808.1811 242.40312Q808.8061 241.95 809.16547 240.95ZM803.96234 238.3875L809.1811 238.3875Q809.0717 237.21562 808.58734 236.62187Q807.8217 235.7 806.6186 235.7Q805.54047 235.7 804.79047 236.43437Q804.0561 237.16875 803.96234 238.3875ZM815.3686 243.95L811.8217 234.62187L813.4936 234.62187L815.4936 240.2Q815.8217 241.10625 816.08734 242.09062Q816.3061 241.34062 816.6811 240.30937L818.7436 234.62187L820.3842 234.62187L816.83734 243.95L815.3686 243.95ZM827.8686 242.79375Q826.9936 243.54375 826.16547 243.85625Q825.35297 244.16875 824.4311 244.16875Q822.8842 244.16875 822.0561 243.41875Q821.2436 242.65312 821.2436 241.48125Q821.2436 240.80937 821.5561 240.24687Q821.8686 239.66875 822.3686 239.325Q822.8686 238.98125 823.5092 238.80937Q823.97797 238.68437 824.91547 238.575Q826.8217 238.34062 827.72797 238.02812Q827.7436 237.7 827.7436 237.60625Q827.7436 236.65312 827.29047 236.24687Q826.6811 235.71562 825.4936 235.71562Q824.3686 235.71562 823.83734 236.10625Q823.3061 236.49687 823.0561 237.49687L821.5092 237.27812Q821.72797 236.27812 822.1967 235.66875Q822.6811 235.05937 823.58734 234.73125Q824.5092 234.40312 825.72797 234.40312Q826.91547 234.40312 827.66547 234.68437Q828.41547 234.96562 828.7592 235.40312Q829.1186 235.825 829.2592 236.46562Q829.33734 236.87187 829.33734 237.93437L829.33734 240.04375Q829.33734 242.24687 829.4311 242.84062Q829.54047 243.41875 829.83734 243.95L828.1811 243.95Q827.9311 243.45 827.8686 242.79375ZM827.72797 239.2625Q826.8686 239.62187 825.14984 239.85625Q824.1811 239.99687 823.77484 240.18437Q823.3686 240.35625 823.14984 240.7Q822.9311 241.02812 822.9311 241.45Q822.9311 242.075 823.39984 242.49687Q823.8842 242.91875 824.8061 242.91875Q825.72797 242.91875 826.4311 242.52812Q827.14984 242.12187 827.47797 241.43437Q827.72797 240.8875 827.72797 239.84062L827.72797 239.2625ZM831.77484 243.95L831.77484 234.62187L833.1967 234.62187L833.1967 235.95Q834.22797 234.40312 836.16547 234.40312Q837.0092 234.40312 837.71234 234.71562Q838.4311 235.0125 838.77484 235.5125Q839.1342 235.99687 839.27484 236.66875Q839.35297 237.10625 839.35297 238.21562L839.35297 243.95L837.77484 243.95L837.77484 238.27812Q837.77484 237.30937 837.58734 236.825Q837.41547 236.34062 836.9311 236.05937Q836.46234 235.77812 835.83734 235.77812Q834.8217 235.77812 834.08734 236.41875Q833.35297 237.05937 833.35297 238.85625L833.35297 243.95L831.77484 243.95ZM845.22797 242.52812L845.46234 243.93437Q844.79047 244.075 844.2592 244.075Q843.39984 244.075 842.91547 243.80937Q842.4467 243.52812 842.2592 243.09062Q842.0717 242.6375 842.0717 241.21562L842.0717 235.84062L840.89984 235.84062L840.89984 234.62187L842.0717 234.62187L842.0717 232.30937L843.6342 231.35625L843.6342 234.62187L845.22797 234.62187L845.22797 235.84062L843.6342 235.84062L843.6342 241.30937Q843.6342 241.98125 843.71234 242.18437Q843.8061 242.37187 843.9936 242.48125Q844.1811 242.59062 844.54047 242.59062Q844.79047 242.59062 845.22797 242.52812Z" fill-rule="nonzero"/><path fill="#351c75" d="M909.95 18.55C909.95 17.997715 910.3977 17.55 910.95 17.55L920.95 17.55C921.50226 17.55 921.95 17.997715 921.95 18.55L921.95 28.55C921.95 29.102285 921.50226 29.55 920.95 29.55L910.95 29.55C910.3977 29.55 909.95 29.102285 909.95 28.55Z" fill-rule="nonzero"/><path fill="#1a1a1a" d="M931.34064 30.05L931.34064 17.159374L936.2 17.159374Q937.48126 17.159374 938.15314 17.284374Q939.10626 17.440624 939.7469 17.89375Q940.3875 18.33125 940.77814 19.14375Q941.16876 19.940624 941.16876 20.89375Q941.16876 22.534374 940.1219 23.675Q939.075 24.815624 936.35626 24.815624L933.04376 24.815624L933.04376 30.05L931.34064 30.05ZM933.04376 23.284374L936.3719 23.284374Q938.02814 23.284374 938.71564 22.675Q939.41876 22.065624 939.41876 20.940624Q939.41876 20.128124 939.0125 19.565624Q938.60626 18.9875 937.9344 18.8Q937.4969 18.690624 936.34064 18.690624L933.04376 18.690624L933.04376 23.284374ZM943.1219 30.05L943.1219 20.721874L944.54376 20.721874L944.54376 22.128124Q945.09064 21.14375 945.54376 20.83125Q946.0125 20.503124 946.5594 20.503124Q947.3719 20.503124 948.1844 21.01875L947.65314 22.4875Q947.0594 22.14375 946.48126 22.14375Q945.96564 22.14375 945.54376 22.45625Q945.1375 22.76875 944.96564 23.315624Q944.7 24.159374 944.7 25.159374L944.7 30.05L943.1219 30.05ZM955.52814 27.05L957.16876 27.253124Q956.77814 28.675 955.73126 29.471874Q954.6844 30.26875 953.0594 30.26875Q951.0125 30.26875 949.8094 29.003124Q948.60626 27.7375 948.60626 25.45625Q948.60626 23.1125 949.8094 21.815624Q951.02814 20.503124 952.96564 20.503124Q954.84064 20.503124 956.02814 21.784374Q957.21564 23.05 957.21564 25.3625Q957.21564 25.503124 957.2 25.784374L950.2469 25.784374Q950.325 27.33125 951.10626 28.14375Q951.90314 28.95625 953.0594 28.95625Q953.9344 28.95625 954.54376 28.503124Q955.16876 28.05 955.52814 27.05ZM950.325 24.4875L955.54376 24.4875Q955.4344 23.315624 954.95 22.721874Q954.1844 21.8 952.98126 21.8Q951.90314 21.8 951.15314 22.534374Q950.41876 23.26875 950.325 24.4875ZM965.23126 26.628124L966.77814 26.83125Q966.52814 28.440624 965.48126 29.3625Q964.4344 30.26875 962.90314 30.26875Q960.98126 30.26875 959.8094 29.01875Q958.65314 27.753124 958.65314 25.425Q958.65314 23.909374 959.15314 22.784374Q959.65314 21.64375 960.66876 21.08125Q961.7 20.503124 962.90314 20.503124Q964.4344 20.503124 965.3875 21.284374Q966.35626 22.05 966.6375 23.45625L965.09064 23.690624Q964.8719 22.753124 964.3094 22.284374Q963.7625 21.8 962.96564 21.8Q961.77814 21.8 961.02814 22.659374Q960.27814 23.51875 960.27814 25.378124Q960.27814 27.253124 960.9969 28.1125Q961.71564 28.95625 962.8875 28.95625Q963.8094 28.95625 964.4344 28.39375Q965.0594 27.815624 965.23126 26.628124ZM968.15314 18.9875L968.15314 17.159374L969.73126 17.159374L969.73126 18.9875L968.15314 18.9875ZM968.15314 30.05L968.15314 20.721874L969.73126 20.721874L969.73126 30.05L968.15314 30.05ZM971.4969 27.26875L973.075 27.01875Q973.2 27.95625 973.79376 28.45625Q974.40314 28.95625 975.48126 28.95625Q976.575 28.95625 977.10626 28.51875Q977.6375 28.065624 977.6375 27.471874Q977.6375 26.940624 977.16876 26.628124Q976.84064 26.425 975.54376 26.096874Q973.8094 25.659374 973.1375 25.346874Q972.46564 25.01875 972.10626 24.45625Q971.7625 23.878124 971.7625 23.190624Q971.7625 22.565624 972.04376 22.034374Q972.34064 21.503124 972.825 21.159374Q973.2 20.878124 973.84064 20.690624Q974.48126 20.503124 975.2 20.503124Q976.3094 20.503124 977.1375 20.83125Q977.96564 21.14375 978.35626 21.690624Q978.7625 22.221874 978.90314 23.128124L977.35626 23.33125Q977.2469 22.6125 976.7469 22.20625Q976.2469 21.8 975.325 21.8Q974.23126 21.8 973.7625 22.159374Q973.29376 22.51875 973.29376 23.003124Q973.29376 23.315624 973.4969 23.565624Q973.6844 23.815624 974.09064 23.9875Q974.34064 24.065624 975.4969 24.39375Q977.16876 24.83125 977.825 25.128124Q978.4969 25.409374 978.8719 25.95625Q979.2625 26.503124 979.2625 27.3Q979.2625 28.096874 978.79376 28.8Q978.34064 29.503124 977.46564 29.89375Q976.59064 30.26875 975.4969 30.26875Q973.66876 30.26875 972.71564 29.51875Q971.7625 28.753124 971.4969 27.26875ZM981.15314 18.9875L981.15314 17.159374L982.73126 17.159374L982.73126 18.9875L981.15314 18.9875ZM981.15314 30.05L981.15314 20.721874L982.73126 20.721874L982.73126 30.05L981.15314 30.05ZM984.54376 25.378124Q984.54376 22.784374 985.9969 21.534374Q987.2 20.503124 988.91876 20.503124Q990.85626 20.503124 992.075 21.76875Q993.29376 23.034374 993.29376 25.253124Q993.29376 27.05 992.7469 28.08125Q992.21564 29.1125 991.1844 29.690624Q990.15314 30.26875 988.91876 30.26875Q986.96564 30.26875 985.7469 29.01875Q984.54376 27.753124 984.54376 25.378124ZM986.16876 25.378124Q986.16876 27.175 986.95 28.065624Q987.73126 28.95625 988.91876 28.95625Q990.10626 28.95625 990.8875 28.065624Q991.66876 27.159374 991.66876 25.33125Q991.66876 23.596874 990.8719 22.70625Q990.09064 21.815624 988.91876 21.815624Q987.73126 21.815624 986.95 22.70625Q986.16876 23.596874 986.16876 25.378124ZM995.1375 30.05L995.1375 20.721874L996.5594 20.721874L996.5594 22.05Q997.59064 20.503124 999.52814 20.503124Q1000.3719 20.503124 1001.075 20.815624Q1001.79376 21.1125 1002.1375 21.6125Q1002.4969 22.096874 1002.6375 22.76875Q1002.71564 23.20625 1002.71564 24.315624L1002.71564 30.05L1001.1375 30.05L1001.1375 24.378124Q1001.1375 23.409374 1000.95 22.925Q1000.77814 22.440624 1000.29376 22.159374Q999.825 21.878124 999.2 21.878124Q998.1844 21.878124 997.45 22.51875Q996.71564 23.159374 996.71564 24.95625L996.71564 30.05L995.1375 30.05Z" fill-rule="nonzero"/><path fill="#4285f4" d="M909.95 49.55C909.95 48.997715 910.3977 48.55 910.95 48.55L920.95 48.55C921.50226 48.55 921.95 48.997715 921.95 49.55L921.95 59.55C921.95 60.102283 921.50226 60.55 920.95 60.55L910.95 60.55C910.3977 60.55 909.95 60.102283 909.95 59.55Z" fill-rule="nonzero"/><path fill="#1a1a1a" d="M931.3719 61.05L931.3719 48.159374L937.075 48.159374Q938.79376 48.159374 939.6844 48.51875Q940.59064 48.8625 941.1219 49.7375Q941.66876 50.6125 941.66876 51.675Q941.66876 53.05 940.77814 53.9875Q939.8875 54.925 938.04376 55.190624Q938.71564 55.51875 939.0594 55.83125Q939.8094 56.51875 940.48126 57.55L942.71564 61.05L940.575 61.05L938.8719 58.3625Q938.1219 57.20625 937.6375 56.596874Q937.15314 55.971874 936.7625 55.7375Q936.3875 55.4875 935.9969 55.39375Q935.7 55.33125 935.04376 55.33125L933.075 55.33125L933.075 61.05L931.3719 61.05ZM933.075 53.846874L936.73126 53.846874Q937.90314 53.846874 938.5594 53.6125Q939.21564 53.3625 939.5594 52.83125Q939.90314 52.3 939.90314 51.675Q939.90314 50.76875 939.23126 50.175Q938.575 49.58125 937.15314 49.58125L933.075 49.58125L933.075 53.846874ZM950.52814 58.05L952.16876 58.253124Q951.77814 59.675 950.73126 60.471874Q949.6844 61.26875 948.0594 61.26875Q946.0125 61.26875 944.8094 60.003124Q943.60626 58.7375 943.60626 56.45625Q943.60626 54.1125 944.8094 52.815624Q946.02814 51.503124 947.96564 51.503124Q949.84064 51.503124 951.02814 52.784374Q952.21564 54.05 952.21564 56.3625Q952.21564 56.503124 952.2 56.784374L945.2469 56.784374Q945.325 58.33125 946.10626 59.14375Q946.90314 59.95625 948.0594 59.95625Q948.9344 59.95625 949.54376 59.503124Q950.16876 59.05 950.52814 58.05ZM945.325 55.4875L950.54376 55.4875Q950.4344 54.315624 949.95 53.721874Q949.1844 52.8 947.98126 52.8Q946.90314 52.8 946.15314 53.534374Q945.41876 54.26875 945.325 55.4875ZM960.23126 57.628124L961.77814 57.83125Q961.52814 59.440624 960.48126 60.3625Q959.4344 61.26875 957.90314 61.26875Q955.98126 61.26875 954.8094 60.01875Q953.65314 58.753124 953.65314 56.425Q953.65314 54.909374 954.15314 53.784374Q954.65314 52.64375 955.66876 52.08125Q956.7 51.503124 957.90314 51.503124Q959.4344 51.503124 960.3875 52.284374Q961.35626 53.05 961.6375 54.45625L960.09064 54.690624Q959.8719 53.753124 959.3094 53.284374Q958.7625 52.8 957.96564 52.8Q956.77814 52.8 956.02814 53.659374Q955.27814 54.51875 955.27814 56.378124Q955.27814 58.253124 955.9969 59.1125Q956.71564 59.95625 957.8875 59.95625Q958.8094 59.95625 959.4344 59.39375Q960.0594 58.815624 960.23126 57.628124ZM969.23126 59.89375Q968.35626 60.64375 967.52814 60.95625Q966.71564 61.26875 965.79376 61.26875Q964.2469 61.26875 963.41876 60.51875Q962.60626 59.753124 962.60626 58.58125Q962.60626 57.909374 962.91876 57.346874Q963.23126 56.76875 963.73126 56.425Q964.23126 56.08125 964.8719 55.909374Q965.34064 55.784374 966.27814 55.675Q968.1844 55.440624 969.09064 55.128124Q969.10626 54.8 969.10626 54.70625Q969.10626 53.753124 968.65314 53.346874Q968.04376 52.815624 966.85626 52.815624Q965.73126 52.815624 965.2 53.20625Q964.66876 53.596874 964.41876 54.596874L962.8719 54.378124Q963.09064 53.378124 963.5594 52.76875Q964.04376 52.159374 964.95 51.83125Q965.8719 51.503124 967.09064 51.503124Q968.27814 51.503124 969.02814 51.784374Q969.77814 52.065624 970.1219 52.503124Q970.48126 52.925 970.6219 53.565624Q970.7 53.971874 970.7 55.034374L970.7 57.14375Q970.7 59.346874 970.79376 59.940624Q970.90314 60.51875 971.2 61.05L969.54376 61.05Q969.29376 60.55 969.23126 59.89375ZM969.09064 56.3625Q968.23126 56.721874 966.5125 56.95625Q965.54376 57.096874 965.1375 57.284374Q964.73126 57.45625 964.5125 57.8Q964.29376 58.128124 964.29376 58.55Q964.29376 59.175 964.7625 59.596874Q965.2469 60.01875 966.16876 60.01875Q967.09064 60.01875 967.79376 59.628124Q968.5125 59.221874 968.84064 58.534374Q969.09064 57.9875 969.09064 56.940624L969.09064 56.3625ZM973.10626 61.05L973.10626 48.159374L974.6844 48.159374L974.6844 61.05L973.10626 61.05ZM977.10626 61.05L977.10626 48.159374L978.6844 48.159374L978.6844 61.05L977.10626 61.05Z" fill-rule="nonzero"/><path fill="#46bdc6" d="M909.95 80.55C909.95 79.99772 910.3977 79.55 910.95 79.55L920.95 79.55C921.50226 79.55 921.95 79.99772 921.95 80.55L921.95 90.55C921.95 91.10229 921.50226 91.55 920.95 91.55L910.95 91.55C910.3977 91.55 909.95 91.10229 909.95 90.55Z" fill-rule="nonzero"/><path fill="#1a1a1a" d="M931.4344 92.05L931.4344 79.15938L940.1219 79.15938L940.1219 80.69063L933.1375 80.69063L933.1375 84.675L939.1844 84.675L939.1844 86.19063L933.1375 86.19063L933.1375 92.05L931.4344 92.05ZM947.65314 92.05L946.075 92.05L946.075 81.97188Q945.4969 82.51875 944.575 83.06563Q943.65314 83.59688 942.90314 83.87813L942.90314 82.34688Q944.23126 81.72188 945.23126 80.83125Q946.23126 79.94063 946.6375 79.1125L947.65314 79.1125L947.65314 92.05Z" fill-rule="nonzero"/><path fill="#38761d" d="M909.95 111.55C909.95 110.99772 910.3977 110.55 910.95 110.55L920.95 110.55C921.50226 110.55 921.95 110.99772 921.95 111.55L921.95 121.55C921.95 122.10229 921.50226 122.55 920.95 122.55L910.95 122.55C910.3977 122.55 909.95 122.10229 909.95 121.55Z" fill-rule="nonzero"/><path fill="#1a1a1a" d="M929.91876 123.05L934.8719 110.15938L936.71564 110.15938L941.98126 123.05L940.04376 123.05L938.54376 119.14375L933.15314 119.14375L931.73126 123.05L929.91876 123.05ZM933.6375 117.75313L938.0125 117.75313L936.66876 114.19063Q936.04376 112.56563 935.7469 111.51875Q935.5125 112.75313 935.0594 113.97188L933.6375 117.75313ZM948.23126 119.62813L949.77814 119.83125Q949.52814 121.44063 948.48126 122.3625Q947.4344 123.26875 945.90314 123.26875Q943.98126 123.26875 942.8094 122.01875Q941.65314 120.75313 941.65314 118.425Q941.65314 116.90938 942.15314 115.78438Q942.65314 114.64375 943.66876 114.08125Q944.7 113.50313 945.90314 113.50313Q947.4344 113.50313 948.3875 114.28438Q949.35626 115.05 949.6375 116.45625L948.09064 116.69063Q947.8719 115.75313 947.3094 115.28438Q946.7625 114.8 945.96564 114.8Q944.77814 114.8 944.02814 115.65938Q943.27814 116.51875 943.27814 118.37813Q943.27814 120.25313 943.9969 121.1125Q944.71564 121.95625 945.8875 121.95625Q946.8094 121.95625 947.4344 121.39375Q948.0594 120.81563 948.23126 119.62813ZM957.23126 119.62813L958.77814 119.83125Q958.52814 121.44063 957.48126 122.3625Q956.4344 123.26875 954.90314 123.26875Q952.98126 123.26875 951.8094 122.01875Q950.65314 120.75313 950.65314 118.425Q950.65314 116.90938 951.15314 115.78438Q951.65314 114.64375 952.66876 114.08125Q953.7 113.50313 954.90314 113.50313Q956.4344 113.50313 957.3875 114.28438Q958.35626 115.05 958.6375 116.45625L957.09064 116.69063Q956.8719 115.75313 956.3094 115.28438Q955.7625 114.8 954.96564 114.8Q953.77814 114.8 953.02814 115.65938Q952.27814 116.51875 952.27814 118.37813Q952.27814 120.25313 952.9969 121.1125Q953.71564 121.95625 954.8875 121.95625Q955.8094 121.95625 956.4344 121.39375Q957.0594 120.81563 957.23126 119.62813Z" fill-rule="nonzero"/></svg>